<?xml version="1.0" encoding="UTF-8" standalone="no"?>
<svg
   xmlns:dc="http://purl.org/dc/elements/1.1/"
   xmlns:cc="http://creativecommons.org/ns#"
   xmlns:rdf="http://www.w3.org/1999/02/22-rdf-syntax-ns#"
   xmlns:svg="http://www.w3.org/2000/svg"
   xmlns="http://www.w3.org/2000/svg"
   viewBox="0 0 1729.3333 1728"
   height="1728"
   width="1729.3333"
   xml:space="preserve"
   id="svg2"
   version="1.1"><metadata
     id="metadata8"><rdf:RDF><cc:Work
         rdf:about=""><dc:format>image/svg+xml</dc:format><dc:type
           rdf:resource="http://purl.org/dc/dcmitype/StillImage" /><dc:title></dc:title></cc:Work></rdf:RDF></metadata><defs
     id="defs6"><clipPath
       id="clipPath18"
       clipPathUnits="userSpaceOnUse"><path
         id="path16"
         d="m 349.21875,-258.62012 c 0,0 0,-770.95848 0,-770.95848 0,0 598.4502,0 598.4502,0 0,0 0,770.95848 0,770.95848 0,0 -598.4502,0 -598.4502,0 z" /></clipPath><clipPath
       id="clipPath32"
       clipPathUnits="userSpaceOnUse"><path
         id="path30"
         d="m 349.21875,-258.62012 c 0,0 0,-770.95848 0,-770.95848 0,0 598.4502,0 598.4502,0 0,0 0,770.95848 0,770.95848 0,0 -598.4502,0 -598.4502,0 z" /></clipPath><clipPath
       id="clipPath70"
       clipPathUnits="userSpaceOnUse"><path
         id="path68"
         d="m 954.3877,-1043.5 c 0,0 0,792 0,792 0,0 -611.8877,0 -611.8877,0 0,0 0,-792 0,-792 0,0 611.8877,0 611.8877,0 z" /></clipPath></defs><g
     transform="matrix(1.3333333,0,0,-1.3333333,0,1728)"
     id="g10"><g
       transform="scale(1,-1)"
       id="g12"><g
         clip-path="url(#clipPath18)"
         id="g14"><path
           id="path20"
           style="fill-opacity:1;fill-rule:nonzero;stroke:none"
           d="m 402.48877,-532.00781 c 0,0 -0.47998,-0.24024 -0.47998,-0.24024 0,0 -0.23975,0 -0.23975,0 0,0 -0.23974,-0.24023 -0.23974,-0.24023 0,0 -0.72022,0 -0.72022,0 0,0 -0.47998,-0.24024 -0.47998,-0.24024 0,0 -0.23974,0 -0.23974,0 0,0 -0.95997,0 -0.95997,0 0,0 -1.67919,-0.24023 -1.67919,-0.24023 0,0 -0.47999,0 -0.47999,0 0,0 -0.24023,0 -0.24023,0 0,0 -0.23975,0.24023 -0.23975,0.24023 0,0 -0.24023,0.48047 -0.24023,0.48047 0,0 -0.23975,0.24024 -0.23975,0.24024 0,0 -0.23974,0 -0.23974,0 0,0 -1.19971,0 -1.19971,0 0,0 -1.44043,-0.24024 -1.44043,-0.24024 0,0 -0.71924,-0.24023 -0.71924,-0.24023 0,0 -0.24023,-0.24024 -0.24023,-0.24024 0,0 -0.47998,-0.71972 -0.47998,-0.71972 0,0 -0.47949,-0.71973 -0.47949,-0.71973 0,0 -0.24024,-0.24023 -0.24024,-0.24023 0,0 -0.47998,-0.24024 -0.47998,-0.24024 0,0 -0.24023,0.24024 -0.24023,0.24024 0,0 -0.47998,0.95996 -0.47998,0.95996 0,0 -0.23926,0.47949 -0.23926,0.47949 0,0 -0.24024,0 -0.24024,0 0,0 -0.24023,0 -0.24023,0 0,0 -0.23975,0 -0.23975,0 0,0 -0.47998,-0.47949 -0.47998,-0.47949 0,0 -0.23974,-0.47949 -0.23974,-0.47949 0,0 -0.24024,-0.48047 -0.24024,-0.48047 0,0 0.24024,-1.2002 0.24024,-1.2002 0,0 -1.2002,-1.43945 -1.2002,-1.43945 0,0 -0.23974,-0.7207 -0.23974,-0.7207 0,0 0,-0.24024 0,-0.24024 0,0 0,-0.48047 0,-0.48047 0,0 -0.23975,-0.23926 -0.23975,-0.23926 0,0 -0.24023,0 -0.24023,0 0,0 -0.47999,0 -0.47999,0 0,0 -0.47949,-0.24023 -0.47949,-0.24023 0,0 -0.24023,-0.47949 -0.24023,-0.47949 0,0 0,-0.72071 0,-0.72071 0,0 0.24023,-0.71972 0.24023,-0.71972 0,0 0.23975,-0.95996 0.23975,-0.95996 0,0 0.71973,-1.91992 0.71973,-1.91992 0,0 0.71972,-0.72071 0.71972,-0.72071 0,0 0.24024,-0.47949 0.24024,-0.47949 0,0 0.23974,-0.48047 0.23974,-0.48047 0,0 0.24024,-0.95996 0.24024,-0.95996 0,0 0.23974,-0.48047 0.23974,-0.48047 0,0 0,-0.23926 0,-0.23926 0,0 0,-0.7207 0,-0.7207 0,0 0,-0.48047 0,-0.48047 0,0 0.47998,-0.95996 0.47998,-0.95996 0,0 0,-0.23926 0,-0.23926 0,0 0,-0.48047 0,-0.48047 0,0 -0.23974,-1.20019 -0.23974,-1.20019 0,0 0,-0.47949 0,-0.47949 0,0 0.23974,-0.72071 0.23974,-0.72071 0,0 0.23975,-0.95996 0.23975,-0.95996 0,0 0,-0.24023 0,-0.24023 0,0 0,-0.47949 0,-0.47949 0,0 -0.47949,-0.48047 -0.47949,-0.48047 0,0 -0.24024,-0.48047 -0.24024,-0.48047 0,0 -0.71972,-1.19922 -0.71972,-1.19922 0,0 0.23974,-0.24023 0.23974,-0.24023 0,0 1.19971,-0.71973 1.19971,-0.71973 0,0 0.24023,-0.48047 0.24023,-0.48047 0,0 -0.47998,-1.2002 -0.47998,-1.2002 0,0 -0.23974,-0.48046 -0.23974,-0.48046 0,0 -0.47998,-0.23926 -0.47998,-0.23926 0,0 -0.72022,-0.24024 -0.72022,-0.24024 0,0 -0.95947,-0.48046 -0.95947,-0.48046 0,0 -0.71973,0 -0.71973,0 0,0 -0.47998,-0.23926 -0.47998,-0.23926 0,0 -0.47998,-0.24024 -0.47998,-0.24024 0,0 0,-0.24023 0,-0.24023 0,0 -0.71973,-1.44043 -0.71973,-1.44043 0,0 0,-0.24024 0,-0.24024 0,0 0,-0.23925 0,-0.23925 0,0 0.71973,-0.72071 0.71973,-0.72071 0,0 1.19971,-0.71972 1.19971,-0.71972 0,0 0.23974,-0.4795 0.23974,-0.4795 0,0 0.24024,-0.24023 0.24024,-0.24023 0,0 0.47998,-1.20019 0.47998,-1.20019 0,0 0.23975,-1.68067 0.23975,-1.68067 0,0 0,-0.48047 0,-0.48047 0,0 0,-0.47949 0,-0.47949 0,0 -0.71973,-1.2002 -0.71973,-1.2002 0,0 0,-0.48046 0,-0.48046 0,0 0,-0.4795 0,-0.4795 0,0 0,-0.24023 0,-0.24023 0,0 -0.24024,-0.23926 -0.24024,-0.23926 0,0 -0.23974,-0.24121 -0.23974,-0.24121 0,0 -0.95996,-1.19922 -0.95996,-1.19922 0,0 -0.23975,-0.48047 -0.23975,-0.48047 0,0 0,-0.24023 0,-0.24023 0,0 0.23975,-0.23926 0.23975,-0.23926 0,0 0.24023,0 0.24023,0 0,0 0.95947,0 0.95947,0 0,0 0.72022,0 0.72022,0 0,0 0.47949,-0.24023 0.47949,-0.24023 0,0 0,-0.24024 0,-0.24024 0,0 0,-0.24023 0,-0.24023 0,0 0.24024,0 0.24024,0 0,0 0.71972,-0.24024 0.71972,-0.24024 0,0 1.19971,0 1.19971,0 0,0 1.43994,0.48047 1.43994,0.48047 0,0 0.47998,0 0.47998,0 0,0 0.24024,0 0.24024,0 0,0 0.71923,-0.24023 0.71923,-0.24023 0,0 0.72022,-0.71973 0.72022,-0.71973 0,0 0.47949,-0.48047 0.47949,-0.48047 0,0 0.24024,-0.71972 0.24024,-0.71972 0,0 0.47998,-1.44043 0.47998,-1.44043 0,0 0,-0.71973 0,-0.71973 0,0 0,-0.24023 0,-0.24023 0,0 0.95947,-1.67969 0.95947,-1.67969 0,0 0.48047,-0.24024 0.48047,-0.24024 0,0 0.47998,-0.7207 0.47998,-0.7207 0,0 0.23974,-0.47949 0.23974,-0.47949 0,0 0.23975,-0.24024 0.23975,-0.24024 0,0 0,-0.48046 0,-0.48046 0,0 0.72021,-0.95997 0.72021,-0.95997 0,0 0.23975,-0.24023 0.23975,-0.24023 0,0 0.71973,-0.47949 0.71973,-0.47949 0,0 0.47998,0 0.47998,0 0,0 0.47998,-0.24024 0.47998,-0.24024 0,0 0.71973,-0.71972 0.71973,-0.71972 0,0 0.24023,-0.24024 0.24023,-0.24024 0,0 0,-0.7207 0,-0.7207 0,0 0,-0.47949 0,-0.47949 0,0 0,-0.23926 0,-0.23926 0,0 1.67969,-1.20117 1.67969,-1.20117 0,0 1.67968,-0.95996 1.67968,-0.95996 0,0 0,-0.24024 0,-0.24024 0,0 -0.23974,-0.23926 -0.23974,-0.23926 0,0 -0.72022,-1.44043 -0.72022,-1.44043 0,0 -0.47998,-1.20019 -0.47998,-1.20019 0,0 0,-0.47949 0,-0.47949 0,0 0,-0.72071 0,-0.72071 0,0 0.71973,-1.20019 0.71973,-1.20019 0,0 0.24023,-0.24024 0.24023,-0.24024 0,0 0.24024,-0.23925 0.24024,-0.23925 0,0 0.23974,-0.24024 0.23974,-0.24024 0,0 0,-0.24023 0,-0.24023 0,0 0,-0.24024 0,-0.24024 0,0 0,-0.24023 0,-0.24023 0,0 -0.23974,-0.23926 -0.23974,-0.23926 0,0 0,-0.48047 0,-0.48047 0,0 0,-0.48047 0,-0.48047 0,0 0,-0.23925 0,-0.23925 0,0 0.23974,-0.48047 0.23974,-0.48047 0,0 0,-0.48047 0,-0.48047 0,0 -0.23974,-0.47949 -0.23974,-0.47949 0,0 0,-0.24024 0,-0.24024 0,0 0,-0.23926 0,-0.23926 0,0 0,-0.48046 0,-0.48046 0,0 0,-0.24024 0,-0.24024 0,0 0.23974,-0.23926 0.23974,-0.23926 0,0 0,-0.24023 0,-0.24023 0,0 0.23975,0 0.23975,0 0,0 0,-0.24024 0,-0.24024 0,0 0,-0.24023 0,-0.24023 0,0 -0.23975,0 -0.23975,0 0,0 0,-0.24023 0,-0.24023 0,0 0,-0.24024 0,-0.24024 0,0 -0.23974,-0.23926 -0.23974,-0.23926 0,0 0,-0.24023 0,-0.24023 0,0 -0.24024,-0.47949 -0.24024,-0.47949 0,0 0.24024,-0.24121 0.24024,-0.24121 0,0 0,-0.23926 0,-0.23926 0,0 0.23974,-0.24024 0.23974,-0.24024 0,0 0.23975,-0.47949 0.23975,-0.47949 0,0 0.47998,-0.24121 0.47998,-0.24121 0,0 0.72022,-0.23926 0.72022,-0.23926 0,0 0.23974,0 0.23974,0 0,0 0.47949,-0.24023 0.47949,-0.24023 0,0 0.72022,-0.47949 0.72022,-0.47949 0,0 0.24023,-1.2002 0.24023,-1.2002 0,0 0,-0.7207 0,-0.7207 0,0 -0.24023,-0.47949 -0.24023,-0.47949 0,0 -0.23975,-0.24024 -0.23975,-0.24024 0,0 -0.24023,-0.24023 -0.24023,-0.24023 0,0 -0.24024,-0.48047 -0.24024,-0.48047 0,0 0,-0.23926 0,-0.23926 0,0 -0.47949,-0.24023 -0.47949,-0.24023 0,0 -0.23974,-0.24024 -0.23974,-0.24024 0,0 0.23974,0 0.23974,0 0,0 0.23975,-0.71973 0.23975,-0.71973 0,0 0.23974,-0.48046 0.23974,-0.48046 0,0 0.24024,-0.48047 0.24024,-0.48047 0,0 0,-0.71973 0,-0.71973 0,0 0,-0.48047 0,-0.48047 0,0 -0.24024,-0.71972 -0.24024,-0.71972 0,0 -0.95947,-2.16016 -0.95947,-2.16016 0,0 -0.24023,-1.43945 -0.24023,-1.43945 0,0 -0.71973,-1.68067 -0.71973,-1.68067 0,0 0.23975,0 0.23975,0 0,0 0.24023,-0.24023 0.24023,-0.24023 0,0 0.23975,-0.48047 0.23975,-0.48047 0,0 0.24023,-0.23926 0.24023,-0.23926 0,0 -0.24023,-0.24023 -0.24023,-0.24023 0,0 -0.23975,-0.95996 -0.23975,-0.95996 0,0 0,-0.24024 0,-0.24024 0,0 -0.47998,-1.20019 -0.47998,-1.20019 0,0 0,-0.24024 0,-0.24024 0,0 0.23975,-0.47949 0.23975,-0.47949 0,0 0,-0.24023 0,-0.24023 0,0 0.24023,0 0.24023,0 0,0 0.72022,0 0.72022,0 0,0 0.23974,0 0.23974,0 0,0 0.47949,-0.4795 0.47949,-0.4795 0,0 0.24024,-0.24023 0.24024,-0.24023 0,0 0.24023,-0.24024 0.24023,-0.24024 0,0 0.23975,-0.24023 0.23975,-0.24023 0,0 -0.23975,-0.71973 -0.23975,-0.71973 0,0 0,-0.24023 0,-0.24023 0,0 -0.72021,-0.47949 -0.72021,-0.47949 0,0 -0.23975,-0.48047 -0.23975,-0.48047 0,0 -0.23974,0 -0.23974,0 0,0 0,-0.24024 0,-0.24024 0,0 0,-0.24023 0,-0.24023 0,0 0,-0.23926 0,-0.23926 0,0 0,-0.24023 0,-0.24023 0,0 0.23974,-0.24024 0.23974,-0.24024 0,0 0.23975,0 0.23975,0 0,0 0.23974,-0.24023 0.23974,-0.24023 0,0 0.24024,-0.23926 0.24024,-0.23926 0,0 0,-0.24023 0,-0.24023 0,0 0,-0.24024 0,-0.24024 0,0 0,-0.24023 0,-0.24023 0,0 -0.24024,-0.24024 -0.24024,-0.24024 0,0 -0.47949,-0.71972 -0.47949,-0.71972 0,0 -0.23974,0 -0.23974,0 0,0 -0.24024,-0.24024 -0.24024,-0.24024 0,0 -0.24023,-0.24023 -0.24023,-0.24023 0,0 0,-0.24024 0,-0.24024 0,0 -0.23975,0 -0.23975,0 0,0 -0.47998,-0.23925 -0.47998,-0.23925 0,0 -0.23975,-0.24024 -0.23975,-0.24024 0,0 0,-0.7207 0,-0.7207 0,0 0,-0.23926 0,-0.23926 0,0 0.71973,-1.2002 0.71973,-1.2002 0,0 0.47998,-0.71972 0.47998,-0.71972 0,0 0,-0.24024 0,-0.24024 0,0 0.71973,-0.24023 0.71973,-0.24023 0,0 0.23974,0.24023 0.23974,0.24023 0,0 0.24024,0 0.24024,0 0,0 0.95996,-0.48046 0.95996,-0.48046 0,0 0.47949,-0.71973 0.47949,-0.71973 0,0 0.96045,-0.7207 0.96045,-0.7207 0,0 0,-0.23926 0,-0.23926 0,0 0.23975,-0.24024 0.23975,-0.24024 0,0 0,-0.24023 0,-0.24023 0,0 0.47998,-0.24024 0.47998,-0.24024 0,0 0.47998,-0.47949 0.47998,-0.47949 0,0 0.23974,-0.48047 0.23974,-0.48047 0,0 0.23975,0 0.23975,0 0,0 0.24023,-0.24023 0.24023,-0.24023 0,0 0.23975,0 0.23975,0 0,0 0,-0.24024 0,-0.24024 0,0 0,-0.23925 0,-0.23925 0,0 0,-0.24024 0,-0.24024 0,0 -0.23975,-0.23926 -0.23975,-0.23926 0,0 0,-0.24023 0,-0.24023 0,0 0,-0.24023 0,-0.24023 0,0 0.23975,-0.24024 0.23975,-0.24024 0,0 0.24023,0 0.24023,0 0,0 0.23975,0 0.23975,0 0,0 0.47998,-0.24023 0.47998,-0.24023 0,0 0.23975,0 0.23975,0 0,0 0.47998,-0.47949 0.47998,-0.47949 0,0 0.24023,-0.24024 0.24023,-0.24024 0,0 0.23975,-0.24023 0.23975,-0.24023 0,0 0.23974,-0.71973 0.23974,-0.71973 0,0 0,-0.96094 0,-0.96094 0,0 0,-0.47949 0,-0.47949 0,0 -0.23974,-0.95996 -0.23974,-0.95996 0,0 0,-0.48047 0,-0.48047 0,0 0,-0.24023 0,-0.24023 0,0 0.23974,-1.67969 0.23974,-1.67969 0,0 0.24024,-0.71973 0.24024,-0.71973 0,0 0,-0.72021 0,-0.72021 0,0 0,-0.24024 0,-0.24024 0,0 0.72021,-0.47998 0.72021,-0.47998 0,0 0,-0.47998 0,-0.47998 0,0 0.71924,-0.72021 0.71924,-0.72021 0,0 0.24024,-0.47998 0.24024,-0.47998 0,0 0.47998,-0.24024 0.47998,-0.24024 0,0 0.47949,-0.23974 0.47949,-0.23974 0,0 0.47998,0 0.47998,0 0,0 0.96045,0.23974 0.96045,0.23974 0,0 0.95947,-0.47998 0.95947,-0.47998 0,0 0.95947,-0.23974 0.95947,-0.23974 0,0 0.24024,0 0.24024,0 0,0 0.47998,-0.72022 0.47998,-0.72022 0,0 0.47998,-0.72021 0.47998,-0.72021 0,0 0.23975,-0.23975 0.23975,-0.23975 0,0 0.47998,-0.24023 0.47998,-0.24023 0,0 1.1997,0.24023 1.1997,0.24023 0,0 0.95996,-0.24023 0.95996,-0.24023 0,0 0.47998,-0.24024 0.47998,-0.24024 0,0 0.71973,-0.71973 0.71973,-0.71973 0,0 0.95996,-1.20019 0.95996,-1.20019 0,0 0,-0.24024 0,-0.24024 0,0 0.23975,0 0.23975,0 0,0 0,-0.23974 0,-0.23974 0,0 0.72021,-0.72022 0.72021,-0.72022 0,0 0.4795,-0.24023 0.4795,-0.24023 0,0 0.95996,-0.23975 0.95996,-0.23975 0,0 0.71972,0.23975 0.71972,0.23975 0,0 1.2002,-0.47998 1.2002,-0.47998 0,0 0.95947,-0.47998 0.95947,-0.47998 0,0 0.24023,-0.47998 0.24023,-0.47998 0,0 1.19971,-0.24024 1.19971,-0.24024 0,0 0,-0.23974 0,-0.23974 0,0 0.23975,0 0.23975,0 0,0 0.24023,-0.72022 0.24023,-0.72022 0,0 -0.24023,-0.72021 -0.24023,-0.72021 0,0 0.24023,-0.23975 0.24023,-0.23975 0,0 0,-0.24023 0,-0.24023 0,0 0.71973,-0.23975 0.71973,-0.23975 0,0 0.47998,-0.24023 0.47998,-0.24023 0,0 0.23975,-0.47998 0.23975,-0.47998 0,0 1.67968,-1.68018 1.67968,-1.68018 0,0 1.2002,-0.95996 1.2002,-0.95996 0,0 0,-0.24023 0,-0.24023 0,0 0.23974,0 0.23974,0 0,0 0,-0.47998 0,-0.47998 0,0 0.23975,0 0.23975,0 0,0 0.24023,-0.23975 0.24023,-0.23975 0,0 0.23975,0 0.23975,0 0,0 0,-0.24024 0,-0.24024 0,0 0.24024,0 0.24024,0 0,0 0,-0.24023 0,-0.24023 0,0 0.23974,-0.23975 0.23974,-0.23975 0,0 0,-0.24023 0,-0.24023 0,0 0.24024,0 0.24024,0 0,0 0.23974,0 0.23974,0 0,0 0.23975,0 0.23975,0 0,0 0.72021,-0.23975 0.72021,-0.23975 0,0 0.23975,0 0.23975,0 0,0 0.47998,0 0.47998,0 0,0 0.23975,0 0.23975,0 0,0 0,-0.24023 0,-0.24023 0,0 0.24023,-0.47998 0.24023,-0.47998 0,0 -0.24023,-0.24024 -0.24023,-0.24024 0,0 0,-0.47998 0,-0.47998 0,0 0,-0.47998 0,-0.47998 0,0 0,-0.23974 0,-0.23974 0,0 -0.23975,-0.96045 -0.23975,-0.96045 0,0 0,-0.72022 0,-0.72022 0,0 0,-0.71972 0,-0.71972 0,0 0,-0.24024 0,-0.24024 0,0 -0.23975,-0.23974 -0.23975,-0.23974 0,0 -1.43994,-1.2002 -1.43994,-1.2002 0,0 -0.47998,-1.44043 -0.47998,-1.44043 0,0 -0.47998,-0.95996 -0.47998,-0.95996 0,0 -0.23975,-0.72021 -0.23975,-0.72021 0,0 -0.47998,-0.47998 -0.47998,-0.47998 0,0 -0.23974,-0.23975 -0.23974,-0.23975 0,0 -0.47998,-0.24024 -0.47998,-0.24024 0,0 -0.47998,-0.23974 -0.47998,-0.23974 0,0 -0.71973,-0.72022 -0.71973,-0.72022 0,0 -1.20019,0 -1.20019,0 0,0 -1.19971,-0.47998 -1.19971,-0.47998 0,0 -0.23975,-0.24023 -0.23975,-0.24023 0,0 -0.47998,-0.95996 -0.47998,-0.95996 0,0 -0.95996,-0.95996 -0.95996,-0.95996 0,0 -0.23975,-0.24024 -0.23975,-0.24024 0,0 -0.47998,-0.24023 -0.47998,-0.24023 0,0 -0.95996,-1.19971 -0.95996,-1.19971 0,0 -0.23974,-0.24023 -0.23974,-0.24023 0,0 -1.19971,0 -1.19971,0 0,0 -0.72021,-0.24024 -0.72021,-0.24024 0,0 0,-0.23974 0,-0.23974 0,0 -0.23975,-0.24024 -0.23975,-0.24024 0,0 0,-0.23974 0,-0.23974 0,0 -0.24023,-0.72022 -0.24023,-0.72022 0,0 0,-0.47998 0,-0.47998 0,0 -0.4795,-0.47998 -0.4795,-0.47998 0,0 -0.24023,0 -0.24023,0 0,0 -0.95996,-0.72021 -0.95996,-0.72021 0,0 -0.23975,0 -0.23975,0 0,0 -0.23974,-0.24024 -0.23974,-0.24024 0,0 0,-0.23975 0,-0.23975 0,0 -0.24024,0 -0.24024,0 0,0 -0.47998,0 -0.47998,0 0,0 0,-0.24023 0,-0.24023 0,0 -0.47998,-0.71973 -0.47998,-0.71973 0,0 0,-0.24023 0,-0.24023 0,0 -0.23975,0 -0.23975,0 0,0 0,-0.23975 0,-0.23975 0,0 -0.23974,0 -0.23974,0 0,0 0,-0.24023 0,-0.24023 0,0 -0.24024,0 -0.24024,0 0,0 -0.23974,0 -0.23974,0 0,0 -0.47998,0 -0.47998,0 0,0 -0.71973,0.24023 -0.71973,0.24023 0,0 -0.72021,0.23975 -0.72021,0.23975 0,0 -0.95948,0 -0.95948,0 0,0 -0.24023,-0.23975 -0.24023,-0.23975 0,0 -0.24024,-0.24023 -0.24024,-0.24023 0,0 -0.71923,-0.72022 -0.71923,-0.72022 0,0 0,-0.23974 0,-0.23974 0,0 0,-0.24024 0,-0.24024 0,0 0.47998,-0.95996 0.47998,-0.95996 0,0 0,-0.47998 0,-0.47998 0,0 0,-0.24023 0,-0.24023 0,0 0,-1.2002 0,-1.2002 0,0 0,-0.72021 0,-0.72021 0,0 0.23925,-0.47998 0.23925,-0.47998 0,0 0,-0.47998 0,-0.47998 0,0 0.24024,-0.47998 0.24024,-0.47998 0,0 0,-0.95996 0,-0.95996 0,0 -0.24024,-1.2002 -0.24024,-1.2002 0,0 0,-0.24023 0,-0.24023 0,0 -0.71923,-1.43995 -0.71923,-1.43995 0,0 -1.43995,-2.88037 -1.43995,-2.88037 0,0 -1.43945,-1.43994 -1.43945,-1.43994 0,0 -0.48047,-1.20019 -0.48047,-1.20019 0,0 0,-0.47998 0,-0.47998 0,0 -0.23974,0 -0.23974,0 0,0 0.23974,-0.24024 0.23974,-0.24024 0,0 0.24024,-0.23974 0.24024,-0.23974 0,0 0.24023,0 0.24023,0 0,0 0,-0.96045 0,-0.96045 0,0 -0.48047,-0.47998 -0.48047,-0.47998 0,0 -0.95996,-0.72022 -0.95996,-0.72022 0,0 0,-0.95996 0,-0.95996 0,0 0,-0.23975 0,-0.23975 0,0 0,-0.72021 0,-0.72021 0,0 0,-0.47998 0,-0.47998 0,0 -0.23926,-0.47998 -0.23926,-0.47998 0,0 -0.48046,-0.47998 -0.48046,-0.47998 0,0 -0.23975,-0.24024 -0.23975,-0.24024 0,0 0,-0.47998 0,-0.47998 0,0 0,-0.24023 0,-0.24023 0,0 0,-0.47998 0,-0.47998 0,0 0,-0.24024 0,-0.24024 0,0 0,-0.23974 0,-0.23974 0,0 -0.24024,-0.24024 -0.24024,-0.24024 0,0 0,-0.23974 0,-0.23974 0,0 0,-0.24024 0,-0.24024 0,0 -0.23974,-0.23974 -0.23974,-0.23974 0,0 -0.47998,-0.96045 -0.47998,-0.96045 0,0 -0.23975,-0.47998 -0.23975,-0.47998 0,0 -0.24023,-1.2002 -0.24023,-1.2002 0,0 0,-0.71972 0,-0.71972 0,0 0,-0.24024 0,-0.24024 0,0 0,-0.23975 0,-0.23975 0,0 -0.23975,0 -0.23975,0 0,0 0,-0.24023 0,-0.24023 0,0 -0.23974,0 -0.23974,0 0,0 -0.24024,0 -0.24024,0 0,0 -0.47998,-0.24023 -0.47998,-0.24023 0,0 -0.23975,-0.23975 -0.23975,-0.23975 0,0 -0.47998,-0.72022 -0.47998,-0.72022 0,0 -0.47998,-0.24023 -0.47998,-0.24023 0,0 -0.71972,-0.47998 -0.71972,-0.47998 0,0 -0.47998,-0.23975 -0.47998,-0.23975 0,0 -0.72022,-0.47998 -0.72022,-0.47998 0,0 -0.23974,-0.47998 -0.23974,-0.47998 0,0 -0.23975,-0.24023 -0.23975,-0.24023 0,0 -0.23975,-0.24024 -0.23975,-0.24024 0,0 -0.24023,-0.47998 -0.24023,-0.47998 0,0 -0.95996,-0.71972 -0.95996,-0.71972 0,0 -0.71973,-0.48047 -0.71973,-0.48047 0,0 -0.47998,-0.71973 -0.47998,-0.71973 0,0 -0.47998,-0.72021 -0.47998,-0.72021 0,0 -0.23975,-0.47998 -0.23975,-0.47998 0,0 -0.23974,-0.47998 -0.23974,-0.47998 0,0 0,-0.24024 0,-0.24024 0,0 -0.48047,-0.95996 -0.48047,-0.95996 0,0 0,-0.24023 0,-0.24023 0,0 -0.23975,-1.2002 -0.23975,-1.2002 0,0 -0.24023,0 -0.24023,0 0,0 0,-0.95996 0,-0.95996 0,0 -0.47949,-0.95996 -0.47949,-0.95996 0,0 0,-0.24024 0,-0.24024 0,0 -0.47998,-0.95996 -0.47998,-0.95996 0,0 -0.47998,-0.72021 -0.47998,-0.72021 0,0 -0.47998,-0.47998 -0.47998,-0.47998 0,0 -0.23975,-0.23975 -0.23975,-0.23975 0,0 -0.24023,0 -0.24023,0 0,0 0,-0.24023 0,-0.24023 0,0 -0.95948,-0.47998 -0.95948,-0.47998 0,0 -0.24023,-0.24024 -0.24023,-0.24024 0,0 -0.23975,0 -0.23975,0 0,0 -0.24023,-0.47998 -0.24023,-0.47998 0,0 -0.23975,0 -0.23975,0 0,0 0,-0.23974 0,-0.23974 0,0 -0.47998,-0.48047 -0.47998,-0.48047 0,0 -0.23975,-0.47998 -0.23975,-0.47998 0,0 0,-0.23975 0,-0.23975 0,0 0,-0.24023 0,-0.24023 0,0 -0.24023,-1.2002 -0.24023,-1.2002 0,0 0,-0.23974 0,-0.23974 0,0 0.24023,-0.72022 0.24023,-0.72022 0,0 0.23975,-0.72021 0.23975,-0.72021 0,0 0.24024,-0.47998 0.24024,-0.47998 0,0 0,-0.47998 0,-0.47998 0,0 -0.24024,-0.72022 -0.24024,-0.72022 0,0 0,-0.47998 0,-0.47998 0,0 0,-0.23975 0,-0.23975 0,0 0,-0.24023 0,-0.24023 0,0 0,-0.24024 0,-0.24024 0,0 0,-0.23974 0,-0.23974 0,0 0.24024,-0.95996 0.24024,-0.95996 0,0 0,-0.47998 0,-0.47998 0,0 0,-0.72022 0,-0.72022 0,0 -0.24024,-0.96045 -0.24024,-0.96045 0,0 0,-0.47998 0,-0.47998 0,0 0,-0.23974 0,-0.23974 0,0 0,-0.47998 0,-0.47998 0,0 0.47998,-1.2002 0.47998,-1.2002 0,0 0,-0.47998 0,-0.47998 0,0 0,-0.72021 0,-0.72021 0,0 0,-0.24024 0,-0.24024 0,0 -0.23974,-0.95996 -0.23974,-0.95996 0,0 0,-0.47998 0,-0.47998 0,0 0,-0.24023 0,-0.24023 0,0 0,-0.71973 0,-0.71973 0,0 0,-0.96045 0,-0.96045 0,0 0.23974,-0.95996 0.23974,-0.95996 0,0 0.47998,-1.2002 0.47998,-1.2002 0,0 0.71973,-0.71972 0.71973,-0.71972 0,0 0.23974,-0.24024 0.23974,-0.24024 0,0 0.95997,-0.47998 0.95997,-0.47998 0,0 0.23974,-0.72021 0.23974,-0.72021 0,0 0,-0.23975 0,-0.23975 0,0 0,-0.24023 0,-0.24023 0,0 0,-0.47998 0,-0.47998 0,0 -0.23974,0 -0.23974,0 0,0 0,-0.24024 0,-0.24024 0,0 -0.23975,-0.23974 -0.23975,-0.23974 0,0 -0.24023,-0.47998 -0.24023,-0.47998 0,0 -0.23975,0 -0.23975,0 0,0 -0.24024,-0.24024 -0.24024,-0.24024 0,0 -0.47949,-0.47998 -0.47949,-0.47998 0,0 -0.95996,-0.47998 -0.95996,-0.47998 0,0 -0.23974,0 -0.23974,0 0,0 -0.47999,-0.47998 -0.47999,-0.47998 0,0 -0.24023,0 -0.24023,0 0,0 -0.23975,-0.48047 -0.23975,-0.48047 0,0 0.23975,-0.47998 0.23975,-0.47998 0,0 0.24023,-0.23975 0.24023,-0.23975 0,0 0.23975,-0.24023 0.23975,-0.24023 0,0 0.47998,-0.47998 0.47998,-0.47998 0,0 0.23975,-0.23975 0.23975,-0.23975 0,0 0.24023,0 0.24023,0 0,0 0,-0.24023 0,-0.24023 0,0 0.23975,0 0.23975,0 0,0 0.24023,0 0.24023,0 0,0 0.23975,-0.24024 0.23975,-0.24024 0,0 0.23974,0 0.23974,0 0,0 0.47999,0 0.47999,0 0,0 0.71972,0 0.71972,0 0,0 0.47998,0.24024 0.47998,0.24024 0,0 0.95996,-0.47998 0.95996,-0.47998 0,0 0.71973,-0.24024 0.71973,-0.24024 0,0 0.24023,-0.23974 0.24023,-0.23974 0,0 0.47998,-0.96045 0.47998,-0.96045 0,0 0.4795,-2.64014 0.4795,-2.64014 0,0 0,-0.72021 0,-0.72021 0,0 0,-0.23975 0,-0.23975 0,0 0,-1.44043 0,-1.44043 0,0 0,-0.23974 0,-0.23974 0,0 0,-0.72022 0,-0.72022 0,0 -0.23975,-0.72021 -0.23975,-0.72021 0,0 -0.23975,-0.71973 -0.23975,-0.71973 0,0 -0.47998,-0.47998 -0.47998,-0.47998 0,0 -0.24023,-2.16065 -0.24023,-2.16065 0,0 0.24023,-0.95996 0.24023,-0.95996 0,0 -0.47998,-2.64013 -0.47998,-2.64013 0,0 -0.71972,-3.84034 -0.71972,-3.84034 0,0 0,-1.68017 0,-1.68017 0,0 0.23974,-1.2002 0.23974,-1.2002 0,0 -0.71972,-3.12011 -0.71972,-3.12011 0,0 -0.47998,-1.92041 -0.47998,-1.92041 0,0 -0.71973,-2.40039 -0.71973,-2.40039 0,0 -0.72022,-1.91993 -0.72022,-1.91993 0,0 -2.15918,-2.16064 -2.15918,-2.16064 0,0 0,-0.23975 0,-0.23975 0,0 0,-0.24023 0,-0.24023 0,0 -0.72021,-1.19971 -0.72021,-1.19971 0,0 0,-0.24023 0,-0.24023 0,0 -0.23975,-0.47998 -0.23975,-0.47998 0,0 0,-0.47998 0,-0.47998 0,0 -0.23974,-1.2002 -0.23974,-1.2002 0,0 0,-0.24023 0,-0.24023 0,0 -0.47998,-1.68018 -0.47998,-1.68018 0,0 -0.48047,-0.71973 -0.48047,-0.71973 0,0 0,-0.96045 0,-0.96045 0,0 0,-0.23974 0,-0.23974 0,0 0,-0.24024 0,-0.24024 0,0 0.24023,-1.20019 0.24023,-1.20019 0,0 0.24024,-0.47998 0.24024,-0.47998 0,0 0.47998,-0.47998 0.47998,-0.47998 0,0 0.47949,-0.23975 0.47949,-0.23975 0,0 0.47998,-0.72021 0.47998,-0.72021 0,0 0.24023,-0.24024 0.24023,-0.24024 0,0 0,-0.23974 0,-0.23974 0,0 -0.24023,-0.48047 -0.24023,-0.48047 0,0 -0.23975,-0.71973 -0.23975,-0.71973 0,0 0,-1.92041 0,-1.92041 0,0 -0.24023,-1.43994 -0.24023,-1.43994 0,0 0,-0.24023 0,-0.24023 0,0 0.47998,-0.95997 0.47998,-0.95997 0,0 0.47998,-0.95996 0.47998,-0.95996 0,0 0.24024,-1.44043 0.24024,-1.44043 0,0 -0.47999,-0.95996 -0.47999,-0.95996 0,0 -1.43994,-2.40039 -1.43994,-2.40039 0,0 -1.1997,-1.20019 -1.1997,-1.20019 0,0 0,-0.95996 0,-0.95996 0,0 0,-0.47998 0,-0.47998 0,0 0.24023,-0.47998 0.24023,-0.47998 0,0 0.47949,-0.95997 0.47949,-0.95997 0,0 0.24024,-0.72021 0.24024,-0.72021 0,0 0,-0.24023 0,-0.24023 0,0 -0.24024,-0.23975 -0.24024,-0.23975 0,0 -0.95947,-0.72022 -0.95947,-0.72022 0,0 -0.72021,-0.72021 -0.72021,-0.72021 0,0 -0.24024,-0.71973 -0.24024,-0.71973 0,0 0,-0.48047 0,-0.48047 0,0 0.72022,-2.3999 0.72022,-2.3999 0,0 0.24023,-1.20019 0.24023,-1.20019 0,0 0,-1.2002 0,-1.2002 0,0 -0.47998,-1.43994 -0.47998,-1.43994 0,0 0.23975,-2.16016 0.23975,-2.16016 0,0 -0.95948,-1.92041 -0.95948,-1.92041 0,0 0.23926,-0.47998 0.23926,-0.47998 0,0 0.48047,-0.47998 0.48047,-0.47998 0,0 0.47998,-0.96045 0.47998,-0.96045 0,0 0.23975,-0.71972 0.23975,-0.71972 0,0 0,-0.24024 0,-0.24024 0,0 -0.23975,-1.20019 -0.23975,-1.20019 0,0 0,-0.47998 0,-0.47998 0,0 0.23975,-0.47998 0.23975,-0.47998 0,0 0,-0.24024 0,-0.24024 0,0 0.47949,-0.23974 0.47949,-0.23974 0,0 0.96045,-0.72022 0.96045,-0.72022 0,0 0.23974,-0.47998 0.23974,-0.47998 0,0 0,-0.24023 0,-0.24023 0,0 0,-0.47998 0,-0.47998 0,0 0,-0.47999 0,-0.47999 0,0 -0.23974,-0.72021 -0.23974,-0.72021 0,0 -0.72022,-0.71973 -0.72022,-0.71973 0,0 -0.95947,-0.96045 -0.95947,-0.96045 0,0 -0.72021,-1.1997 -0.72021,-1.1997 0,0 0.24023,-0.96045 0.24023,-0.96045 0,0 0,-0.71973 0,-0.71973 0,0 -0.71973,-0.72021 -0.71973,-0.72021 0,0 -1.20019,-0.95996 -1.20019,-0.95996 0,0 -0.24024,-0.24024 -0.24024,-0.24024 0,0 0.24024,-0.47998 0.24024,-0.47998 0,0 0.23974,-0.72021 0.23974,-0.72021 0,0 -0.23974,-0.71973 -0.23974,-0.71973 0,0 -0.24024,-0.72022 -0.24024,-0.72022 0,0 -0.71972,-0.72021 -0.71972,-0.72021 0,0 -0.23975,-1.2002 -0.23975,-1.2002 0,0 0.23975,-2.16015 0.23975,-2.16015 0,0 0,-0.47998 0,-0.47998 0,0 0.24023,-0.24024 0.24023,-0.24024 0,0 0,-0.23974 0,-0.23974 0,0 0.24024,-0.24024 0.24024,-0.24024 0,0 0.47949,-0.47998 0.47949,-0.47998 0,0 0.23974,-0.72021 0.23974,-0.72021 0,0 0,-0.47998 0,-0.47998 0,0 -0.47998,-0.47998 -0.47998,-0.47998 0,0 -0.23925,-0.24024 -0.23925,-0.24024 0,0 -0.24024,0 -0.24024,0 0,0 0,-0.23974 0,-0.23974 0,0 0,-0.24024 0,-0.24024 0,0 0,-0.71972 0,-0.71972 0,0 0.47949,-0.47999 0.47949,-0.47999 0,0 0,-0.48046 0,-0.48046 0,0 0,-0.23975 0,-0.23975 0,0 -0.47949,-1.2002 -0.47949,-1.2002 0,0 -0.47998,-0.24023 -0.47998,-0.24023 0,0 -0.24023,-0.47998 -0.24023,-0.47998 0,0 -0.23975,-0.23975 -0.23975,-0.23975 0,0 -0.24023,-0.24023 -0.24023,-0.24023 0,0 0,-0.47998 0,-0.47998 0,0 0.24023,-0.47998 0.24023,-0.47998 0,0 0.71973,-0.72022 0.71973,-0.72022 0,0 0.95996,-0.72021 0.95996,-0.72021 0,0 1.67969,-0.23975 1.67969,-0.23975 0,0 0.47998,0 0.47998,0 0,0 0.72021,-0.24023 0.72021,-0.24023 0,0 1.19971,-0.23975 1.19971,-0.23975 0,0 1.43945,-0.24023 1.43945,-0.24023 0,0 0.24024,-0.23975 0.24024,-0.23975 0,0 0.47949,0 0.47949,0 0,0 0.24023,-0.24023 0.24023,-0.24023 0,0 0.23975,-0.47998 0.23975,-0.47998 0,0 0.95996,-0.72022 0.95996,-0.72022 0,0 1.67969,-1.20019 1.67969,-1.20019 0,0 0.23974,0 0.23974,0 0,0 0.47998,1.20019 0.47998,1.20019 0,0 0.47998,0.24024 0.47998,0.24024 0,0 0.72022,-0.48047 0.72022,-0.48047 0,0 1.19922,-0.95996 1.19922,-0.95996 0,0 1.68017,-0.71973 1.68017,-0.71973 0,0 0.47998,-0.24023 0.47998,-0.24023 0,0 0.95948,0 0.95948,0 0,0 0.47998,0 0.47998,0 0,0 0.95996,0 0.95996,0 0,0 0.47998,0 0.47998,0 0,0 2.15918,0.24023 2.15918,0.24023 0,0 0.24023,0 0.24023,0 0,0 0.47998,0.23975 0.47998,0.23975 0,0 0.23975,0.47998 0.23975,0.47998 0,0 0,0.24023 0,0.24023 0,0 0,0.24024 0,0.24024 0,0 -0.23975,0.23974 -0.23975,0.23974 0,0 0,0.47998 0,0.47998 0,0 0,0.24024 0,0.24024 0,0 0.23975,0.23974 0.23975,0.23974 0,0 0.23974,0 0.23974,0 0,0 0.24024,0.24024 0.24024,0.24024 0,0 0.23975,0 0.23975,0 0,0 0.71972,-0.24024 0.71972,-0.24024 0,0 1.44043,-0.95996 1.44043,-0.95996 0,0 0.71924,0 0.71924,0 0,0 0.48047,0 0.48047,0 0,0 0.47998,0.95996 0.47998,0.95996 0,0 0.23926,0.47998 0.23926,0.47998 0,0 0.24023,0 0.24023,0 0,0 1.67969,-0.95996 1.67969,-0.95996 0,0 0.95996,-1.20019 0.95996,-1.20019 0,0 0.47998,0 0.47998,0 0,0 0.47998,0 0.47998,0 0,0 2.63916,0.48047 2.63916,0.48047 0,0 0.47998,0 0.47998,0 0,0 0.71973,1.43994 0.71973,1.43994 0,0 0.24023,0.23974 0.24023,0.23974 0,0 1.91944,2.16016 1.91944,2.16016 0,0 0.47998,0.24023 0.47998,0.24023 0,0 0.24023,0.24024 0.24023,0.24024 0,0 1.91943,2.3999 1.91943,2.3999 0,0 0.24024,0.96045 0.24024,0.96045 0,0 -0.24024,0.23975 -0.24024,0.23975 0,0 -0.71972,0.47998 -0.71972,0.47998 0,0 0,0.48046 0,0.48046 0,0 0,0.47999 0,0.47999 0,0 3.11914,1.43994 3.11914,1.43994 0,0 0.72021,1.20019 0.72021,1.20019 0,0 0.23975,0.72022 0.23975,0.72022 0,0 0.47998,0.23974 0.47998,0.23974 0,0 0.95996,0.72022 0.95996,0.72022 0,0 0,0.23974 0,0.23974 0,0 0.95947,0.24024 0.95947,0.24024 0,0 0.24024,0.24023 0.24024,0.24023 0,0 0.23974,0 0.23974,0 0,0 0.24024,0 0.24024,0 0,0 1.67969,0 1.67969,0 0,0 1.91943,-0.72021 1.91943,-0.72021 0,0 1.43994,-0.72022 1.43994,-0.72022 0,0 0.95947,0 0.95947,0 0,0 0.24024,0.24024 0.24024,0.24024 0,0 0.71972,0.23974 0.71972,0.23974 0,0 0.24024,0 0.24024,0 0,0 0.23974,-0.47998 0.23974,-0.47998 0,0 0.71973,-0.95996 0.71973,-0.95996 0,0 0.24024,-0.47998 0.24024,-0.47998 0,0 0.23974,-0.47998 0.23974,-0.47998 0,0 -0.23974,-0.72021 -0.23974,-0.72021 0,0 0.23974,-0.72022 0.23974,-0.72022 0,0 0.71973,-1.43994 0.71973,-1.43994 0,0 1.20019,-2.40039 1.20019,-2.40039 0,0 0.23975,-0.23975 0.23975,-0.23975 0,0 -0.47998,-0.48047 -0.47998,-0.48047 0,0 -0.47998,-0.23974 -0.47998,-0.23974 0,0 0,-0.24024 0,-0.24024 0,0 0,-0.47998 0,-0.47998 0,0 0.24023,-0.47998 0.24023,-0.47998 0,0 0.95948,-0.47998 0.95948,-0.47998 0,0 0.72021,0 0.72021,0 0,0 0.23975,-0.24023 0.23975,-0.24023 0,0 0.95996,-2.40039 0.95996,-2.40039 0,0 1.43945,-2.64014 1.43945,-2.64014 0,0 0.72022,-1.19971 0.72022,-1.19971 0,0 0.47998,-0.96045 0.47998,-0.96045 0,0 1.43945,-0.47998 1.43945,-0.47998 0,0 0,-0.47998 0,-0.47998 0,0 0,-5.28076 0,-5.28076 0,0 0,-0.47998 0,-0.47998 0,0 0,-1.92041 0,-1.92041 0,0 0,-2.3999 0,-2.3999 0,0 0.24023,-2.88037 0.24023,-2.88037 0,0 0,-0.95996 0,-0.95996 0,0 0.23975,-7.20069 0.23975,-7.20069 0,0 0,-5.76074 0,-5.76074 0,0 0,-0.47998 0,-0.47998 0,0 0,-2.16016 0,-2.16016 0,0 0,-0.72021 0,-0.72021 0,0 0,-2.88037 0,-2.88037 0,0 0.24023,-13.20117 0.24023,-13.20117 0,0 0,-0.47998 0,-0.47998 0,0 0,-3.12012 0,-3.12012 0,0 0,-0.24024 0,-0.24024 0,0 0,-2.88037 0,-2.88037 0,0 0.23975,-12.72119 0.23975,-12.72119 0,0 0,-0.24023 0,-0.24023 0,0 0,-0.72022 0,-0.72022 0,0 0,-1.20019 0,-1.20019 0,0 0.23975,-2.64014 0.23975,-2.64014 0,0 0.24023,-12.48144 0.24023,-12.48144 0,0 0,-4.8003 0,-4.8003 0,0 7.43848,0.24024 7.43848,0.24024 0,0 4.31933,0 4.31933,0 0,0 18.71631,0.47998 18.71631,0.47998 0,0 7.19873,0 7.19873,0 0,0 1.67969,0.23974 1.67969,0.23974 0,0 2.63965,0 2.63965,0 0,0 6.71875,0 6.71875,0 0,0 3.11963,0 3.11963,0 0,0 1.1997,0.24024 1.1997,0.24024 0,0 3.59912,0 3.59912,0 0,0 8.63868,0 8.63868,0 0,0 2.87939,0 2.87939,0 0,0 13.4375,0.23974 13.4375,0.23974 0,0 3.59912,0 3.59912,0 0,0 5.51905,0.24024 5.51905,0.24024 0,0 0.72021,0 0.72021,0 0,0 3.83936,0 3.83936,0 0,0 0.95947,0 0.95947,0 0,0 2.3999,0 2.3999,0 0,0 2.39941,0 2.39941,0 0,0 3.35938,0 3.35938,0 0,0 2.87939,0 2.87939,0 0,0 9.11817,0.24023 9.11817,0.24023 0,0 10.07812,0 10.07812,0 0,0 4.31934,0 4.31934,0 0,0 1.19971,0 1.19971,0 0,0 0.24023,0 0.24023,0 0,0 0.23975,0 0.23975,0 0,0 0.47998,0 0.47998,0 0,0 0.47998,0 0.47998,0 0,0 4.0791,0 4.0791,0 0,0 1.91992,0 1.91992,0 0,0 3.35938,0 3.35938,0 0,0 4.31884,0 4.31884,0 0,0 0.47998,0 0.47998,0 0,0 0.95997,0 0.95997,0 0,0 11.27783,0 11.27783,0 0,0 10.31836,0 10.31836,0 0,0 6.95849,0 6.95849,0 0,0 14.63721,0 14.63721,0 0,0 13.19727,0 13.19727,0 0,0 3.12011,0 3.12011,0 0,0 3.35938,0 3.35938,0 0,0 0.47949,0 0.47949,0 0,0 5.51953,0 5.51953,0 0,0 13.91699,0 13.91699,0 0,0 0.24024,0 0.24024,0 0,0 0.48047,0 0.48047,0 0,0 0.23925,0 0.23925,0 0,0 0.24024,0 0.24024,0 0,0 0.23926,0 0.23926,0 0,0 0.24023,0 0.24023,0 0,0 0.24024,0 0.24024,0 0,0 2.39941,0 2.39941,0 0,0 0.71973,0 0.71973,0 0,0 3.59961,0 3.59961,0 0,0 1.43945,0 1.43945,0 0,0 0.24023,0 0.24023,0 0,0 1.67969,0 1.67969,0 0,0 1.91895,0 1.91895,0 0,0 0.24121,0 0.24121,0 0,0 0.71875,0 0.71875,0 0,0 0.71972,0 0.71972,0 0,0 8.15918,0 8.15918,0 0,0 0.24024,0 0.24024,0 0,0 0.47949,0 0.47949,0 0,0 3.59961,-0.24023 3.59961,-0.24023 0,0 2.39941,0 2.39941,0 0,0 0.47949,0 0.47949,0 0,0 27.11524,-0.47998 27.11524,-0.47998 0,0 4.31934,0 4.31934,0 0,0 6.71875,-0.24024 6.71875,-0.24024 0,0 0.48046,0 0.48046,0 0,0 1.43946,0 1.43946,0 0,0 0.47949,0 0.47949,0 0,0 2.87988,0 2.87988,0 0,0 1.43946,0 1.43946,0 0,0 1.67968,0 1.67968,0 0,0 1.67969,-0.23974 1.67969,-0.23974 0,0 0.95996,0 0.95996,0 0,0 0.47949,0 0.47949,0 0,0 0.24024,0.23974 0.24024,0.23974 0,0 1.91992,0.47998 1.91992,0.47998 0,0 0.24023,0 0.24023,0 0,0 2.63868,0 2.63868,0 0,0 1.44043,0 1.44043,0 0,0 1.67871,0 1.67871,0 0,0 1.67968,-0.23974 1.67968,-0.23974 0,0 3.12012,0 3.12012,0 0,0 1.44043,0 1.44043,0 0,0 1.67969,0 1.67969,0 0,0 3.11816,0 3.11816,0 0,0 8.63965,-0.24024 8.63965,-0.24024 0,0 1.19922,0 1.19922,0 0,0 1.43945,0 1.43945,0 0,0 3.11914,-0.23974 3.11914,-0.23974 0,0 1.44043,0 1.44043,0 0,0 1.67969,0 1.67969,0 0,0 1.19922,0 1.19922,0 0,0 0.24023,0 0.24023,0 0,0 0.24024,0 0.24024,0 0,0 3.11914,0 3.11914,0 0,0 1.67969,0 1.67969,0 0,0 5.99902,-0.24024 5.99902,-0.24024 0,0 3.83887,0 3.83887,0 0,0 1.20019,0 1.20019,0 0,0 8.15821,-0.23974 8.15821,-0.23974 0,0 0.47949,0 0.47949,0 0,0 5.99902,-0.24024 5.99902,-0.24024 0,0 0.96094,0 0.96094,0 0,0 6.47851,0 6.47851,0 0,0 0.95996,0 0.95996,0 0,0 0.4795,0 0.4795,0 0,0 9.83789,-0.47998 9.83789,-0.47998 0,0 2.16015,0 2.16015,0 0,0 7.67774,-0.23974 7.67774,-0.23974 0,0 0.24121,0 0.24121,0 0,0 0.23926,0 0.23926,0 0,0 1.43945,0 1.43945,0 0,0 0.48047,0 0.48047,0 0,0 1.43945,0 1.43945,0 0,0 1.67969,-0.24024 1.67969,-0.24024 0,0 4.55957,0 4.55957,0 0,0 0.47949,0 0.47949,0 0,0 1.43946,0 1.43946,0 0,0 1.20019,0 1.20019,0 0,0 4.55957,-0.23974 4.55957,-0.23974 0,0 11.99805,-0.24024 11.99805,-0.24024 0,0 0,3.12012 0,3.12012 0,0 0,1.20019 0,1.20019 0,0 0.23926,6.72071 0.23926,6.72071 0,0 0,2.40039 0,2.40039 0,0 0,0.47998 0,0.47998 0,0 0,0.47998 0,0.47998 0,0 0.24023,0.96045 0.24023,0.96045 0,0 0,4.08008 0,4.08008 0,0 0.23926,5.04052 0.23926,5.04052 0,0 0,0.47998 0,0.47998 0,0 0.24023,7.44092 0.24023,7.44092 0,0 0,2.3999 0,2.3999 0,0 0.24024,7.20069 0.24024,7.20069 0,0 0.24023,9.60107 0.24023,9.60107 0,0 0,2.88037 0,2.88037 0,0 0.24024,2.88037 0.24024,2.88037 0,0 0,5.52051 0,5.52051 0,0 0.23925,4.80078 0.23925,4.80078 0,0 0,2.87989 0,2.87989 0,0 0.24024,4.08056 0.24024,4.08056 0,0 0,3.84033 0,3.84033 0,0 0.23926,2.40039 0.23926,2.40039 0,0 0.24023,8.40088 0.24023,8.40088 0,0 0,3.12012 0,3.12012 0,0 0,1.44043 0,1.44043 0,0 0.24023,2.64014 0.24023,2.64014 0,0 0.23926,12.48144 0.23926,12.48144 0,0 0,3.12012 0,3.12012 0,0 0.24121,5.28076 0.24121,5.28076 0,0 0,1.68018 0,1.68018 0,0 0,1.91992 0,1.91992 0,0 0.23926,0.47998 0.23926,0.47998 0,0 0,0.24023 0,0.24023 0,0 0,0.72022 0,0.72022 0,0 0,5.28027 0,5.28027 0,0 0,0.24024 0,0.24024 0,0 0,0.71972 0,0.71972 0,0 0.24023,1.68018 0.24023,1.68018 0,0 0,3.36035 0,3.36035 0,0 0,2.16064 0,2.16064 0,0 0.23926,3.36036 0.23926,3.36036 0,0 0,1.91992 0,1.91992 0,0 0,1.43994 0,1.43994 0,0 0,3.60059 0,3.60059 0,0 0,0.23974 0,0.23974 0,0 0.24024,2.16065 0.24024,2.16065 0,0 0,2.64013 0,2.64013 0,0 0,0.24024 0,0.24024 0,0 0,0.47998 0,0.47998 0,0 0,0.95996 0,0.95996 0,0 0,0.47998 0,0.47998 0,0 0,1.68018 0,1.68018 0,0 0.24023,1.43994 0.24023,1.43994 0,0 0,0.96045 0,0.96045 0,0 0,0.72021 0,0.72021 0,0 0,0.71973 0,0.71973 0,0 0,0.95996 0,0.95996 0,0 0,0.24023 0,0.24023 0,0 0,2.88037 0,2.88037 0,0 0.24024,1.68018 0.24024,1.68018 0,0 0,1.43994 0,1.43994 0,0 0,1.68018 0,1.68018 0,0 0,1.44043 0,1.44043 0,0 0,1.43994 0,1.43994 0,0 0,1.43994 0,1.43994 0,0 0,0.24023 0,0.24023 0,0 0.24023,1.68018 0.24023,1.68018 0,0 0,0.95996 0,0.95996 0,0 0,2.16064 0,2.16064 0,0 0,0.47999 0,0.47999 0,0 0,0.71972 0,0.71972 0,0 0,0.47998 0,0.47998 0,0 0,0.24024 0,0.24024 0,0 0.23926,2.40039 0.23926,2.40039 0,0 0,0.23974 0,0.23974 0,0 0,0.72022 0,0.72022 0,0 0,0.47998 0,0.47998 0,0 0,0.96045 0,0.96045 0,0 0,1.1997 0,1.1997 0,0 0,1.68018 0,1.68018 0,0 0.24023,1.44043 0.24023,1.44043 0,0 0,1.68018 0,1.68018 0,0 0,1.43994 0,1.43994 0,0 0,1.68017 0,1.68017 0,0 0,1.68018 0,1.68018 0,0 0,0.47998 0,0.47998 0,0 0.24024,0.96045 0.24024,0.96045 0,0 0,1.67969 0,1.67969 0,0 0,1.68066 0,1.68066 0,0 0,0.95996 0,0.95996 0,0 0.47949,16.08154 0.47949,16.08154 0,0 0.24023,6.48047 0.24023,6.48047 0,0 0.23926,6.00098 0.23926,6.00098 0,0 0,3.84033 0,3.84033 0,0 0,1.2002 0,1.2002 0,0 0.24024,3.36035 0.24024,3.36035 0,0 0,1.43994 0,1.43994 0,0 0,1.68018 0,1.68018 0,0 0,1.68017 0,1.68017 0,0 0,1.43994 0,1.43994 0,0 0.71972,20.88233 0.71972,20.88233 0,0 0,6.24072 0,6.24072 0,0 0.24024,4.80029 0.24024,4.80029 0,0 0.95996,34.0835 0.95996,34.0835 0,0 0.23926,13.4414 0.23926,13.4414 0,0 0.24023,4.80079 0.24023,4.80079 0,0 0.24023,5.04004 0.24023,5.04004 0,0 0.24024,8.6416 0.24024,8.6416 0,0 0.23926,10.56054 0.23926,10.56054 0,0 0,0.24024 0,0.24024 0,0 0,4.08008 0,4.08008 0,0 0.24023,6.7207 0.24023,6.7207 0,0 0,0.48047 0,0.48047 0,0 0.24023,5.28027 0.24023,5.28027 0,0 0,0.95996 0,0.95996 0,0 0,4.32031 0,4.32031 0,0 0,1.44043 0,1.44043 0,0 0.4795,10.80079 0.4795,10.80079 0,0 0,0.48046 0,0.48046 0,0 0,0.71973 0,0.71973 0,0 0,0.48047 0,0.48047 0,0 0,0.95996 0,0.95996 0,0 0,3.36035 0,3.36035 0,0 0.24023,3.83985 0.24023,3.83985 0,0 0,0.24023 0,0.24023 0,0 0,0.48047 0,0.48047 0,0 0,0.24023 0,0.24023 0,0 0,0.23926 0,0.23926 0,0 0.24024,12.48145 0.24024,12.48145 0,0 0.24023,4.56054 0.24023,4.56054 0,0 0.23926,7.68067 0.23926,7.68067 0,0 0,3.36035 0,3.36035 0,0 0,1.68066 0,1.68066 0,0 0,2.39942 0,2.39942 0,0 0,0.24121 0,0.24121 0,0 0.71972,18.48144 0.71972,18.48144 0,0 0.24024,7.68067 0.24024,7.68067 0,0 0,5.52051 0,5.52051 0,0 0,1.20019 0,1.20019 0,0 0.24023,8.16113 0.24023,8.16113 0,0 0,0.23926 0,0.23926 0,0 0,0.48047 0,0.48047 0,0 0,0.47949 0,0.47949 0,0 0.24024,3.84082 0.24024,3.84082 0,0 0.47949,24.00293 0.47949,24.00293 0,0 0.95996,30.72266 0.95996,30.72266 0,0 0,6.24023 0,6.24023 0,0 0,0.48047 0,0.48047 0,0 0,1.44043 0,1.44043 0,0 0.24024,4.79981 0.24024,4.79981 0,0 0,1.44043 0,1.44043 0,0 0.23925,10.32128 0.23925,10.32128 0,0 0.24024,5.28028 0.24024,5.28028 0,0 0,1.20019 0,1.20019 0,0 0,1.9209 0,1.9209 0,0 0,3.59961 0,3.59961 0,0 0,1.44043 0,1.44043 0,0 0.47949,17.52149 0.47949,17.52149 0,0 0.47949,14.88183 0.47949,14.88183 0,0 0,0.23926 0,0.23926 0,0 0,1.9209 0,1.9209 0,0 0.48047,16.32129 0.48047,16.32129 0,0 -21.5957,0.24023 -21.5957,0.24023 0,0 -1.91992,0 -1.91992,0 0,0 -2.16016,0.24024 -2.16016,0.24024 0,0 -16.07715,0.24023 -16.07715,0.24023 0,0 -0.95898,0 -0.95898,0 0,0 -0.72071,0 -0.72071,0 0,0 -1.43945,0 -1.43945,0 0,0 -0.24023,0 -0.24023,0 0,0 -0.71875,0.24023 -0.71875,0.24023 0,0 -0.24024,0 -0.24024,0 0,0 -0.47949,0 -0.47949,0 0,0 -0.48047,0 -0.48047,0 0,0 -0.95996,0 -0.95996,0 0,0 -0.24023,0 -0.24023,0 0,0 -0.24024,0 -0.24024,0 0,0 -0.23926,0 -0.23926,0 0,0 -0.95996,0 -0.95996,0 0,0 -3.59961,0 -3.59961,0 0,0 -16.55664,0.4795 -16.55664,0.4795 0,0 -3.35937,0 -3.35937,0 0,0 -3.59961,0 -3.59961,0 0,0 -4.55957,0.24023 -4.55957,0.24023 0,0 -3.83887,0 -3.83887,0 0,0 -4.0791,0 -4.0791,0 0,0 -0.23926,0 -0.23926,0 0,0 -12.47851,0.24024 -12.47851,0.24024 0,0 -0.4795,0 -0.4795,0 0,0 -5.99902,0 -5.99902,0 0,0 -23.99512,0.47949 -23.99512,0.47949 0,0 -15.11719,0.24023 -15.11719,0.24023 0,0 -9.35839,0 -9.35839,0 0,0 -3.59961,0 -3.59961,0 0,0 -1.67969,0 -1.67969,0 0,0 -1.67969,0.23926 -1.67969,0.23926 0,0 -1.91992,0 -1.91992,0 0,0 -3.11914,0 -3.11914,0 0,0 -3.83887,0 -3.83887,0 0,0 -2.16015,0 -2.16015,0 0,0 -2.63965,0.24121 -2.63965,0.24121 0,0 -0.24024,0 -0.24024,0 0,0 -1.91894,0 -1.91894,0 0,0 -1.2002,0 -1.2002,0 0,0 -2.16015,0 -2.16015,0 0,0 -6.95801,0 -6.95801,0 0,0 -4.79981,-1.68066 -4.79981,-1.68066 0,0 -22.55566,-8.40039 -22.55566,-8.40039 0,0 -18.23633,-6.72071 -18.23633,-6.72071 0,0 -5.75879,-2.16113 -5.75879,-2.16113 0,0 -33.354,-12.24121 -33.354,-12.24121 0,0 -24.95557,-9.12109 -24.95557,-9.12109 0,0 -11.03808,-4.07911 -11.03808,-4.07911 0,0 -0.4795,-0.24121 -0.4795,-0.24121 0,0 -0.47998,0 -0.47998,0 0,0 -1.1997,-0.47949 -1.1997,-0.47949 0,0 -0.24024,-0.24023 -0.24024,-0.24023 0,0 -0.95996,-0.23926 -0.95996,-0.23926 0,0 -11.75781,-4.32129 -11.75781,-4.32129 0,0 -7.43848,-2.87988 -7.43848,-2.87988 0,0 -22.31592,-8.16114 -22.31592,-8.16114 0,0 -1.91943,-0.71972 -1.91943,-0.71972 0,0 -23.9956,-8.6416 -23.9956,-8.6416 0,0 -8.39893,-3.35938 -8.39893,-3.35938 0,0 -10.79785,-4.08105 -10.79785,-4.08105 0,0 -14.87744,-5.76075 -14.87744,-5.76075 0,0 -23.75537,-9.12109 -23.75537,-9.12109 0,0 -2.8794,-0.95898 -2.8794,-0.95898 0,0 -24.23584,-9.36133 -24.23584,-9.36133 0,0 -18.95654,-7.44141 -18.95654,-7.44141 0,0 -23.03565,-8.87988 -23.03565,-8.87988 0,0 -5.75879,-2.16113 -5.75879,-2.16113 0,0 -6.71923,-2.63965 -6.71923,-2.63965 0,0 -7.43799,-2.87989 -7.43799,-2.87989 0,0 -3.35938,-1.20117 -3.35938,-1.20117 0,0 -2.64013,-0.95996 -2.64013,-0.95996 0,0 -2.8794,-1.20019 -2.8794,-1.20019 0,0 0,-0.24024 0,-0.24024 0,0 0.24024,-0.23926 0.24024,-0.23926 0,0 -0.24024,-0.48046 -0.24024,-0.48046 0,0 0,-0.24024 0,-0.24024 0,0 0.24024,-0.24023 0.24024,-0.24023 0,0 0.23974,0 0.23974,0 0,0 0.24024,0 0.24024,0 0,0 0,-0.23926 0,-0.23926 0,0 0.23974,-0.24024 0.23974,-0.24024 0,0 0,-0.24023 0,-0.24023 0,0 0,-0.23926 0,-0.23926 0,0 -0.47998,-0.48047 -0.47998,-0.48047 0,0 -0.23974,-0.24023 -0.23974,-0.24023 0,0 0.23974,-0.47949 0.23974,-0.47949 0,0 0.24024,-0.48047 0.24024,-0.48047 0,0 0.47998,-0.47949 0.47998,-0.47949 0,0 0,-0.24024 0,-0.24024 0,0 -0.24024,-0.24023 -0.24024,-0.24023 0,0 0,-0.48047 0,-0.48047 0,0 0,-0.23926 0,-0.23926 0,0 0.24024,0 0.24024,0 0,0 0.71972,-0.24023 0.71972,-0.24023 0,0 0,-0.24024 0,-0.24024 0,0 0.23975,0 0.23975,0 0,0 0,-0.24023 0,-0.24023 0,0 0,-0.24024 0,-0.24024 0,0 0,-0.24023 0,-0.24023 0,0 0,-0.23926 0,-0.23926 0,0 -0.23975,-0.24023 -0.23975,-0.24023 0,0 -0.24023,-0.24024 -0.24023,-0.24024 0,0 -0.47949,0.24024 -0.47949,0.24024 0,0 -0.47998,0 -0.47998,0 0,0 -0.24024,-0.24024 -0.24024,-0.24024 0,0 0,-0.24023 0,-0.24023 0,0 0.24024,-0.24024 0.24024,-0.24024 0,0 0.47998,-0.47949 0.47998,-0.47949 0,0 0.23974,-0.24023 0.23974,-0.24023 0,0 0,-0.23926 0,-0.23926 0,0 -0.23974,-0.24121 -0.23974,-0.24121 0,0 0,-0.23926 0,-0.23926 0,0 0,-0.24023 0,-0.24023 0,0 0.23974,-0.23926 0.23974,-0.23926 0,0 0.23975,-0.48145 0.23975,-0.48145 0,0 0,-0.23926 0,-0.23926 0,0 -0.23975,-0.47949 -0.23975,-0.47949 0,0 0,-0.24023 0,-0.24023 0,0 -0.47998,0 -0.47998,0 0,0 0,-0.24024 0,-0.24024 0,0 -0.23974,-0.71972 -0.23974,-0.71972 0,0 0,-0.96094 0,-0.96094 0,0 0.23974,-0.47949 0.23974,-0.47949 0,0 0.71973,-0.24024 0.71973,-0.24024 0,0 0.24023,0 0.24023,0 0,0 0.23975,0.24024 0.23975,0.24024 0,0 0.24023,0 0.24023,0 0,0 0.95948,-0.24024 0.95948,-0.24024 0,0 0,-0.48047 0,-0.48047 0,0 0,-0.23925 0,-0.23925 0,0 0.24023,-0.24024 0.24023,-0.24024 0,0 0.47998,-0.24023 0.47998,-0.24023 0,0 0.71973,-0.48047 0.71973,-0.48047 0,0 0.23974,-0.24024 0.23974,-0.24024 0,0 0,-0.23925 0,-0.23925 0,0 0,-0.24024 0,-0.24024 0,0 0,-0.23926 0,-0.23926 0,0 0.48047,-0.7207 0.48047,-0.7207 0,0 0.4795,-0.24023 0.4795,-0.24023 0,0 0.72021,-0.71973 0.72021,-0.71973 0,0 0,-0.24023 0,-0.24023 0,0 0,-0.24024 0,-0.24024 0,0 0.23975,-0.23926 0.23975,-0.23926 0,0 0,-0.7207 0,-0.7207 0,0 1.43994,-2.16016 1.43994,-2.16016 0,0 0,-0.24023 0,-0.24023 0,0 0,-0.48047 0,-0.48047 0,0 0.71972,-0.95996 0.71972,-0.95996 0,0 0.23975,-0.47949 0.23975,-0.47949 0,0 0.24023,-0.24024 0.24023,-0.24024 0,0 0.23975,-0.71972 0.23975,-0.71972 0,0 0,-0.24024 0,-0.24024 0,0 0.95996,-1.20019 0.95996,-1.20019 0,0 0.23975,-0.47949 0.23975,-0.47949 0,0 0.24023,0 0.24023,0 0,0 0.95947,0.95996 0.95947,0.95996 0,0 0.47999,0 0.47999,0 0,0 0.47998,0 0.47998,0 0,0 0.23974,0 0.23974,0 0,0 0.72022,0.24023 0.72022,0.24023 0,0 0.23974,0 0.23974,0 0,0 0.71973,0.23926 0.71973,0.23926 0,0 0.96045,0 0.96045,0 0,0 0.23926,0 0.23926,0 0,0 0.24023,0.24023 0.24023,0.24023 0,0 0.23975,0 0.23975,0 0,0 0.72021,0 0.72021,0 0,0 0.71973,0.24024 0.71973,0.24024 0,0 0.47998,0.24023 0.47998,0.24023 0,0 0.24023,-0.24023 0.24023,-0.24023 0,0 0.23975,-0.48047 0.23975,-0.48047 0,0 2.87939,0 2.87939,0 0,0 0,-0.95996 0,-0.95996 0,0 1.67969,0.24023 1.67969,0.24023 0,0 0,-0.95996 0,-0.95996 0,0 1.19971,0 1.19971,0 0,0 1.19971,0 1.19971,0 0,0 0,-0.7207 0,-0.7207 0,0 1.1997,0 1.1997,0 0,0 -0.23974,-0.95899 -0.23974,-0.95899 0,0 -0.24024,-0.96093 -0.24024,-0.96093 0,0 0,-0.23926 0,-0.23926 0,0 0,-0.48047 0,-0.48047 0,0 0,-0.95996 0,-0.95996 0,0 0.24024,-0.24024 0.24024,-0.24024 0,0 0,-0.48046 0,-0.48046 0,0 0.71972,-0.4795 0.71972,-0.4795 0,0 0.24024,-0.24023 0.24024,-0.24023 0,0 0,-0.24024 0,-0.24024 0,0 0.47949,-0.48046 0.47949,-0.48046 0,0 0,-0.23926 0,-0.23926 0,0 0.47998,-0.48047 0.47998,-0.48047 0,0 0.72021,-0.24023 0.72021,-0.24023 0,0 0.4795,-0.23926 0.4795,-0.23926 0,0 0.24023,-0.24024 0.24023,-0.24024 0,0 0.47998,-0.24023 0.47998,-0.24023 0,0 0.71973,-0.7207 0.71973,-0.7207 0,0 0.47998,-0.4795 0.47998,-0.4795 0,0 0.72021,-0.71972 0.72021,-0.71972 0,0 0.4795,-3.36035 0.4795,-3.36035 0,0 0,-0.48047 0,-0.48047 0,0 0,-0.24024 0,-0.24024 0,0 0.23974,-2.15918 0.23974,-2.15918 0,0 0,-0.24121 0,-0.24121 0,0 0,-0.47949 0,-0.47949 0,0 0,-0.47949 0,-0.47949 0,0 -0.95947,-0.95996 -0.95947,-0.95996 0,0 -0.23975,-0.24024 -0.23975,-0.24024 0,0 -0.24023,-0.48047 -0.24023,-0.48047 0,0 -0.24024,-0.7207 -0.24024,-0.7207 0,0 0.24024,-0.23926 0.24024,-0.23926 0,0 0,-0.48047 0,-0.48047 0,0 0.47998,-0.47949 0.47998,-0.47949 0,0 0.24023,-0.48047 0.24023,-0.48047 0,0 0,-0.48047 0,-0.48047 0,0 0,-0.23925 0,-0.23925 0,0 0,-0.24024 0,-0.24024 0,0 0,-0.24023 0,-0.24023 0,0 0,-0.23926 0,-0.23926 0,0 0,-0.24121 0,-0.24121 0,0 -0.24023,-0.47949 -0.24023,-0.47949 0,0 -0.23975,-0.24024 -0.23975,-0.24024 0,0 -0.24023,0 -0.24023,0 0,0 -0.71973,0.24024 -0.71973,0.24024 0,0 -0.23974,0 -0.23974,0 0,0 -0.24024,-0.24024 -0.24024,-0.24024 0,0 0,-0.23926 0,-0.23926 0,0 -0.24023,-0.7207 -0.24023,-0.7207 0,0 0,-1.20019 0,-1.20019 0,0 -0.23975,-1.44043 -0.23975,-1.44043 0,0 -0.24023,-0.4795 -0.24023,-0.4795 0,0 0,-0.24023 0,-0.24023 0,0 -0.23975,-0.23926 -0.23975,-0.23926 0,0 0,-0.24121 0,-0.24121 0,0 0,-0.23926 0,-0.23926 0,0 -0.23975,0 -0.23975,0 0,0 -0.23974,-0.71972 -0.23974,-0.71972 0,0 -0.48047,-0.24121 -0.48047,-0.24121 0,0 0,-0.23926 0,-0.23926 z" /><path
           id="path22"
           style="stroke:#ac7424;stroke-width:0.4799;stroke-linecap:round;stroke-linejoin:round;stroke-miterlimit:3.85000992;stroke-dasharray:none;stroke-opacity:1"
           d="m 402.48877,-532.00781 c 0,0 -0.47998,-0.24024 -0.47998,-0.24024 0,0 -0.23975,0 -0.23975,0 0,0 -0.23974,-0.24023 -0.23974,-0.24023 0,0 -0.72022,0 -0.72022,0 0,0 -0.47998,-0.24024 -0.47998,-0.24024 0,0 -0.23974,0 -0.23974,0 0,0 -0.95997,0 -0.95997,0 0,0 -1.67919,-0.24023 -1.67919,-0.24023 0,0 -0.47999,0 -0.47999,0 0,0 -0.24023,0 -0.24023,0 0,0 -0.23975,0.24023 -0.23975,0.24023 0,0 -0.24023,0.48047 -0.24023,0.48047 0,0 -0.23975,0.24024 -0.23975,0.24024 0,0 -0.23974,0 -0.23974,0 0,0 -1.19971,0 -1.19971,0 0,0 -1.44043,-0.24024 -1.44043,-0.24024 0,0 -0.71924,-0.24023 -0.71924,-0.24023 0,0 -0.24023,-0.24024 -0.24023,-0.24024 0,0 -0.47998,-0.71972 -0.47998,-0.71972 0,0 -0.47949,-0.71973 -0.47949,-0.71973 0,0 -0.24024,-0.24023 -0.24024,-0.24023 0,0 -0.47998,-0.24024 -0.47998,-0.24024 0,0 -0.24023,0.24024 -0.24023,0.24024 0,0 -0.47998,0.95996 -0.47998,0.95996 0,0 -0.23926,0.47949 -0.23926,0.47949 0,0 -0.24024,0 -0.24024,0 0,0 -0.24023,0 -0.24023,0 0,0 -0.23975,0 -0.23975,0 0,0 -0.47998,-0.47949 -0.47998,-0.47949 0,0 -0.23974,-0.47949 -0.23974,-0.47949 0,0 -0.24024,-0.48047 -0.24024,-0.48047 0,0 0.24024,-1.2002 0.24024,-1.2002 0,0 -1.2002,-1.43945 -1.2002,-1.43945 0,0 -0.23974,-0.7207 -0.23974,-0.7207 0,0 0,-0.24024 0,-0.24024 0,0 0,-0.48047 0,-0.48047 0,0 -0.23975,-0.23926 -0.23975,-0.23926 0,0 -0.24023,0 -0.24023,0 0,0 -0.47999,0 -0.47999,0 0,0 -0.47949,-0.24023 -0.47949,-0.24023 0,0 -0.24023,-0.47949 -0.24023,-0.47949 0,0 0,-0.72071 0,-0.72071 0,0 0.24023,-0.71972 0.24023,-0.71972 0,0 0.23975,-0.95996 0.23975,-0.95996 0,0 0.71973,-1.91992 0.71973,-1.91992 0,0 0.71972,-0.72071 0.71972,-0.72071 0,0 0.24024,-0.47949 0.24024,-0.47949 0,0 0.23974,-0.48047 0.23974,-0.48047 0,0 0.24024,-0.95996 0.24024,-0.95996 0,0 0.23974,-0.48047 0.23974,-0.48047 0,0 0,-0.23926 0,-0.23926 0,0 0,-0.7207 0,-0.7207 0,0 0,-0.48047 0,-0.48047 0,0 0.47998,-0.95996 0.47998,-0.95996 0,0 0,-0.23926 0,-0.23926 0,0 0,-0.48047 0,-0.48047 0,0 -0.23974,-1.20019 -0.23974,-1.20019 0,0 0,-0.47949 0,-0.47949 0,0 0.23974,-0.72071 0.23974,-0.72071 0,0 0.23975,-0.95996 0.23975,-0.95996 0,0 0,-0.24023 0,-0.24023 0,0 0,-0.47949 0,-0.47949 0,0 -0.47949,-0.48047 -0.47949,-0.48047 0,0 -0.24024,-0.48047 -0.24024,-0.48047 0,0 -0.71972,-1.19922 -0.71972,-1.19922 0,0 0.23974,-0.24023 0.23974,-0.24023 0,0 1.19971,-0.71973 1.19971,-0.71973 0,0 0.24023,-0.48047 0.24023,-0.48047 0,0 -0.47998,-1.2002 -0.47998,-1.2002 0,0 -0.23974,-0.48046 -0.23974,-0.48046 0,0 -0.47998,-0.23926 -0.47998,-0.23926 0,0 -0.72022,-0.24024 -0.72022,-0.24024 0,0 -0.95947,-0.48046 -0.95947,-0.48046 0,0 -0.71973,0 -0.71973,0 0,0 -0.47998,-0.23926 -0.47998,-0.23926 0,0 -0.47998,-0.24024 -0.47998,-0.24024 0,0 0,-0.24023 0,-0.24023 0,0 -0.71973,-1.44043 -0.71973,-1.44043 0,0 0,-0.24024 0,-0.24024 0,0 0,-0.23925 0,-0.23925 0,0 0.71973,-0.72071 0.71973,-0.72071 0,0 1.19971,-0.71972 1.19971,-0.71972 0,0 0.23974,-0.4795 0.23974,-0.4795 0,0 0.24024,-0.24023 0.24024,-0.24023 0,0 0.47998,-1.20019 0.47998,-1.20019 0,0 0.23975,-1.68067 0.23975,-1.68067 0,0 0,-0.48047 0,-0.48047 0,0 0,-0.47949 0,-0.47949 0,0 -0.71973,-1.2002 -0.71973,-1.2002 0,0 0,-0.48046 0,-0.48046 0,0 0,-0.4795 0,-0.4795 0,0 0,-0.24023 0,-0.24023 0,0 -0.24024,-0.23926 -0.24024,-0.23926 0,0 -0.23974,-0.24121 -0.23974,-0.24121 0,0 -0.95996,-1.19922 -0.95996,-1.19922 0,0 -0.23975,-0.48047 -0.23975,-0.48047 0,0 0,-0.24023 0,-0.24023 0,0 0.23975,-0.23926 0.23975,-0.23926 0,0 0.24023,0 0.24023,0 0,0 0.95947,0 0.95947,0 0,0 0.72022,0 0.72022,0 0,0 0.47949,-0.24023 0.47949,-0.24023 0,0 0,-0.24024 0,-0.24024 0,0 0,-0.24023 0,-0.24023 0,0 0.24024,0 0.24024,0 0,0 0.71972,-0.24024 0.71972,-0.24024 0,0 1.19971,0 1.19971,0 0,0 1.43994,0.48047 1.43994,0.48047 0,0 0.47998,0 0.47998,0 0,0 0.24024,0 0.24024,0 0,0 0.71923,-0.24023 0.71923,-0.24023 0,0 0.72022,-0.71973 0.72022,-0.71973 0,0 0.47949,-0.48047 0.47949,-0.48047 0,0 0.24024,-0.71972 0.24024,-0.71972 0,0 0.47998,-1.44043 0.47998,-1.44043 0,0 0,-0.71973 0,-0.71973 0,0 0,-0.24023 0,-0.24023 0,0 0.95947,-1.67969 0.95947,-1.67969 0,0 0.48047,-0.24024 0.48047,-0.24024 0,0 0.47998,-0.7207 0.47998,-0.7207 0,0 0.23974,-0.47949 0.23974,-0.47949 0,0 0.23975,-0.24024 0.23975,-0.24024 0,0 0,-0.48046 0,-0.48046 0,0 0.72021,-0.95997 0.72021,-0.95997 0,0 0.23975,-0.24023 0.23975,-0.24023 0,0 0.71973,-0.47949 0.71973,-0.47949 0,0 0.47998,0 0.47998,0 0,0 0.47998,-0.24024 0.47998,-0.24024 0,0 0.71973,-0.71972 0.71973,-0.71972 0,0 0.24023,-0.24024 0.24023,-0.24024 0,0 0,-0.7207 0,-0.7207 0,0 0,-0.47949 0,-0.47949 0,0 0,-0.23926 0,-0.23926 0,0 1.67969,-1.20117 1.67969,-1.20117 0,0 1.67968,-0.95996 1.67968,-0.95996 0,0 0,-0.24024 0,-0.24024 0,0 -0.23974,-0.23926 -0.23974,-0.23926 0,0 -0.72022,-1.44043 -0.72022,-1.44043 0,0 -0.47998,-1.20019 -0.47998,-1.20019 0,0 0,-0.47949 0,-0.47949 0,0 0,-0.72071 0,-0.72071 0,0 0.71973,-1.20019 0.71973,-1.20019 0,0 0.24023,-0.24024 0.24023,-0.24024 0,0 0.24024,-0.23925 0.24024,-0.23925 0,0 0.23974,-0.24024 0.23974,-0.24024 0,0 0,-0.24023 0,-0.24023 0,0 0,-0.24024 0,-0.24024 0,0 0,-0.24023 0,-0.24023 0,0 -0.23974,-0.23926 -0.23974,-0.23926 0,0 0,-0.48047 0,-0.48047 0,0 0,-0.48047 0,-0.48047 0,0 0,-0.23925 0,-0.23925 0,0 0.23974,-0.48047 0.23974,-0.48047 0,0 0,-0.48047 0,-0.48047 0,0 -0.23974,-0.47949 -0.23974,-0.47949 0,0 0,-0.24024 0,-0.24024 0,0 0,-0.23926 0,-0.23926 0,0 0,-0.48046 0,-0.48046 0,0 0,-0.24024 0,-0.24024 0,0 0.23974,-0.23926 0.23974,-0.23926 0,0 0,-0.24023 0,-0.24023 0,0 0.23975,0 0.23975,0 0,0 0,-0.24024 0,-0.24024 0,0 0,-0.24023 0,-0.24023 0,0 -0.23975,0 -0.23975,0 0,0 0,-0.24023 0,-0.24023 0,0 0,-0.24024 0,-0.24024 0,0 -0.23974,-0.23926 -0.23974,-0.23926 0,0 0,-0.24023 0,-0.24023 0,0 -0.24024,-0.47949 -0.24024,-0.47949 0,0 0.24024,-0.24121 0.24024,-0.24121 0,0 0,-0.23926 0,-0.23926 0,0 0.23974,-0.24024 0.23974,-0.24024 0,0 0.23975,-0.47949 0.23975,-0.47949 0,0 0.47998,-0.24121 0.47998,-0.24121 0,0 0.72022,-0.23926 0.72022,-0.23926 0,0 0.23974,0 0.23974,0 0,0 0.47949,-0.24023 0.47949,-0.24023 0,0 0.72022,-0.47949 0.72022,-0.47949 0,0 0.24023,-1.2002 0.24023,-1.2002 0,0 0,-0.7207 0,-0.7207 0,0 -0.24023,-0.47949 -0.24023,-0.47949 0,0 -0.23975,-0.24024 -0.23975,-0.24024 0,0 -0.24023,-0.24023 -0.24023,-0.24023 0,0 -0.24024,-0.48047 -0.24024,-0.48047 0,0 0,-0.23926 0,-0.23926 0,0 -0.47949,-0.24023 -0.47949,-0.24023 0,0 -0.23974,-0.24024 -0.23974,-0.24024 0,0 0.23974,0 0.23974,0 0,0 0.23975,-0.71973 0.23975,-0.71973 0,0 0.23974,-0.48046 0.23974,-0.48046 0,0 0.24024,-0.48047 0.24024,-0.48047 0,0 0,-0.71973 0,-0.71973 0,0 0,-0.48047 0,-0.48047 0,0 -0.24024,-0.71972 -0.24024,-0.71972 0,0 -0.95947,-2.16016 -0.95947,-2.16016 0,0 -0.24023,-1.43945 -0.24023,-1.43945 0,0 -0.71973,-1.68067 -0.71973,-1.68067 0,0 0.23975,0 0.23975,0 0,0 0.24023,-0.24023 0.24023,-0.24023 0,0 0.23975,-0.48047 0.23975,-0.48047 0,0 0.24023,-0.23926 0.24023,-0.23926 0,0 -0.24023,-0.24023 -0.24023,-0.24023 0,0 -0.23975,-0.95996 -0.23975,-0.95996 0,0 0,-0.24024 0,-0.24024 0,0 -0.47998,-1.20019 -0.47998,-1.20019 0,0 0,-0.24024 0,-0.24024 0,0 0.23975,-0.47949 0.23975,-0.47949 0,0 0,-0.24023 0,-0.24023 0,0 0.24023,0 0.24023,0 0,0 0.72022,0 0.72022,0 0,0 0.23974,0 0.23974,0 0,0 0.47949,-0.4795 0.47949,-0.4795 0,0 0.24024,-0.24023 0.24024,-0.24023 0,0 0.24023,-0.24024 0.24023,-0.24024 0,0 0.23975,-0.24023 0.23975,-0.24023 0,0 -0.23975,-0.71973 -0.23975,-0.71973 0,0 0,-0.24023 0,-0.24023 0,0 -0.72021,-0.47949 -0.72021,-0.47949 0,0 -0.23975,-0.48047 -0.23975,-0.48047 0,0 -0.23974,0 -0.23974,0 0,0 0,-0.24024 0,-0.24024 0,0 0,-0.24023 0,-0.24023 0,0 0,-0.23926 0,-0.23926 0,0 0,-0.24023 0,-0.24023 0,0 0.23974,-0.24024 0.23974,-0.24024 0,0 0.23975,0 0.23975,0 0,0 0.23974,-0.24023 0.23974,-0.24023 0,0 0.24024,-0.23926 0.24024,-0.23926 0,0 0,-0.24023 0,-0.24023 0,0 0,-0.24024 0,-0.24024 0,0 0,-0.24023 0,-0.24023 0,0 -0.24024,-0.24024 -0.24024,-0.24024 0,0 -0.47949,-0.71972 -0.47949,-0.71972 0,0 -0.23974,0 -0.23974,0 0,0 -0.24024,-0.24024 -0.24024,-0.24024 0,0 -0.24023,-0.24023 -0.24023,-0.24023 0,0 0,-0.24024 0,-0.24024 0,0 -0.23975,0 -0.23975,0 0,0 -0.47998,-0.23925 -0.47998,-0.23925 0,0 -0.23975,-0.24024 -0.23975,-0.24024 0,0 0,-0.7207 0,-0.7207 0,0 0,-0.23926 0,-0.23926 0,0 0.71973,-1.2002 0.71973,-1.2002 0,0 0.47998,-0.71972 0.47998,-0.71972 0,0 0,-0.24024 0,-0.24024 0,0 0.71973,-0.24023 0.71973,-0.24023 0,0 0.23974,0.24023 0.23974,0.24023 0,0 0.24024,0 0.24024,0 0,0 0.95996,-0.48046 0.95996,-0.48046 0,0 0.47949,-0.71973 0.47949,-0.71973 0,0 0.96045,-0.7207 0.96045,-0.7207 0,0 0,-0.23926 0,-0.23926 0,0 0.23975,-0.24024 0.23975,-0.24024 0,0 0,-0.24023 0,-0.24023 0,0 0.47998,-0.24024 0.47998,-0.24024 0,0 0.47998,-0.47949 0.47998,-0.47949 0,0 0.23974,-0.48047 0.23974,-0.48047 0,0 0.23975,0 0.23975,0 0,0 0.24023,-0.24023 0.24023,-0.24023 0,0 0.23975,0 0.23975,0 0,0 0,-0.24024 0,-0.24024 0,0 0,-0.23925 0,-0.23925 0,0 0,-0.24024 0,-0.24024 0,0 -0.23975,-0.23926 -0.23975,-0.23926 0,0 0,-0.24023 0,-0.24023 0,0 0,-0.24023 0,-0.24023 0,0 0.23975,-0.24024 0.23975,-0.24024 0,0 0.24023,0 0.24023,0 0,0 0.23975,0 0.23975,0 0,0 0.47998,-0.24023 0.47998,-0.24023 0,0 0.23975,0 0.23975,0 0,0 0.47998,-0.47949 0.47998,-0.47949 0,0 0.24023,-0.24024 0.24023,-0.24024 0,0 0.23975,-0.24023 0.23975,-0.24023 0,0 0.23974,-0.71973 0.23974,-0.71973 0,0 0,-0.96094 0,-0.96094 0,0 0,-0.47949 0,-0.47949 0,0 -0.23974,-0.95996 -0.23974,-0.95996 0,0 0,-0.48047 0,-0.48047 0,0 0,-0.24023 0,-0.24023 0,0 0.23974,-1.67969 0.23974,-1.67969 0,0 0.24024,-0.71973 0.24024,-0.71973 0,0 0,-0.72021 0,-0.72021 0,0 0,-0.24024 0,-0.24024 0,0 0.72021,-0.47998 0.72021,-0.47998 0,0 0,-0.47998 0,-0.47998 0,0 0.71924,-0.72021 0.71924,-0.72021 0,0 0.24024,-0.47998 0.24024,-0.47998 0,0 0.47998,-0.24024 0.47998,-0.24024 0,0 0.47949,-0.23974 0.47949,-0.23974 0,0 0.47998,0 0.47998,0 0,0 0.96045,0.23974 0.96045,0.23974 0,0 0.95947,-0.47998 0.95947,-0.47998 0,0 0.95947,-0.23974 0.95947,-0.23974 0,0 0.24024,0 0.24024,0 0,0 0.47998,-0.72022 0.47998,-0.72022 0,0 0.47998,-0.72021 0.47998,-0.72021 0,0 0.23975,-0.23975 0.23975,-0.23975 0,0 0.47998,-0.24023 0.47998,-0.24023 0,0 1.1997,0.24023 1.1997,0.24023 0,0 0.95996,-0.24023 0.95996,-0.24023 0,0 0.47998,-0.24024 0.47998,-0.24024 0,0 0.71973,-0.71973 0.71973,-0.71973 0,0 0.95996,-1.20019 0.95996,-1.20019 0,0 0,-0.24024 0,-0.24024 0,0 0.23975,0 0.23975,0 0,0 0,-0.23974 0,-0.23974 0,0 0.72021,-0.72022 0.72021,-0.72022 0,0 0.4795,-0.24023 0.4795,-0.24023 0,0 0.95996,-0.23975 0.95996,-0.23975 0,0 0.71972,0.23975 0.71972,0.23975 0,0 1.2002,-0.47998 1.2002,-0.47998 0,0 0.95947,-0.47998 0.95947,-0.47998 0,0 0.24023,-0.47998 0.24023,-0.47998 0,0 1.19971,-0.24024 1.19971,-0.24024 0,0 0,-0.23974 0,-0.23974 0,0 0.23975,0 0.23975,0 0,0 0.24023,-0.72022 0.24023,-0.72022 0,0 -0.24023,-0.72021 -0.24023,-0.72021 0,0 0.24023,-0.23975 0.24023,-0.23975 0,0 0,-0.24023 0,-0.24023 0,0 0.71973,-0.23975 0.71973,-0.23975 0,0 0.47998,-0.24023 0.47998,-0.24023 0,0 0.23975,-0.47998 0.23975,-0.47998 0,0 1.67968,-1.68018 1.67968,-1.68018 0,0 1.2002,-0.95996 1.2002,-0.95996 0,0 0,-0.24023 0,-0.24023 0,0 0.23974,0 0.23974,0 0,0 0,-0.47998 0,-0.47998 0,0 0.23975,0 0.23975,0 0,0 0.24023,-0.23975 0.24023,-0.23975 0,0 0.23975,0 0.23975,0 0,0 0,-0.24024 0,-0.24024 0,0 0.24024,0 0.24024,0 0,0 0,-0.24023 0,-0.24023 0,0 0.23974,-0.23975 0.23974,-0.23975 0,0 0,-0.24023 0,-0.24023 0,0 0.24024,0 0.24024,0 0,0 0.23974,0 0.23974,0 0,0 0.23975,0 0.23975,0 0,0 0.72021,-0.23975 0.72021,-0.23975 0,0 0.23975,0 0.23975,0 0,0 0.47998,0 0.47998,0 0,0 0.23975,0 0.23975,0 0,0 0,-0.24023 0,-0.24023 0,0 0.24023,-0.47998 0.24023,-0.47998 0,0 -0.24023,-0.24024 -0.24023,-0.24024 0,0 0,-0.47998 0,-0.47998 0,0 0,-0.47998 0,-0.47998 0,0 0,-0.23974 0,-0.23974 0,0 -0.23975,-0.96045 -0.23975,-0.96045 0,0 0,-0.72022 0,-0.72022 0,0 0,-0.71972 0,-0.71972 0,0 0,-0.24024 0,-0.24024 0,0 -0.23975,-0.23974 -0.23975,-0.23974 0,0 -1.43994,-1.2002 -1.43994,-1.2002 0,0 -0.47998,-1.44043 -0.47998,-1.44043 0,0 -0.47998,-0.95996 -0.47998,-0.95996 0,0 -0.23975,-0.72021 -0.23975,-0.72021 0,0 -0.47998,-0.47998 -0.47998,-0.47998 0,0 -0.23974,-0.23975 -0.23974,-0.23975 0,0 -0.47998,-0.24024 -0.47998,-0.24024 0,0 -0.47998,-0.23974 -0.47998,-0.23974 0,0 -0.71973,-0.72022 -0.71973,-0.72022 0,0 -1.20019,0 -1.20019,0 0,0 -1.19971,-0.47998 -1.19971,-0.47998 0,0 -0.23975,-0.24023 -0.23975,-0.24023 0,0 -0.47998,-0.95996 -0.47998,-0.95996 0,0 -0.95996,-0.95996 -0.95996,-0.95996 0,0 -0.23975,-0.24024 -0.23975,-0.24024 0,0 -0.47998,-0.24023 -0.47998,-0.24023 0,0 -0.95996,-1.19971 -0.95996,-1.19971 0,0 -0.23974,-0.24023 -0.23974,-0.24023 0,0 -1.19971,0 -1.19971,0 0,0 -0.72021,-0.24024 -0.72021,-0.24024 0,0 0,-0.23974 0,-0.23974 0,0 -0.23975,-0.24024 -0.23975,-0.24024 0,0 0,-0.23974 0,-0.23974 0,0 -0.24023,-0.72022 -0.24023,-0.72022 0,0 0,-0.47998 0,-0.47998 0,0 -0.4795,-0.47998 -0.4795,-0.47998 0,0 -0.24023,0 -0.24023,0 0,0 -0.95996,-0.72021 -0.95996,-0.72021 0,0 -0.23975,0 -0.23975,0 0,0 -0.23974,-0.24024 -0.23974,-0.24024 0,0 0,-0.23975 0,-0.23975 0,0 -0.24024,0 -0.24024,0 0,0 -0.47998,0 -0.47998,0 0,0 0,-0.24023 0,-0.24023 0,0 -0.47998,-0.71973 -0.47998,-0.71973 0,0 0,-0.24023 0,-0.24023 0,0 -0.23975,0 -0.23975,0 0,0 0,-0.23975 0,-0.23975 0,0 -0.23974,0 -0.23974,0 0,0 0,-0.24023 0,-0.24023 0,0 -0.24024,0 -0.24024,0 0,0 -0.23974,0 -0.23974,0 0,0 -0.47998,0 -0.47998,0 0,0 -0.71973,0.24023 -0.71973,0.24023 0,0 -0.72021,0.23975 -0.72021,0.23975 0,0 -0.95948,0 -0.95948,0 0,0 -0.24023,-0.23975 -0.24023,-0.23975 0,0 -0.24024,-0.24023 -0.24024,-0.24023 0,0 -0.71923,-0.72022 -0.71923,-0.72022 0,0 0,-0.23974 0,-0.23974 0,0 0,-0.24024 0,-0.24024 0,0 0.47998,-0.95996 0.47998,-0.95996 0,0 0,-0.47998 0,-0.47998 0,0 0,-0.24023 0,-0.24023 0,0 0,-1.2002 0,-1.2002 0,0 0,-0.72021 0,-0.72021 0,0 0.23925,-0.47998 0.23925,-0.47998 0,0 0,-0.47998 0,-0.47998 0,0 0.24024,-0.47998 0.24024,-0.47998 0,0 0,-0.95996 0,-0.95996 0,0 -0.24024,-1.2002 -0.24024,-1.2002 0,0 0,-0.24023 0,-0.24023 0,0 -0.71923,-1.43995 -0.71923,-1.43995 0,0 -1.43995,-2.88037 -1.43995,-2.88037 0,0 -1.43945,-1.43994 -1.43945,-1.43994 0,0 -0.48047,-1.20019 -0.48047,-1.20019 0,0 0,-0.47998 0,-0.47998 0,0 -0.23974,0 -0.23974,0 0,0 0.23974,-0.24024 0.23974,-0.24024 0,0 0.24024,-0.23974 0.24024,-0.23974 0,0 0.24023,0 0.24023,0 0,0 0,-0.96045 0,-0.96045 0,0 -0.48047,-0.47998 -0.48047,-0.47998 0,0 -0.95996,-0.72022 -0.95996,-0.72022 0,0 0,-0.95996 0,-0.95996 0,0 0,-0.23975 0,-0.23975 0,0 0,-0.72021 0,-0.72021 0,0 0,-0.47998 0,-0.47998 0,0 -0.23926,-0.47998 -0.23926,-0.47998 0,0 -0.48046,-0.47998 -0.48046,-0.47998 0,0 -0.23975,-0.24024 -0.23975,-0.24024 0,0 0,-0.47998 0,-0.47998 0,0 0,-0.24023 0,-0.24023 0,0 0,-0.47998 0,-0.47998 0,0 0,-0.24024 0,-0.24024 0,0 0,-0.23974 0,-0.23974 0,0 -0.24024,-0.24024 -0.24024,-0.24024 0,0 0,-0.23974 0,-0.23974 0,0 0,-0.24024 0,-0.24024 0,0 -0.23974,-0.23974 -0.23974,-0.23974 0,0 -0.47998,-0.96045 -0.47998,-0.96045 0,0 -0.23975,-0.47998 -0.23975,-0.47998 0,0 -0.24023,-1.2002 -0.24023,-1.2002 0,0 0,-0.71972 0,-0.71972 0,0 0,-0.24024 0,-0.24024 0,0 0,-0.23975 0,-0.23975 0,0 -0.23975,0 -0.23975,0 0,0 0,-0.24023 0,-0.24023 0,0 -0.23974,0 -0.23974,0 0,0 -0.24024,0 -0.24024,0 0,0 -0.47998,-0.24023 -0.47998,-0.24023 0,0 -0.23975,-0.23975 -0.23975,-0.23975 0,0 -0.47998,-0.72022 -0.47998,-0.72022 0,0 -0.47998,-0.24023 -0.47998,-0.24023 0,0 -0.71972,-0.47998 -0.71972,-0.47998 0,0 -0.47998,-0.23975 -0.47998,-0.23975 0,0 -0.72022,-0.47998 -0.72022,-0.47998 0,0 -0.23974,-0.47998 -0.23974,-0.47998 0,0 -0.23975,-0.24023 -0.23975,-0.24023 0,0 -0.23975,-0.24024 -0.23975,-0.24024 0,0 -0.24023,-0.47998 -0.24023,-0.47998 0,0 -0.95996,-0.71972 -0.95996,-0.71972 0,0 -0.71973,-0.48047 -0.71973,-0.48047 0,0 -0.47998,-0.71973 -0.47998,-0.71973 0,0 -0.47998,-0.72021 -0.47998,-0.72021 0,0 -0.23975,-0.47998 -0.23975,-0.47998 0,0 -0.23974,-0.47998 -0.23974,-0.47998 0,0 0,-0.24024 0,-0.24024 0,0 -0.48047,-0.95996 -0.48047,-0.95996 0,0 0,-0.24023 0,-0.24023 0,0 -0.23975,-1.2002 -0.23975,-1.2002 0,0 -0.24023,0 -0.24023,0 0,0 0,-0.95996 0,-0.95996 0,0 -0.47949,-0.95996 -0.47949,-0.95996 0,0 0,-0.24024 0,-0.24024 0,0 -0.47998,-0.95996 -0.47998,-0.95996 0,0 -0.47998,-0.72021 -0.47998,-0.72021 0,0 -0.47998,-0.47998 -0.47998,-0.47998 0,0 -0.23975,-0.23975 -0.23975,-0.23975 0,0 -0.24023,0 -0.24023,0 0,0 0,-0.24023 0,-0.24023 0,0 -0.95948,-0.47998 -0.95948,-0.47998 0,0 -0.24023,-0.24024 -0.24023,-0.24024 0,0 -0.23975,0 -0.23975,0 0,0 -0.24023,-0.47998 -0.24023,-0.47998 0,0 -0.23975,0 -0.23975,0 0,0 0,-0.23974 0,-0.23974 0,0 -0.47998,-0.48047 -0.47998,-0.48047 0,0 -0.23975,-0.47998 -0.23975,-0.47998 0,0 0,-0.23975 0,-0.23975 0,0 0,-0.24023 0,-0.24023 0,0 -0.24023,-1.2002 -0.24023,-1.2002 0,0 0,-0.23974 0,-0.23974 0,0 0.24023,-0.72022 0.24023,-0.72022 0,0 0.23975,-0.72021 0.23975,-0.72021 0,0 0.24024,-0.47998 0.24024,-0.47998 0,0 0,-0.47998 0,-0.47998 0,0 -0.24024,-0.72022 -0.24024,-0.72022 0,0 0,-0.47998 0,-0.47998 0,0 0,-0.23975 0,-0.23975 0,0 0,-0.24023 0,-0.24023 0,0 0,-0.24024 0,-0.24024 0,0 0,-0.23974 0,-0.23974 0,0 0.24024,-0.95996 0.24024,-0.95996 0,0 0,-0.47998 0,-0.47998 0,0 0,-0.72022 0,-0.72022 0,0 -0.24024,-0.96045 -0.24024,-0.96045 0,0 0,-0.47998 0,-0.47998 0,0 0,-0.23974 0,-0.23974 0,0 0,-0.47998 0,-0.47998 0,0 0.47998,-1.2002 0.47998,-1.2002 0,0 0,-0.47998 0,-0.47998 0,0 0,-0.72021 0,-0.72021 0,0 0,-0.24024 0,-0.24024 0,0 -0.23974,-0.95996 -0.23974,-0.95996 0,0 0,-0.47998 0,-0.47998 0,0 0,-0.24023 0,-0.24023 0,0 0,-0.71973 0,-0.71973 0,0 0,-0.96045 0,-0.96045 0,0 0.23974,-0.95996 0.23974,-0.95996 0,0 0.47998,-1.2002 0.47998,-1.2002 0,0 0.71973,-0.71972 0.71973,-0.71972 0,0 0.23974,-0.24024 0.23974,-0.24024 0,0 0.95997,-0.47998 0.95997,-0.47998 0,0 0.23974,-0.72021 0.23974,-0.72021 0,0 0,-0.23975 0,-0.23975 0,0 0,-0.24023 0,-0.24023 0,0 0,-0.47998 0,-0.47998 0,0 -0.23974,0 -0.23974,0 0,0 0,-0.24024 0,-0.24024 0,0 -0.23975,-0.23974 -0.23975,-0.23974 0,0 -0.24023,-0.47998 -0.24023,-0.47998 0,0 -0.23975,0 -0.23975,0 0,0 -0.24024,-0.24024 -0.24024,-0.24024 0,0 -0.47949,-0.47998 -0.47949,-0.47998 0,0 -0.95996,-0.47998 -0.95996,-0.47998 0,0 -0.23974,0 -0.23974,0 0,0 -0.47999,-0.47998 -0.47999,-0.47998 0,0 -0.24023,0 -0.24023,0 0,0 -0.23975,-0.48047 -0.23975,-0.48047 0,0 0.23975,-0.47998 0.23975,-0.47998 0,0 0.24023,-0.23975 0.24023,-0.23975 0,0 0.23975,-0.24023 0.23975,-0.24023 0,0 0.47998,-0.47998 0.47998,-0.47998 0,0 0.23975,-0.23975 0.23975,-0.23975 0,0 0.24023,0 0.24023,0 0,0 0,-0.24023 0,-0.24023 0,0 0.23975,0 0.23975,0 0,0 0.24023,0 0.24023,0 0,0 0.23975,-0.24024 0.23975,-0.24024 0,0 0.23974,0 0.23974,0 0,0 0.47999,0 0.47999,0 0,0 0.71972,0 0.71972,0 0,0 0.47998,0.24024 0.47998,0.24024 0,0 0.95996,-0.47998 0.95996,-0.47998 0,0 0.71973,-0.24024 0.71973,-0.24024 0,0 0.24023,-0.23974 0.24023,-0.23974 0,0 0.47998,-0.96045 0.47998,-0.96045 0,0 0.4795,-2.64014 0.4795,-2.64014 0,0 0,-0.72021 0,-0.72021 0,0 0,-0.23975 0,-0.23975 0,0 0,-1.44043 0,-1.44043 0,0 0,-0.23974 0,-0.23974 0,0 0,-0.72022 0,-0.72022 0,0 -0.23975,-0.72021 -0.23975,-0.72021 0,0 -0.23975,-0.71973 -0.23975,-0.71973 0,0 -0.47998,-0.47998 -0.47998,-0.47998 0,0 -0.24023,-2.16065 -0.24023,-2.16065 0,0 0.24023,-0.95996 0.24023,-0.95996 0,0 -0.47998,-2.64013 -0.47998,-2.64013 0,0 -0.71972,-3.84034 -0.71972,-3.84034 0,0 0,-1.68017 0,-1.68017 0,0 0.23974,-1.2002 0.23974,-1.2002 0,0 -0.71972,-3.12011 -0.71972,-3.12011 0,0 -0.47998,-1.92041 -0.47998,-1.92041 0,0 -0.71973,-2.40039 -0.71973,-2.40039 0,0 -0.72022,-1.91993 -0.72022,-1.91993 0,0 -2.15918,-2.16064 -2.15918,-2.16064 0,0 0,-0.23975 0,-0.23975 0,0 0,-0.24023 0,-0.24023 0,0 -0.72021,-1.19971 -0.72021,-1.19971 0,0 0,-0.24023 0,-0.24023 0,0 -0.23975,-0.47998 -0.23975,-0.47998 0,0 0,-0.47998 0,-0.47998 0,0 -0.23974,-1.2002 -0.23974,-1.2002 0,0 0,-0.24023 0,-0.24023 0,0 -0.47998,-1.68018 -0.47998,-1.68018 0,0 -0.48047,-0.71973 -0.48047,-0.71973 0,0 0,-0.96045 0,-0.96045 0,0 0,-0.23974 0,-0.23974 0,0 0,-0.24024 0,-0.24024 0,0 0.24023,-1.20019 0.24023,-1.20019 0,0 0.24024,-0.47998 0.24024,-0.47998 0,0 0.47998,-0.47998 0.47998,-0.47998 0,0 0.47949,-0.23975 0.47949,-0.23975 0,0 0.47998,-0.72021 0.47998,-0.72021 0,0 0.24023,-0.24024 0.24023,-0.24024 0,0 0,-0.23974 0,-0.23974 0,0 -0.24023,-0.48047 -0.24023,-0.48047 0,0 -0.23975,-0.71973 -0.23975,-0.71973 0,0 0,-1.92041 0,-1.92041 0,0 -0.24023,-1.43994 -0.24023,-1.43994 0,0 0,-0.24023 0,-0.24023 0,0 0.47998,-0.95997 0.47998,-0.95997 0,0 0.47998,-0.95996 0.47998,-0.95996 0,0 0.24024,-1.44043 0.24024,-1.44043 0,0 -0.47999,-0.95996 -0.47999,-0.95996 0,0 -1.43994,-2.40039 -1.43994,-2.40039 0,0 -1.1997,-1.20019 -1.1997,-1.20019 0,0 0,-0.95996 0,-0.95996 0,0 0,-0.47998 0,-0.47998 0,0 0.24023,-0.47998 0.24023,-0.47998 0,0 0.47949,-0.95997 0.47949,-0.95997 0,0 0.24024,-0.72021 0.24024,-0.72021 0,0 0,-0.24023 0,-0.24023 0,0 -0.24024,-0.23975 -0.24024,-0.23975 0,0 -0.95947,-0.72022 -0.95947,-0.72022 0,0 -0.72021,-0.72021 -0.72021,-0.72021 0,0 -0.24024,-0.71973 -0.24024,-0.71973 0,0 0,-0.48047 0,-0.48047 0,0 0.72022,-2.3999 0.72022,-2.3999 0,0 0.24023,-1.20019 0.24023,-1.20019 0,0 0,-1.2002 0,-1.2002 0,0 -0.47998,-1.43994 -0.47998,-1.43994 0,0 0.23975,-2.16016 0.23975,-2.16016 0,0 -0.95948,-1.92041 -0.95948,-1.92041 0,0 0.23926,-0.47998 0.23926,-0.47998 0,0 0.48047,-0.47998 0.48047,-0.47998 0,0 0.47998,-0.96045 0.47998,-0.96045 0,0 0.23975,-0.71972 0.23975,-0.71972 0,0 0,-0.24024 0,-0.24024 0,0 -0.23975,-1.20019 -0.23975,-1.20019 0,0 0,-0.47998 0,-0.47998 0,0 0.23975,-0.47998 0.23975,-0.47998 0,0 0,-0.24024 0,-0.24024 0,0 0.47949,-0.23974 0.47949,-0.23974 0,0 0.96045,-0.72022 0.96045,-0.72022 0,0 0.23974,-0.47998 0.23974,-0.47998 0,0 0,-0.24023 0,-0.24023 0,0 0,-0.47998 0,-0.47998 0,0 0,-0.47999 0,-0.47999 0,0 -0.23974,-0.72021 -0.23974,-0.72021 0,0 -0.72022,-0.71973 -0.72022,-0.71973 0,0 -0.95947,-0.96045 -0.95947,-0.96045 0,0 -0.72021,-1.1997 -0.72021,-1.1997 0,0 0.24023,-0.96045 0.24023,-0.96045 0,0 0,-0.71973 0,-0.71973 0,0 -0.71973,-0.72021 -0.71973,-0.72021 0,0 -1.20019,-0.95996 -1.20019,-0.95996 0,0 -0.24024,-0.24024 -0.24024,-0.24024 0,0 0.24024,-0.47998 0.24024,-0.47998 0,0 0.23974,-0.72021 0.23974,-0.72021 0,0 -0.23974,-0.71973 -0.23974,-0.71973 0,0 -0.24024,-0.72022 -0.24024,-0.72022 0,0 -0.71972,-0.72021 -0.71972,-0.72021 0,0 -0.23975,-1.2002 -0.23975,-1.2002 0,0 0.23975,-2.16015 0.23975,-2.16015 0,0 0,-0.47998 0,-0.47998 0,0 0.24023,-0.24024 0.24023,-0.24024 0,0 0,-0.23974 0,-0.23974 0,0 0.24024,-0.24024 0.24024,-0.24024 0,0 0.47949,-0.47998 0.47949,-0.47998 0,0 0.23974,-0.72021 0.23974,-0.72021 0,0 0,-0.47998 0,-0.47998 0,0 -0.47998,-0.47998 -0.47998,-0.47998 0,0 -0.23925,-0.24024 -0.23925,-0.24024 0,0 -0.24024,0 -0.24024,0 0,0 0,-0.23974 0,-0.23974 0,0 0,-0.24024 0,-0.24024 0,0 0,-0.71972 0,-0.71972 0,0 0.47949,-0.47999 0.47949,-0.47999 0,0 0,-0.48046 0,-0.48046 0,0 0,-0.23975 0,-0.23975 0,0 -0.47949,-1.2002 -0.47949,-1.2002 0,0 -0.47998,-0.24023 -0.47998,-0.24023 0,0 -0.24023,-0.47998 -0.24023,-0.47998 0,0 -0.23975,-0.23975 -0.23975,-0.23975 0,0 -0.24023,-0.24023 -0.24023,-0.24023 0,0 0,-0.47998 0,-0.47998 0,0 0.24023,-0.47998 0.24023,-0.47998 0,0 0.71973,-0.72022 0.71973,-0.72022 0,0 0.95996,-0.72021 0.95996,-0.72021 0,0 1.67969,-0.23975 1.67969,-0.23975 0,0 0.47998,0 0.47998,0 0,0 0.72021,-0.24023 0.72021,-0.24023 0,0 1.19971,-0.23975 1.19971,-0.23975 0,0 1.43945,-0.24023 1.43945,-0.24023 0,0 0.24024,-0.23975 0.24024,-0.23975 0,0 0.47949,0 0.47949,0 0,0 0.24023,-0.24023 0.24023,-0.24023 0,0 0.23975,-0.47998 0.23975,-0.47998 0,0 0.95996,-0.72022 0.95996,-0.72022 0,0 1.67969,-1.20019 1.67969,-1.20019 0,0 0.23974,0 0.23974,0 0,0 0.47998,1.20019 0.47998,1.20019 0,0 0.47998,0.24024 0.47998,0.24024 0,0 0.72022,-0.48047 0.72022,-0.48047 0,0 1.19922,-0.95996 1.19922,-0.95996 0,0 1.68017,-0.71973 1.68017,-0.71973 0,0 0.47998,-0.24023 0.47998,-0.24023 0,0 0.95948,0 0.95948,0 0,0 0.47998,0 0.47998,0 0,0 0.95996,0 0.95996,0 0,0 0.47998,0 0.47998,0 0,0 2.15918,0.24023 2.15918,0.24023 0,0 0.24023,0 0.24023,0 0,0 0.47998,0.23975 0.47998,0.23975 0,0 0.23975,0.47998 0.23975,0.47998 0,0 0,0.24023 0,0.24023 0,0 0,0.24024 0,0.24024 0,0 -0.23975,0.23974 -0.23975,0.23974 0,0 0,0.47998 0,0.47998 0,0 0,0.24024 0,0.24024 0,0 0.23975,0.23974 0.23975,0.23974 0,0 0.23974,0 0.23974,0 0,0 0.24024,0.24024 0.24024,0.24024 0,0 0.23975,0 0.23975,0 0,0 0.71972,-0.24024 0.71972,-0.24024 0,0 1.44043,-0.95996 1.44043,-0.95996 0,0 0.71924,0 0.71924,0 0,0 0.48047,0 0.48047,0 0,0 0.47998,0.95996 0.47998,0.95996 0,0 0.23926,0.47998 0.23926,0.47998 0,0 0.24023,0 0.24023,0 0,0 1.67969,-0.95996 1.67969,-0.95996 0,0 0.95996,-1.20019 0.95996,-1.20019 0,0 0.47998,0 0.47998,0 0,0 0.47998,0 0.47998,0 0,0 2.63916,0.48047 2.63916,0.48047 0,0 0.47998,0 0.47998,0 0,0 0.71973,1.43994 0.71973,1.43994 0,0 0.24023,0.23974 0.24023,0.23974 0,0 1.91944,2.16016 1.91944,2.16016 0,0 0.47998,0.24023 0.47998,0.24023 0,0 0.24023,0.24024 0.24023,0.24024 0,0 1.91943,2.3999 1.91943,2.3999 0,0 0.24024,0.96045 0.24024,0.96045 0,0 -0.24024,0.23975 -0.24024,0.23975 0,0 -0.71972,0.47998 -0.71972,0.47998 0,0 0,0.48046 0,0.48046 0,0 0,0.47999 0,0.47999 0,0 3.11914,1.43994 3.11914,1.43994 0,0 0.72021,1.20019 0.72021,1.20019 0,0 0.23975,0.72022 0.23975,0.72022 0,0 0.47998,0.23974 0.47998,0.23974 0,0 0.95996,0.72022 0.95996,0.72022 0,0 0,0.23974 0,0.23974 0,0 0.95947,0.24024 0.95947,0.24024 0,0 0.24024,0.24023 0.24024,0.24023 0,0 0.23974,0 0.23974,0 0,0 0.24024,0 0.24024,0 0,0 1.67969,0 1.67969,0 0,0 1.91943,-0.72021 1.91943,-0.72021 0,0 1.43994,-0.72022 1.43994,-0.72022 0,0 0.95947,0 0.95947,0 0,0 0.24024,0.24024 0.24024,0.24024 0,0 0.71972,0.23974 0.71972,0.23974 0,0 0.24024,0 0.24024,0 0,0 0.23974,-0.47998 0.23974,-0.47998 0,0 0.71973,-0.95996 0.71973,-0.95996 0,0 0.24024,-0.47998 0.24024,-0.47998 0,0 0.23974,-0.47998 0.23974,-0.47998 0,0 -0.23974,-0.72021 -0.23974,-0.72021 0,0 0.23974,-0.72022 0.23974,-0.72022 0,0 0.71973,-1.43994 0.71973,-1.43994 0,0 1.20019,-2.40039 1.20019,-2.40039 0,0 0.23975,-0.23975 0.23975,-0.23975 0,0 -0.47998,-0.48047 -0.47998,-0.48047 0,0 -0.47998,-0.23974 -0.47998,-0.23974 0,0 0,-0.24024 0,-0.24024 0,0 0,-0.47998 0,-0.47998 0,0 0.24023,-0.47998 0.24023,-0.47998 0,0 0.95948,-0.47998 0.95948,-0.47998 0,0 0.72021,0 0.72021,0 0,0 0.23975,-0.24023 0.23975,-0.24023 0,0 0.95996,-2.40039 0.95996,-2.40039 0,0 1.43945,-2.64014 1.43945,-2.64014 0,0 0.72022,-1.19971 0.72022,-1.19971 0,0 0.47998,-0.96045 0.47998,-0.96045 0,0 1.43945,-0.47998 1.43945,-0.47998 0,0 0,-0.47998 0,-0.47998 0,0 0,-5.28076 0,-5.28076 0,0 0,-0.47998 0,-0.47998 0,0 0,-1.92041 0,-1.92041 0,0 0,-2.3999 0,-2.3999 0,0 0.24023,-2.88037 0.24023,-2.88037 0,0 0,-0.95996 0,-0.95996 0,0 0.23975,-7.20069 0.23975,-7.20069 0,0 0,-5.76074 0,-5.76074 0,0 0,-0.47998 0,-0.47998 0,0 0,-2.16016 0,-2.16016 0,0 0,-0.72021 0,-0.72021 0,0 0,-2.88037 0,-2.88037 0,0 0.24023,-13.20117 0.24023,-13.20117 0,0 0,-0.47998 0,-0.47998 0,0 0,-3.12012 0,-3.12012 0,0 0,-0.24024 0,-0.24024 0,0 0,-2.88037 0,-2.88037 0,0 0.23975,-12.72119 0.23975,-12.72119 0,0 0,-0.24023 0,-0.24023 0,0 0,-0.72022 0,-0.72022 0,0 0,-1.20019 0,-1.20019 0,0 0.23975,-2.64014 0.23975,-2.64014 0,0 0.24023,-12.48144 0.24023,-12.48144 0,0 0,-4.8003 0,-4.8003 0,0 7.43848,0.24024 7.43848,0.24024 0,0 4.31933,0 4.31933,0 0,0 18.71631,0.47998 18.71631,0.47998 0,0 7.19873,0 7.19873,0 0,0 1.67969,0.23974 1.67969,0.23974 0,0 2.63965,0 2.63965,0 0,0 6.71875,0 6.71875,0 0,0 3.11963,0 3.11963,0 0,0 1.1997,0.24024 1.1997,0.24024 0,0 3.59912,0 3.59912,0 0,0 8.63868,0 8.63868,0 0,0 2.87939,0 2.87939,0 0,0 13.4375,0.23974 13.4375,0.23974 0,0 3.59912,0 3.59912,0 0,0 5.51905,0.24024 5.51905,0.24024 0,0 0.72021,0 0.72021,0 0,0 3.83936,0 3.83936,0 0,0 0.95947,0 0.95947,0 0,0 2.3999,0 2.3999,0 0,0 2.39941,0 2.39941,0 0,0 3.35938,0 3.35938,0 0,0 2.87939,0 2.87939,0 0,0 9.11817,0.24023 9.11817,0.24023 0,0 10.07812,0 10.07812,0 0,0 4.31934,0 4.31934,0 0,0 1.19971,0 1.19971,0 0,0 0.24023,0 0.24023,0 0,0 0.23975,0 0.23975,0 0,0 0.47998,0 0.47998,0 0,0 0.47998,0 0.47998,0 0,0 4.0791,0 4.0791,0 0,0 1.91992,0 1.91992,0 0,0 3.35938,0 3.35938,0 0,0 4.31884,0 4.31884,0 0,0 0.47998,0 0.47998,0 0,0 0.95997,0 0.95997,0 0,0 11.27783,0 11.27783,0 0,0 10.31836,0 10.31836,0 0,0 6.95849,0 6.95849,0 0,0 14.63721,0 14.63721,0 0,0 13.19727,0 13.19727,0 0,0 3.12011,0 3.12011,0 0,0 3.35938,0 3.35938,0 0,0 0.47949,0 0.47949,0 0,0 5.51953,0 5.51953,0 0,0 13.91699,0 13.91699,0 0,0 0.24024,0 0.24024,0 0,0 0.48047,0 0.48047,0 0,0 0.23925,0 0.23925,0 0,0 0.24024,0 0.24024,0 0,0 0.23926,0 0.23926,0 0,0 0.24023,0 0.24023,0 0,0 0.24024,0 0.24024,0 0,0 2.39941,0 2.39941,0 0,0 0.71973,0 0.71973,0 0,0 3.59961,0 3.59961,0 0,0 1.43945,0 1.43945,0 0,0 0.24023,0 0.24023,0 0,0 1.67969,0 1.67969,0 0,0 1.91895,0 1.91895,0 0,0 0.24121,0 0.24121,0 0,0 0.71875,0 0.71875,0 0,0 0.71972,0 0.71972,0 0,0 8.15918,0 8.15918,0 0,0 0.24024,0 0.24024,0 0,0 0.47949,0 0.47949,0 0,0 3.59961,-0.24023 3.59961,-0.24023 0,0 2.39941,0 2.39941,0 0,0 0.47949,0 0.47949,0 0,0 27.11524,-0.47998 27.11524,-0.47998 0,0 4.31934,0 4.31934,0 0,0 6.71875,-0.24024 6.71875,-0.24024 0,0 0.48046,0 0.48046,0 0,0 1.43946,0 1.43946,0 0,0 0.47949,0 0.47949,0 0,0 2.87988,0 2.87988,0 0,0 1.43946,0 1.43946,0 0,0 1.67968,0 1.67968,0 0,0 1.67969,-0.23974 1.67969,-0.23974 0,0 0.95996,0 0.95996,0 0,0 0.47949,0 0.47949,0 0,0 0.24024,0.23974 0.24024,0.23974 0,0 1.91992,0.47998 1.91992,0.47998 0,0 0.24023,0 0.24023,0 0,0 2.63868,0 2.63868,0 0,0 1.44043,0 1.44043,0 0,0 1.67871,0 1.67871,0 0,0 1.67968,-0.23974 1.67968,-0.23974 0,0 3.12012,0 3.12012,0 0,0 1.44043,0 1.44043,0 0,0 1.67969,0 1.67969,0 0,0 3.11816,0 3.11816,0 0,0 8.63965,-0.24024 8.63965,-0.24024 0,0 1.19922,0 1.19922,0 0,0 1.43945,0 1.43945,0 0,0 3.11914,-0.23974 3.11914,-0.23974 0,0 1.44043,0 1.44043,0 0,0 1.67969,0 1.67969,0 0,0 1.19922,0 1.19922,0 0,0 0.24023,0 0.24023,0 0,0 0.24024,0 0.24024,0 0,0 3.11914,0 3.11914,0 0,0 1.67969,0 1.67969,0 0,0 5.99902,-0.24024 5.99902,-0.24024 0,0 3.83887,0 3.83887,0 0,0 1.20019,0 1.20019,0 0,0 8.15821,-0.23974 8.15821,-0.23974 0,0 0.47949,0 0.47949,0 0,0 5.99902,-0.24024 5.99902,-0.24024 0,0 0.96094,0 0.96094,0 0,0 6.47851,0 6.47851,0 0,0 0.95996,0 0.95996,0 0,0 0.4795,0 0.4795,0 0,0 9.83789,-0.47998 9.83789,-0.47998 0,0 2.16015,0 2.16015,0 0,0 7.67774,-0.23974 7.67774,-0.23974 0,0 0.24121,0 0.24121,0 0,0 0.23926,0 0.23926,0 0,0 1.43945,0 1.43945,0 0,0 0.48047,0 0.48047,0 0,0 1.43945,0 1.43945,0 0,0 1.67969,-0.24024 1.67969,-0.24024 0,0 4.55957,0 4.55957,0 0,0 0.47949,0 0.47949,0 0,0 1.43946,0 1.43946,0 0,0 1.20019,0 1.20019,0 0,0 4.55957,-0.23974 4.55957,-0.23974 0,0 11.99805,-0.24024 11.99805,-0.24024 0,0 0,3.12012 0,3.12012 0,0 0,1.20019 0,1.20019 0,0 0.23926,6.72071 0.23926,6.72071 0,0 0,2.40039 0,2.40039 0,0 0,0.47998 0,0.47998 0,0 0,0.47998 0,0.47998 0,0 0.24023,0.96045 0.24023,0.96045 0,0 0,4.08008 0,4.08008 0,0 0.23926,5.04052 0.23926,5.04052 0,0 0,0.47998 0,0.47998 0,0 0.24023,7.44092 0.24023,7.44092 0,0 0,2.3999 0,2.3999 0,0 0.24024,7.20069 0.24024,7.20069 0,0 0.24023,9.60107 0.24023,9.60107 0,0 0,2.88037 0,2.88037 0,0 0.24024,2.88037 0.24024,2.88037 0,0 0,5.52051 0,5.52051 0,0 0.23925,4.80078 0.23925,4.80078 0,0 0,2.87989 0,2.87989 0,0 0.24024,4.08056 0.24024,4.08056 0,0 0,3.84033 0,3.84033 0,0 0.23926,2.40039 0.23926,2.40039 0,0 0.24023,8.40088 0.24023,8.40088 0,0 0,3.12012 0,3.12012 0,0 0,1.44043 0,1.44043 0,0 0.24023,2.64014 0.24023,2.64014 0,0 0.23926,12.48144 0.23926,12.48144 0,0 0,3.12012 0,3.12012 0,0 0.24121,5.28076 0.24121,5.28076 0,0 0,1.68018 0,1.68018 0,0 0,1.91992 0,1.91992 0,0 0.23926,0.47998 0.23926,0.47998 0,0 0,0.24023 0,0.24023 0,0 0,0.72022 0,0.72022 0,0 0,5.28027 0,5.28027 0,0 0,0.24024 0,0.24024 0,0 0,0.71972 0,0.71972 0,0 0.24023,1.68018 0.24023,1.68018 0,0 0,3.36035 0,3.36035 0,0 0,2.16064 0,2.16064 0,0 0.23926,3.36036 0.23926,3.36036 0,0 0,1.91992 0,1.91992 0,0 0,1.43994 0,1.43994 0,0 0,3.60059 0,3.60059 0,0 0,0.23974 0,0.23974 0,0 0.24024,2.16065 0.24024,2.16065 0,0 0,2.64013 0,2.64013 0,0 0,0.24024 0,0.24024 0,0 0,0.47998 0,0.47998 0,0 0,0.95996 0,0.95996 0,0 0,0.47998 0,0.47998 0,0 0,1.68018 0,1.68018 0,0 0.24023,1.43994 0.24023,1.43994 0,0 0,0.96045 0,0.96045 0,0 0,0.72021 0,0.72021 0,0 0,0.71973 0,0.71973 0,0 0,0.95996 0,0.95996 0,0 0,0.24023 0,0.24023 0,0 0,2.88037 0,2.88037 0,0 0.24024,1.68018 0.24024,1.68018 0,0 0,1.43994 0,1.43994 0,0 0,1.68018 0,1.68018 0,0 0,1.44043 0,1.44043 0,0 0,1.43994 0,1.43994 0,0 0,1.43994 0,1.43994 0,0 0,0.24023 0,0.24023 0,0 0.24023,1.68018 0.24023,1.68018 0,0 0,0.95996 0,0.95996 0,0 0,2.16064 0,2.16064 0,0 0,0.47999 0,0.47999 0,0 0,0.71972 0,0.71972 0,0 0,0.47998 0,0.47998 0,0 0,0.24024 0,0.24024 0,0 0.23926,2.40039 0.23926,2.40039 0,0 0,0.23974 0,0.23974 0,0 0,0.72022 0,0.72022 0,0 0,0.47998 0,0.47998 0,0 0,0.96045 0,0.96045 0,0 0,1.1997 0,1.1997 0,0 0,1.68018 0,1.68018 0,0 0.24023,1.44043 0.24023,1.44043 0,0 0,1.68018 0,1.68018 0,0 0,1.43994 0,1.43994 0,0 0,1.68017 0,1.68017" /><path
           id="path24"
           style="stroke:#ac7424;stroke-width:0.4799;stroke-linecap:round;stroke-linejoin:round;stroke-miterlimit:3.85000992;stroke-dasharray:none;stroke-opacity:1"
           d="m 899.19824,-773.95264 c 0,0 0,1.68018 0,1.68018 0,0 0,0.47998 0,0.47998 0,0 0.24024,0.96045 0.24024,0.96045 0,0 0,1.67969 0,1.67969 0,0 0,1.68066 0,1.68066 0,0 0,0.95996 0,0.95996 0,0 0.47949,16.08154 0.47949,16.08154 0,0 0.24023,6.48047 0.24023,6.48047 0,0 0.23926,6.00098 0.23926,6.00098 0,0 0,3.84033 0,3.84033 0,0 0,1.2002 0,1.2002 0,0 0.24024,3.36035 0.24024,3.36035 0,0 0,1.43994 0,1.43994 0,0 0,1.68018 0,1.68018 0,0 0,1.68017 0,1.68017 0,0 0,1.43994 0,1.43994 0,0 0.71972,20.88233 0.71972,20.88233 0,0 0,6.24072 0,6.24072 0,0 0.24024,4.80029 0.24024,4.80029 0,0 0.95996,34.0835 0.95996,34.0835 0,0 0.23926,13.4414 0.23926,13.4414 0,0 0.24023,4.80079 0.24023,4.80079 0,0 0.24023,5.04004 0.24023,5.04004 0,0 0.24024,8.6416 0.24024,8.6416 0,0 0.23926,10.56054 0.23926,10.56054 0,0 0,0.24024 0,0.24024 0,0 0,4.08008 0,4.08008 0,0 0.24023,6.7207 0.24023,6.7207 0,0 0,0.48047 0,0.48047 0,0 0.24023,5.28027 0.24023,5.28027 0,0 0,0.95996 0,0.95996 0,0 0,4.32031 0,4.32031 0,0 0,1.44043 0,1.44043 0,0 0.4795,10.80079 0.4795,10.80079 0,0 0,0.48046 0,0.48046 0,0 0,0.71973 0,0.71973 0,0 0,0.48047 0,0.48047 0,0 0,0.95996 0,0.95996 0,0 0,3.36035 0,3.36035 0,0 0.24023,3.83985 0.24023,3.83985 0,0 0,0.24023 0,0.24023 0,0 0,0.48047 0,0.48047 0,0 0,0.24023 0,0.24023 0,0 0,0.23926 0,0.23926 0,0 0.24024,12.48145 0.24024,12.48145 0,0 0.24023,4.56054 0.24023,4.56054 0,0 0.23926,7.68067 0.23926,7.68067 0,0 0,3.36035 0,3.36035 0,0 0,1.68066 0,1.68066 0,0 0,2.39942 0,2.39942 0,0 0,0.24121 0,0.24121 0,0 0.71972,18.48144 0.71972,18.48144 0,0 0.24024,7.68067 0.24024,7.68067 0,0 0,5.52051 0,5.52051 0,0 0,1.20019 0,1.20019 0,0 0.24023,8.16113 0.24023,8.16113 0,0 0,0.23926 0,0.23926 0,0 0,0.48047 0,0.48047 0,0 0,0.47949 0,0.47949 0,0 0.24024,3.84082 0.24024,3.84082 0,0 0.47949,24.00293 0.47949,24.00293 0,0 0.95996,30.72266 0.95996,30.72266 0,0 0,6.24023 0,6.24023 0,0 0,0.48047 0,0.48047 0,0 0,1.44043 0,1.44043 0,0 0.24024,4.79981 0.24024,4.79981 0,0 0,1.44043 0,1.44043 0,0 0.23925,10.32128 0.23925,10.32128 0,0 0.24024,5.28028 0.24024,5.28028 0,0 0,1.20019 0,1.20019 0,0 0,1.9209 0,1.9209 0,0 0,3.59961 0,3.59961 0,0 0,1.44043 0,1.44043 0,0 0.47949,17.52149 0.47949,17.52149 0,0 0.47949,14.88183 0.47949,14.88183 0,0 0,0.23926 0,0.23926 0,0 0,1.9209 0,1.9209 0,0 0.48047,16.32129 0.48047,16.32129 0,0 -21.5957,0.24023 -21.5957,0.24023 0,0 -1.91992,0 -1.91992,0 0,0 -2.16016,0.24024 -2.16016,0.24024 0,0 -16.07715,0.24023 -16.07715,0.24023 0,0 -0.95898,0 -0.95898,0 0,0 -0.72071,0 -0.72071,0 0,0 -1.43945,0 -1.43945,0 0,0 -0.24023,0 -0.24023,0 0,0 -0.71875,0.24023 -0.71875,0.24023 0,0 -0.24024,0 -0.24024,0 0,0 -0.47949,0 -0.47949,0 0,0 -0.48047,0 -0.48047,0 0,0 -0.95996,0 -0.95996,0 0,0 -0.24023,0 -0.24023,0 0,0 -0.24024,0 -0.24024,0 0,0 -0.23926,0 -0.23926,0 0,0 -0.95996,0 -0.95996,0 0,0 -3.59961,0 -3.59961,0 0,0 -16.55664,0.4795 -16.55664,0.4795 0,0 -3.35937,0 -3.35937,0 0,0 -3.59961,0 -3.59961,0 0,0 -4.55957,0.24023 -4.55957,0.24023 0,0 -3.83887,0 -3.83887,0 0,0 -4.0791,0 -4.0791,0 0,0 -0.23926,0 -0.23926,0 0,0 -12.47851,0.24024 -12.47851,0.24024 0,0 -0.4795,0 -0.4795,0 0,0 -5.99902,0 -5.99902,0 0,0 -23.99512,0.47949 -23.99512,0.47949 0,0 -15.11719,0.24023 -15.11719,0.24023 0,0 -9.35839,0 -9.35839,0 0,0 -3.59961,0 -3.59961,0 0,0 -1.67969,0 -1.67969,0 0,0 -1.67969,0.23926 -1.67969,0.23926 0,0 -1.91992,0 -1.91992,0 0,0 -3.11914,0 -3.11914,0 0,0 -3.83887,0 -3.83887,0 0,0 -2.16015,0 -2.16015,0 0,0 -2.63965,0.24121 -2.63965,0.24121 0,0 -0.24024,0 -0.24024,0 0,0 -1.91894,0 -1.91894,0 0,0 -1.2002,0 -1.2002,0 0,0 -2.16015,0 -2.16015,0 0,0 -6.95801,0 -6.95801,0 0,0 -4.79981,-1.68066 -4.79981,-1.68066 0,0 -22.55566,-8.40039 -22.55566,-8.40039 0,0 -18.23633,-6.72071 -18.23633,-6.72071 0,0 -5.75879,-2.16113 -5.75879,-2.16113 0,0 -33.354,-12.24121 -33.354,-12.24121 0,0 -24.95557,-9.12109 -24.95557,-9.12109 0,0 -11.03808,-4.07911 -11.03808,-4.07911 0,0 -0.4795,-0.24121 -0.4795,-0.24121 0,0 -0.47998,0 -0.47998,0 0,0 -1.1997,-0.47949 -1.1997,-0.47949 0,0 -0.24024,-0.24023 -0.24024,-0.24023 0,0 -0.95996,-0.23926 -0.95996,-0.23926 0,0 -11.75781,-4.32129 -11.75781,-4.32129 0,0 -7.43848,-2.87988 -7.43848,-2.87988 0,0 -22.31592,-8.16114 -22.31592,-8.16114 0,0 -1.91943,-0.71972 -1.91943,-0.71972 0,0 -23.9956,-8.6416 -23.9956,-8.6416 0,0 -8.39893,-3.35938 -8.39893,-3.35938 0,0 -10.79785,-4.08105 -10.79785,-4.08105 0,0 -14.87744,-5.76075 -14.87744,-5.76075 0,0 -23.75537,-9.12109 -23.75537,-9.12109 0,0 -2.8794,-0.95898 -2.8794,-0.95898 0,0 -24.23584,-9.36133 -24.23584,-9.36133 0,0 -18.95654,-7.44141 -18.95654,-7.44141 0,0 -23.03565,-8.87988 -23.03565,-8.87988 0,0 -5.75879,-2.16113 -5.75879,-2.16113 0,0 -6.71923,-2.63965 -6.71923,-2.63965 0,0 -7.43799,-2.87989 -7.43799,-2.87989 0,0 -3.35938,-1.20117 -3.35938,-1.20117 0,0 -2.64013,-0.95996 -2.64013,-0.95996 0,0 -2.8794,-1.20019 -2.8794,-1.20019 0,0 0,-0.24024 0,-0.24024 0,0 0.24024,-0.23926 0.24024,-0.23926 0,0 -0.24024,-0.48046 -0.24024,-0.48046 0,0 0,-0.24024 0,-0.24024 0,0 0.24024,-0.24023 0.24024,-0.24023 0,0 0.23974,0 0.23974,0 0,0 0.24024,0 0.24024,0 0,0 0,-0.23926 0,-0.23926 0,0 0.23974,-0.24024 0.23974,-0.24024 0,0 0,-0.24023 0,-0.24023 0,0 0,-0.23926 0,-0.23926 0,0 -0.47998,-0.48047 -0.47998,-0.48047 0,0 -0.23974,-0.24023 -0.23974,-0.24023 0,0 0.23974,-0.47949 0.23974,-0.47949 0,0 0.24024,-0.48047 0.24024,-0.48047 0,0 0.47998,-0.47949 0.47998,-0.47949 0,0 0,-0.24024 0,-0.24024 0,0 -0.24024,-0.24023 -0.24024,-0.24023 0,0 0,-0.48047 0,-0.48047 0,0 0,-0.23926 0,-0.23926 0,0 0.24024,0 0.24024,0 0,0 0.71972,-0.24023 0.71972,-0.24023 0,0 0,-0.24024 0,-0.24024 0,0 0.23975,0 0.23975,0 0,0 0,-0.24023 0,-0.24023 0,0 0,-0.24024 0,-0.24024 0,0 0,-0.24023 0,-0.24023 0,0 0,-0.23926 0,-0.23926 0,0 -0.23975,-0.24023 -0.23975,-0.24023 0,0 -0.24023,-0.24024 -0.24023,-0.24024 0,0 -0.47949,0.24024 -0.47949,0.24024 0,0 -0.47998,0 -0.47998,0 0,0 -0.24024,-0.24024 -0.24024,-0.24024 0,0 0,-0.24023 0,-0.24023 0,0 0.24024,-0.24024 0.24024,-0.24024 0,0 0.47998,-0.47949 0.47998,-0.47949 0,0 0.23974,-0.24023 0.23974,-0.24023 0,0 0,-0.23926 0,-0.23926 0,0 -0.23974,-0.24121 -0.23974,-0.24121 0,0 0,-0.23926 0,-0.23926 0,0 0,-0.24023 0,-0.24023 0,0 0.23974,-0.23926 0.23974,-0.23926 0,0 0.23975,-0.48145 0.23975,-0.48145 0,0 0,-0.23926 0,-0.23926 0,0 -0.23975,-0.47949 -0.23975,-0.47949 0,0 0,-0.24023 0,-0.24023 0,0 -0.47998,0 -0.47998,0 0,0 0,-0.24024 0,-0.24024 0,0 -0.23974,-0.71972 -0.23974,-0.71972 0,0 0,-0.96094 0,-0.96094 0,0 0.23974,-0.47949 0.23974,-0.47949 0,0 0.71973,-0.24024 0.71973,-0.24024 0,0 0.24023,0 0.24023,0 0,0 0.23975,0.24024 0.23975,0.24024 0,0 0.24023,0 0.24023,0 0,0 0.95948,-0.24024 0.95948,-0.24024 0,0 0,-0.48047 0,-0.48047 0,0 0,-0.23925 0,-0.23925 0,0 0.24023,-0.24024 0.24023,-0.24024 0,0 0.47998,-0.24023 0.47998,-0.24023 0,0 0.71973,-0.48047 0.71973,-0.48047 0,0 0.23974,-0.24024 0.23974,-0.24024 0,0 0,-0.23925 0,-0.23925 0,0 0,-0.24024 0,-0.24024 0,0 0,-0.23926 0,-0.23926 0,0 0.48047,-0.7207 0.48047,-0.7207 0,0 0.4795,-0.24023 0.4795,-0.24023 0,0 0.72021,-0.71973 0.72021,-0.71973 0,0 0,-0.24023 0,-0.24023 0,0 0,-0.24024 0,-0.24024 0,0 0.23975,-0.23926 0.23975,-0.23926 0,0 0,-0.7207 0,-0.7207 0,0 1.43994,-2.16016 1.43994,-2.16016 0,0 0,-0.24023 0,-0.24023 0,0 0,-0.48047 0,-0.48047 0,0 0.71972,-0.95996 0.71972,-0.95996 0,0 0.23975,-0.47949 0.23975,-0.47949 0,0 0.24023,-0.24024 0.24023,-0.24024 0,0 0.23975,-0.71972 0.23975,-0.71972 0,0 0,-0.24024 0,-0.24024 0,0 0.95996,-1.20019 0.95996,-1.20019 0,0 0.23975,-0.47949 0.23975,-0.47949 0,0 0.24023,0 0.24023,0 0,0 0.95947,0.95996 0.95947,0.95996 0,0 0.47999,0 0.47999,0 0,0 0.47998,0 0.47998,0 0,0 0.23974,0 0.23974,0 0,0 0.72022,0.24023 0.72022,0.24023 0,0 0.23974,0 0.23974,0 0,0 0.71973,0.23926 0.71973,0.23926 0,0 0.96045,0 0.96045,0 0,0 0.23926,0 0.23926,0 0,0 0.24023,0.24023 0.24023,0.24023 0,0 0.23975,0 0.23975,0 0,0 0.72021,0 0.72021,0 0,0 0.71973,0.24024 0.71973,0.24024 0,0 0.47998,0.24023 0.47998,0.24023 0,0 0.24023,-0.24023 0.24023,-0.24023 0,0 0.23975,-0.48047 0.23975,-0.48047 0,0 2.87939,0 2.87939,0 0,0 0,-0.95996 0,-0.95996 0,0 1.67969,0.24023 1.67969,0.24023 0,0 0,-0.95996 0,-0.95996 0,0 1.19971,0 1.19971,0 0,0 1.19971,0 1.19971,0 0,0 0,-0.7207 0,-0.7207 0,0 1.1997,0 1.1997,0 0,0 -0.23974,-0.95899 -0.23974,-0.95899 0,0 -0.24024,-0.96093 -0.24024,-0.96093 0,0 0,-0.23926 0,-0.23926 0,0 0,-0.48047 0,-0.48047 0,0 0,-0.95996 0,-0.95996 0,0 0.24024,-0.24024 0.24024,-0.24024 0,0 0,-0.48046 0,-0.48046 0,0 0.71972,-0.4795 0.71972,-0.4795 0,0 0.24024,-0.24023 0.24024,-0.24023 0,0 0,-0.24024 0,-0.24024 0,0 0.47949,-0.48046 0.47949,-0.48046 0,0 0,-0.23926 0,-0.23926 0,0 0.47998,-0.48047 0.47998,-0.48047 0,0 0.72021,-0.24023 0.72021,-0.24023 0,0 0.4795,-0.23926 0.4795,-0.23926 0,0 0.24023,-0.24024 0.24023,-0.24024 0,0 0.47998,-0.24023 0.47998,-0.24023 0,0 0.71973,-0.7207 0.71973,-0.7207 0,0 0.47998,-0.4795 0.47998,-0.4795 0,0 0.72021,-0.71972 0.72021,-0.71972 0,0 0.4795,-3.36035 0.4795,-3.36035 0,0 0,-0.48047 0,-0.48047 0,0 0,-0.24024 0,-0.24024 0,0 0.23974,-2.15918 0.23974,-2.15918 0,0 0,-0.24121 0,-0.24121 0,0 0,-0.47949 0,-0.47949 0,0 0,-0.47949 0,-0.47949 0,0 -0.95947,-0.95996 -0.95947,-0.95996 0,0 -0.23975,-0.24024 -0.23975,-0.24024 0,0 -0.24023,-0.48047 -0.24023,-0.48047 0,0 -0.24024,-0.7207 -0.24024,-0.7207 0,0 0.24024,-0.23926 0.24024,-0.23926 0,0 0,-0.48047 0,-0.48047 0,0 0.47998,-0.47949 0.47998,-0.47949 0,0 0.24023,-0.48047 0.24023,-0.48047 0,0 0,-0.48047 0,-0.48047 0,0 0,-0.23925 0,-0.23925 0,0 0,-0.24024 0,-0.24024 0,0 0,-0.24023 0,-0.24023 0,0 0,-0.23926 0,-0.23926 0,0 0,-0.24121 0,-0.24121 0,0 -0.24023,-0.47949 -0.24023,-0.47949 0,0 -0.23975,-0.24024 -0.23975,-0.24024 0,0 -0.24023,0 -0.24023,0 0,0 -0.71973,0.24024 -0.71973,0.24024 0,0 -0.23974,0 -0.23974,0 0,0 -0.24024,-0.24024 -0.24024,-0.24024 0,0 0,-0.23926 0,-0.23926 0,0 -0.24023,-0.7207 -0.24023,-0.7207 0,0 0,-1.20019 0,-1.20019 0,0 -0.23975,-1.44043 -0.23975,-1.44043 0,0 -0.24023,-0.4795 -0.24023,-0.4795 0,0 0,-0.24023 0,-0.24023 0,0 -0.23975,-0.23926 -0.23975,-0.23926 0,0 0,-0.24121 0,-0.24121 0,0 0,-0.23926 0,-0.23926 0,0 -0.23975,0 -0.23975,0 0,0 -0.23974,-0.71972 -0.23974,-0.71972 0,0 -0.48047,-0.24121 -0.48047,-0.24121 0,0 0,-0.23926 0,-0.23926" /></g></g></g></svg>
