<?xml version="1.0" encoding="UTF-8" standalone="no"?>
<svg
   xmlns:dc="http://purl.org/dc/elements/1.1/"
   xmlns:cc="http://creativecommons.org/ns#"
   xmlns:rdf="http://www.w3.org/1999/02/22-rdf-syntax-ns#"
   xmlns:svg="http://www.w3.org/2000/svg"
   xmlns="http://www.w3.org/2000/svg"
   viewBox="0 0 1729.3333 1728"
   height="1728"
   width="1729.3333"
   xml:space="preserve"
   id="svg2"
   version="1.1"><metadata
     id="metadata8"><rdf:RDF><cc:Work
         rdf:about=""><dc:format>image/svg+xml</dc:format><dc:type
           rdf:resource="http://purl.org/dc/dcmitype/StillImage" /><dc:title></dc:title></cc:Work></rdf:RDF></metadata><defs
     id="defs6"><clipPath
       id="clipPath18"
       clipPathUnits="userSpaceOnUse"><path
         id="path16"
         d="m 357.61719,-267.02148 c 0,0 0,-750.79592 0,-750.79592 0,0 573.25488,0 573.25488,0 0,0 0,750.79592 0,750.79592 0,0 -573.25488,0 -573.25488,0 z" /></clipPath><clipPath
       id="clipPath30"
       clipPathUnits="userSpaceOnUse"><path
         id="path28"
         d="m 357.61719,-267.02148 c 0,0 0,-750.79592 0,-750.79592 0,0 573.25488,0 573.25488,0 0,0 0,750.79592 0,750.79592 0,0 -573.25488,0 -573.25488,0 z" /></clipPath><clipPath
       id="clipPath72"
       clipPathUnits="userSpaceOnUse"><path
         id="path70"
         d="m 954.3877,-1043.5 c 0,0 0,792 0,792 0,0 -611.8877,0 -611.8877,0 0,0 0,-792 0,-792 0,0 611.8877,0 611.8877,0 z" /></clipPath></defs><g
     transform="matrix(1.3333333,0,0,-1.3333333,0,1728)"
     id="g10"><g
       transform="scale(1,-1)"
       id="g12"><g
         clip-path="url(#clipPath18)"
         id="g14"><path
           id="path20"
           style="fill-opacity:1;fill-rule:nonzero;stroke:none"
           d="m 583.41602,-876.20313 c 0,0 -4.07959,-2.40039 -4.07959,-2.40039 0,0 -0.95948,-1.67968 -0.95948,-1.67968 0,0 -0.47998,-3.60059 -0.47998,-3.60059 0,0 5.27881,4.08057 5.27881,4.08057 0,0 0.24024,3.60009 0.24024,3.60009 z m 3.59912,-11.04101 c 0,0 -2.39942,0.23975 -2.39942,0.23975 0,0 -0.24023,-0.23975 -0.24023,-0.23975 0,0 -1.91944,-3.84033 -1.91944,-3.84033 0,0 -1.43994,-4.8003 -1.43994,-4.8003 0,0 0.24024,-1.44043 0.24024,-1.44043 0,0 4.0791,-1.43994 4.0791,-1.43994 0,0 0.24023,-0.24023 0.24023,-0.24023 0,0 0.23975,0.47998 0.23975,0.47998 0,0 -0.23975,2.40039 -0.23975,2.40039 0,0 0.4795,3.36035 0.4795,3.36035 0,0 0.47998,2.40039 0.47998,2.40039 0,0 -0.23975,1.43994 -0.23975,1.43994 0,0 0.23975,1.2002 0.23975,1.2002 0,0 0.47998,0.47998 0.47998,0.47998 z M 509.50928,-737.229 c 0,0 0,-0.23975 0,-0.23975 0,0 0,-1.92041 0,-1.92041 0,0 -1.19971,-21.12207 -1.19971,-21.12207 0,0 -0.47998,-6.7207 -0.47998,-6.7207 0,0 -0.23975,-4.08057 -0.23975,-4.08057 0,0 -0.24023,-5.04004 -0.24023,-5.04004 0,0 -1.19971,-18.72217 -1.19971,-18.72217 0,0 -0.71972,-14.40136 -0.71972,-14.40136 0,0 -0.71973,-9.84131 -0.71973,-9.84131 0,0 -0.47998,-7.44043 -0.47998,-7.44043 0,0 -1.43994,-26.1626 -1.43994,-26.1626 0,0 0,-0.24023 0,-0.24023 0,0 0,-0.47999 0,-0.47999 0,0 -0.47998,-6.96093 -0.47998,-6.96093 0,0 -0.71973,-10.56104 -0.71973,-10.56104 0,0 0,-2.64013 0,-2.64013 0,0 -0.23975,-2.16016 -0.23975,-2.16016 0,0 0,-1.68018 0,-1.68018 0,0 -0.24023,-2.40039 -0.24023,-2.40039 0,0 0,-2.88037 0,-2.88037 0,0 -0.23975,-4.80029 -0.23975,-4.80029 0,0 -0.24023,-2.16016 -0.24023,-2.16016 0,0 -0.23975,-5.28076 -0.23975,-5.28076 0,0 -0.23974,-4.32031 -0.23974,-4.32031 0,0 -0.24024,-3.36035 -0.24024,-3.36035 0,0 0,-0.47998 0,-0.47998 0,0 0,-2.16016 0,-2.16016 0,0 -0.23974,-3.36035 -0.23974,-3.36035 0,0 0,-1.43994 0,-1.43994 0,0 0,-0.96045 0,-0.96045 0,0 0,-0.95996 0,-0.95996 0,0 -0.24024,-0.72022 -0.24024,-0.72022 0,0 0.24024,-0.95996 0.24024,-0.95996 0,0 0,-5.52051 0,-5.52051 0,0 0,-2.40039 0,-2.40039 0,0 0,-0.95996 0,-0.95996 0,0 0,-0.48047 0,-0.48047 0,0 0,-0.71972 0,-0.71972 0,0 0,-0.47998 0,-0.47998 0,0 0,-6.00049 0,-6.00049 0,0 0,-0.48047 0,-0.48047 0,0 0,-2.40039 0,-2.40039 0,0 0,-9.36035 0,-9.36035 0,0 0,-1.2002 0,-1.2002 0,0 5.75879,-0.24023 5.75879,-0.24023 0,0 0.23974,-0.95996 0.23974,-0.95996 0,0 2.15967,-5.28077 2.15967,-5.28077 0,0 0.47998,-1.1997 0.47998,-1.1997 0,0 2.15967,-4.56055 2.15967,-4.56055 0,0 2.15967,-4.08057 2.15967,-4.08057 0,0 0.47998,-0.95996 0.47998,-0.95996 0,0 0.71972,-1.20019 0.71972,-1.20019 0,0 1.67969,-2.40039 1.67969,-2.40039 0,0 0,-0.24024 0,-0.24024 0,0 0.47998,-0.47998 0.47998,-0.47998 0,0 0.47998,-0.71972 0.47998,-0.71972 0,0 0.95947,-1.44043 0.95947,-1.44043 0,0 0.24024,-0.23975 0.24024,-0.23975 0,0 0.71973,-0.72021 0.71973,-0.72021 0,0 0.24023,-0.47999 0.24023,-0.47999 0,0 0.71973,-0.96044 0.71973,-0.96044 0,0 0.95996,-0.95997 0.95996,-0.95997 0,0 1.43945,-1.68017 1.43945,-1.68017 0,0 1.19971,-1.43994 1.19971,-1.43994 0,0 0.72021,-0.72022 0.72021,-0.72022 0,0 0.23975,-0.23974 0.23975,-0.23974 0,0 0.23974,-0.24024 0.23974,-0.24024 0,0 0.72022,-0.72021 0.72022,-0.72021 0,0 0.47998,-0.47998 0.47998,-0.47998 0,0 0.47949,-0.47998 0.47949,-0.47998 0,0 0.24024,-0.23975 0.24024,-0.23975 0,0 0.71972,-0.7207 0.71972,-0.7207 0,0 3.11963,-2.63965 3.11963,-2.63965 0,0 0.95996,-0.96045 0.95996,-0.96045 0,0 0.47949,-0.47998 0.47949,-0.47998 0,0 1.2002,-0.95996 1.2002,-0.95996 0,0 2.63916,-1.92041 2.63916,-1.92041 0,0 2.63965,-1.91992 2.63965,-1.91992 0,0 0.47998,-0.24024 0.47998,-0.24024 0,0 1.19971,-0.72021 1.19971,-0.72021 0,0 0.71972,-0.47998 0.71972,-0.47998 0,0 0.24024,0 0.24024,0 0,0 1.43945,-0.95996 1.43945,-0.95996 0,0 5.03906,-2.64014 5.03906,-2.64014 0,0 1.43994,-0.72022 1.43994,-0.72022 0,0 0.47998,-0.24023 0.47998,-0.24023 0,0 6.23877,-2.64014 6.23877,-2.64014 0,0 2.39942,-0.95996 2.39942,-0.95996 0,0 6.71875,-1.68017 6.71875,-1.68017 0,0 7.91846,-1.68018 7.91846,-1.68018 0,0 0.72021,0 0.72021,0 0,0 5.27881,-0.48047 5.27881,-0.48047 0,0 3.59961,-0.2397 3.59961,-0.2397 0,0 6.23877,0.2397 6.23877,0.2397 0,0 4.79883,0 4.79883,0 0,0 0.47998,0 0.47998,0 0,0 7.91894,0.96045 7.91894,0.96045 0,0 2.39942,0.47998 2.39942,0.47998 0,0 4.79882,0.95996 4.79882,0.95996 0,0 2.39991,0.72022 2.39991,0.72022 0,0 4.31884,1.43994 4.31884,1.43994 0,0 2.87989,1.20019 2.87989,1.20019 0,0 0.23974,0 0.23974,0 0,0 3.59912,1.44043 3.59912,1.44043 0,0 1.43995,0.47998 1.43995,0.47998 0,0 1.91992,0.95996 1.91992,0.95996 0,0 0.23974,0.24024 0.23974,0.24024 0,0 0.23975,0 0.23975,0 0,0 0.95996,0.72021 0.95996,0.72021 0,0 5.03906,2.64014 5.03906,2.64014 0,0 0,0.23975 0,0.23975 0,0 1.19971,0.48047 1.19971,0.48047 0,0 2.15967,1.1997 2.15967,1.1997 0,0 4.79931,3.60059 4.79931,3.60059 0,0 3.59913,2.88037 3.59913,2.88037 0,0 -7.91846,4.08008 -7.91846,4.08008 0,0 -3.59912,1.68017 -3.59912,1.68017 0,0 -0.47998,0.24024 -0.47998,0.24024 0,0 -2.15967,2.3999 -2.15967,2.3999 0,0 -1.91992,2.16064 -1.91992,2.16064 0,0 0.24023,0.23975 0.24023,0.23975 0,0 0.23975,0.24024 0.23975,0.24024 0,0 -1.91944,2.16015 -1.91944,2.16015 0,0 -2.63964,1.43994 -2.63964,1.43994 0,0 -0.95997,1.44043 -0.95997,1.44043 0,0 -0.47998,0.72022 -0.47998,0.72022 0,0 0,1.43994 0,1.43994 0,0 -0.71972,2.3999 -0.71972,2.3999 0,0 -0.47998,1.44043 -0.47998,1.44043 0,0 -0.95948,3.36035 -0.95948,3.36035 0,0 -0.47998,0.96045 -0.47998,0.96045 0,0 -0.72021,1.19971 -0.72021,1.19971 0,0 -0.71973,1.44043 -0.71973,1.44043 0,0 0,0.47998 0,0.47998 0,0 -0.23974,0.95996 -0.23974,0.95996 0,0 -0.24024,0.95996 -0.24024,0.95996 0,0 0,1.2002 0,1.2002 0,0 -0.71972,1.92041 -0.71972,1.92041 0,0 0,2.16015 0,2.16015 0,0 0.23974,0.95996 0.23974,0.95996 0,0 -0.47949,1.68018 -0.47949,1.68018 0,0 -0.47998,0.47998 -0.47998,0.47998 0,0 -0.95996,-0.24023 -0.95996,-0.24023 0,0 -0.23975,-0.23975 -0.23975,-0.23975 0,0 -0.24023,-0.23975 -0.24023,-0.23975 0,0 -0.71973,-0.24023 -0.71973,-0.24023 0,0 -1.43994,0.47998 -1.43994,0.47998 0,0 -0.95947,1.92041 -0.95947,1.92041 0,0 -0.47998,0.95996 -0.47998,0.95996 0,0 -0.24024,0.95996 -0.24024,0.95996 0,0 -1.19971,2.64063 -1.19971,2.64063 0,0 -2.87939,1.67968 -2.87939,1.67968 0,0 -1.19971,0.48047 -1.19971,0.48047 0,0 -0.71972,1.2002 -0.71972,1.2002 0,0 -0.24024,3.83984 -0.24024,3.83984 0,0 0,0.24024 0,0.24024 0,0 -7.43847,-3.12012 -7.43847,-3.12012 0,0 -0.24024,0.47998 -0.24024,0.47998 0,0 -1.19971,1.68017 -1.19971,1.68017 0,0 -2.39941,3.36036 -2.39941,3.36036 0,0 -1.67969,2.40039 -1.67969,2.40039 0,0 -4.55908,6.48047 -4.55908,6.48047 0,0 -1.91992,2.64013 -1.91992,2.64013 0,0 0,0.24024 0,0.24024 0,0 -0.23975,0.23974 -0.23975,0.23974 0,0 -3.83935,1.2002 -3.83935,1.2002 0,0 -0.47998,0 -0.47998,0 0,0 -3.35938,0.95996 -3.35938,0.95996 0,0 -1.67969,0.48047 -1.67969,0.48047 0,0 -0.71972,1.20019 -0.71972,1.20019 0,0 -1.19971,1.67969 -1.19971,1.67969 0,0 -3.11963,4.56055 -3.11963,4.56055 0,0 -4.31933,6.7207 -4.31933,6.7207 0,0 -0.47998,0.48047 -0.47998,0.48047 0,0 0,0.23975 0,0.23975 0,0 -0.23975,0.95996 -0.23975,0.95996 0,0 -0.47998,1.20019 -0.47998,1.20019 0,0 0.24023,0.72022 0.24023,0.72022 0,0 0.4795,0.71972 0.4795,0.71972 0,0 -0.23975,0.24024 -0.23975,0.24024 0,0 0.23975,2.64062 0.23975,2.64062 0,0 -0.23975,0.23975 -0.23975,0.23975 0,0 0,0.24023 0,0.24023 0,0 0.71973,4.32032 0.71973,4.32032 0,0 2.63964,3.60058 2.63964,3.60058 0,0 0.47998,0.47949 0.47998,0.47949 0,0 0.47999,0.24024 0.47999,0.24024 0,0 3.83935,2.40039 3.83935,2.40039 0,0 0,0.23974 0,0.23974 0,0 1.67969,1.2002 1.67969,1.2002 0,0 0.23974,0.24023 0.23974,0.24023 0,0 0,0.47999 0,0.47999 0,0 0.24024,0.24023 0.24024,0.24023 0,0 5.51855,5.28027 5.51855,5.28027 0,0 0.24024,0.23975 0.24024,0.23975 0,0 2.87939,2.40039 2.87939,2.40039 0,0 -0.23974,0.72021 -0.23974,0.72021 0,0 -0.24024,0.47998 -0.24024,0.47998 0,0 -0.47998,0.72022 -0.47998,0.72022 0,0 -1.43945,8.64062 -1.43945,8.64062 0,0 0,0.72022 0,0.72022 0,0 -0.24024,5.76074 -0.24024,5.76074 0,0 3.59961,3.36035 3.59961,3.36035 0,0 -2.3999,5.76026 -2.3999,5.76026 0,0 -3.35937,-0.23975 -3.35937,-0.23975 0,0 -0.23975,0 -0.23975,0 0,0 -2.39941,3.6001 -2.39941,3.6001 0,0 -1.91993,2.64062 -1.91993,2.64062 0,0 0,0.47998 0,0.47998 0,0 -1.67968,6.48047 -1.67968,6.48047 0,0 -0.23975,1.2002 -0.23975,1.2002 0,0 0,0.72021 0,0.72021 0,0 1.19971,7.68067 1.19971,7.68067 0,0 0.23974,0.72021 0.23974,0.72021 0,0 3.35938,4.8003 3.35938,4.8003 0,0 0.24023,0.95996 0.24023,0.95996 0,0 0.23975,0.47998 0.23975,0.47998 0,0 2.87939,2.64062 2.87939,2.64062 0,0 0,0.71973 0,0.71973 0,0 -0.23974,0.96045 -0.23974,0.96045 0,0 5.99902,4.08056 5.99902,4.08056 0,0 6.47852,6.72022 6.47852,6.72022 0,0 0.95996,3.60058 0.95996,3.60058 0,0 4.79931,8.64112 4.79931,8.64112 0,0 0.71973,1.67969 0.71973,1.67969 0,0 3.11963,10.56152 3.11963,10.56152 0,0 0.23975,0.23974 0.23975,0.23974 0,0 0.23974,0.24024 0.23974,0.24024 0,0 2.3999,3.12012 2.3999,3.12012 0,0 4.31885,2.16015 4.31885,2.16015 0,0 0.95996,1.2002 0.95996,1.2002 0,0 -0.95996,2.64013 -0.95996,2.64013 0,0 0.47998,0.48047 0.47998,0.48047 0,0 0.47998,0.71973 0.47998,0.71973 0,0 0.47998,0.72021 0.47998,0.72021 0,0 3.83936,2.64014 3.83936,2.64014 0,0 0,0.24024 0,0.24024 0,0 4.0791,2.88037 4.0791,2.88037 0,0 3.35937,1.1997 3.35937,1.1997 0,0 8.1587,7.20118 8.1587,7.20118 0,0 0.71972,1.91992 0.71972,1.91992 0,0 0.47998,5.76074 0.47998,5.76074 0,0 0,0.47998 0,0.47998 0,0 2.8794,5.76074 2.8794,5.76074 0,0 7.43896,9.84082 7.43896,9.84082 0,0 1.91944,4.8003 1.91944,4.8003 0,0 -0.71973,4.3208 -0.71973,4.3208 0,0 0,0.23974 0,0.23974 0,0 -0.24023,0.95996 -0.24023,0.95996 0,0 0,9.60108 0,9.60108 0,0 0.47998,0.47998 0.47998,0.47998 0,0 2.87939,3.1206 2.87939,3.1206 0,0 1.43994,5.76026 1.43994,5.76026 0,0 -0.71972,7.9209 -0.71972,7.9209 0,0 -1.43995,0.72021 -1.43995,0.72021 0,0 -0.47998,0 -0.47998,0 0,0 -3.11914,5.76074 -3.11914,5.76074 0,0 -0.95996,9.12061 -0.95996,9.12061 0,0 0.71973,6.24072 0.71973,6.24072 0,0 2.87939,26.40283 2.87939,26.40283 0,0 -0.23974,10.56153 -0.23974,10.56153 0,0 0.71972,0.71972 0.71972,0.71972 0,0 1.67969,3.12012 1.67969,3.12012 0,0 -0.23975,0.7207 -0.23975,0.7207 0,0 3.11866,3.11914 3.11866,3.11914 0,0 3.12011,1.20118 3.12011,1.20118 0,0 8.6377,7.91992 8.6377,7.91992 0,0 4.32031,3.84082 4.32031,3.84082 0,0 1.67969,2.16015 1.67969,2.16015 0,0 8.63769,15.60157 8.63769,15.60157 0,0 1.44043,3.60058 1.44043,3.60058 0,0 1.19922,6.24121 1.19922,6.24121 0,0 -0.48047,8.16016 -0.48047,8.16016 0,0 0,0.95996 0,0.95996 0,0 0.24122,1.44043 0.24122,1.44043 0,0 0,0.24024 0,0.24024 0,0 0.23925,0.47949 0.23925,0.47949 0,0 3.35938,2.64062 3.35938,2.64062 0,0 -3.59863,6.96094 -3.59863,6.96094 0,0 3.11816,5.76074 3.11816,5.76074 0,0 4.56055,5.04004 4.56055,5.04004 0,0 4.79882,5.28027 4.79882,5.28027 0,0 6.23829,6.96094 6.23829,6.96094 0,0 0,0.23926 0,0.23926 0,0 8.63867,11.52148 8.63867,11.52148 0,0 0.71972,0.96094 0.71972,0.96094 0,0 1.44043,2.15918 1.44043,2.15918 0,0 0.95899,1.2002 0.95899,1.2002 0,0 1.20019,1.20019 1.20019,1.20019 0,0 0.71973,0.48047 0.71973,0.48047 0,0 0.48047,0.71973 0.48047,0.71973 0,0 7.91797,7.68164 7.91797,7.68164 0,0 5.51953,8.16015 5.51953,8.16015 0,0 11.27734,7.44141 11.27734,7.44141 0,0 0.48047,0.24023 0.48047,0.24023 0,0 0.23926,0.23926 0.23926,0.23926 0,0 3.35937,1.44043 3.35937,1.44043 0,0 2.63965,0.95996 2.63965,0.95996 0,0 3.59961,1.44043 3.59961,1.44043 0,0 7.91797,-0.24023 7.91797,-0.24023 0,0 2.87988,-1.44043 2.87988,-1.44043 0,0 3.11914,-1.44043 3.11914,-1.44043 0,0 1.2002,-2.63965 1.2002,-2.63965 0,0 0.23926,0 0.23926,0 0,0 -0.23926,0 -0.23926,0 0,0 -0.48047,-1.9209 -0.48047,-1.9209 0,0 -0.71973,-2.40039 -0.71973,-2.40039 0,0 1.2002,-0.47949 1.2002,-0.47949 0,0 0.23926,0.24023 0.23926,0.24023 0,0 1.44043,3.12012 1.44043,3.12012 0,0 2.8789,12.00098 2.8789,12.00098 0,0 0.72071,10.80078 0.72071,10.80078 0,0 0.23925,2.88086 0.23925,2.88086 0,0 0,0.95996 0,0.95996 0,0 0.24024,1.9209 0.24024,1.9209 0,0 0.47949,2.63965 0.47949,2.63965 0,0 0,0.96093 0,0.96093 0,0 0,0.4795 0,0.4795 0,0 0.95996,6.24121 0.95996,6.24121 0,0 0.71973,4.7998 0.71973,4.7998 0,0 0.24023,1.2002 0.24023,1.2002 0,0 0.95996,7.9209 0.95996,7.9209 0,0 0.24024,1.67968 0.24024,1.67968 0,0 0.23926,1.68067 0.23926,1.68067 0,0 1.44043,9.84082 1.44043,9.84082 0,0 0.23925,13.9209 0.23925,13.9209 0,0 1.2002,11.52148 1.2002,11.52148 0,0 0.23926,0 0.23926,0 0,0 0.24023,0.24023 0.24023,0.24023 0,0 0.24024,0.24024 0.24024,0.24024 0,0 0.71972,8.16015 0.71972,8.16015 0,0 0,1.44043 0,1.44043 0,0 0.95996,11.52149 0.95996,11.52149 0,0 0.48047,8.88086 0.48047,8.88086 0,0 0.47949,6.95996 0.47949,6.95996 0,0 0.48047,4.80078 0.48047,4.80078 0,0 0,0.96094 0,0.96094 0,0 0.47949,5.75976 0.47949,5.75976 0,0 0.71973,10.56153 0.71973,10.56153 0,0 0.23926,9.12109 0.23926,9.12109 0,0 0,5.28027 0,5.28027 0,0 0,2.64063 0,2.64063 0,0 -1.19922,0 -1.19922,0 0,0 -0.48047,0 -0.48047,0 0,0 -4.31836,0 -4.31836,0 0,0 -0.24023,0 -0.24023,0 0,0 -0.24024,0 -0.24024,0 0,0 -1.43945,0 -1.43945,0 0,0 -0.24023,0 -0.24023,0 0,0 -0.95997,0 -0.95997,0 0,0 -4.79882,0 -4.79882,0 0,0 -0.71973,0 -0.71973,0 0,0 -0.95996,0 -0.95996,0 0,0 -19.91602,0 -19.91602,0 0,0 -16.55761,0.24023 -16.55761,0.24023 0,0 -0.23926,0 -0.23926,0 0,0 -7.19922,0 -7.19922,0 0,0 -5.2793,0 -5.2793,0 0,0 -3.35937,0 -3.35937,0 0,0 -3.3584,0 -3.3584,0 0,0 -6.23926,-0.24023 -6.23926,-0.24023 0,0 -2.87988,0 -2.87988,0 0,0 -5.03906,0 -5.03906,0 0,0 -22.0752,0 -22.0752,0 0,0 -3.83984,-0.24024 -3.83984,-0.24024 0,0 -5.51856,0 -5.51856,0 0,0 -5.99902,0 -5.99902,0 0,0 -8.39844,0 -8.39844,0 0,0 -0.47998,0 -0.47998,0 0,0 -6.23877,0 -6.23877,0 0,0 -5.2793,-0.24023 -5.2793,-0.24023 0,0 -1.43945,0 -1.43945,0 0,0 -5.99902,-0.24023 -5.99902,-0.24023 0,0 -9.83838,-0.24024 -9.83838,-0.24024 0,0 -2.8794,0 -2.8794,0 0,0 -0.71972,0 -0.71972,0 0,0 -7.91846,-0.23926 -7.91846,-0.23926 0,0 -1.19971,0 -1.19971,0 0,0 -6.95898,-0.24023 -6.95898,-0.24023 0,0 -0.47998,0 -0.47998,0 0,0 -4.31885,-0.24023 -4.31885,-0.24023 0,0 -0.95996,0 -0.95996,0 0,0 -5.99902,-0.24024 -5.99902,-0.24024 0,0 -1.19971,0 -1.19971,0 0,0 -0.71973,0 -0.71973,0 0,0 -0.24023,0 -0.24023,0 0,0 -0.47998,0 -0.47998,0 0,0 -0.23975,0 -0.23975,0 0,0 -0.24023,0 -0.24023,0 0,0 -0.23975,0 -0.23975,0 0,0 -0.47998,0 -0.47998,0 0,0 -0.23974,0 -0.23974,0 0,0 -0.24024,0 -0.24024,0 0,0 -0.23974,0 -0.23974,0 0,0 -3.83936,-0.24023 -3.83936,-0.24023 0,0 -2.63965,0 -2.63965,0 0,0 -0.71973,-0.23926 -0.71973,-0.23926 0,0 -0.23974,0 -0.23974,0 0,0 -2.15967,0.23926 -2.15967,0.23926 0,0 -1.43994,-0.23926 -1.43994,-0.23926 0,0 -1.91943,-0.24024 -1.91943,-0.24024 0,0 -12.47803,-0.47949 -12.47803,-0.47949 0,0 -6.71875,-0.24121 -6.71875,-0.24121 0,0 -5.51904,-0.23926 -5.51904,-0.23926 0,0 -1.19971,0 -1.19971,0 0,0 -9.3584,-0.47949 -9.3584,-0.47949 0,0 -1.19971,-0.24023 -1.19971,-0.24023 0,0 -0.95947,-15.60157 -0.95947,-15.60157 0,0 -0.24023,-1.92089 -0.24023,-1.92089 0,0 -0.47998,-7.2002 -0.47998,-7.2002 0,0 -0.23975,-5.28125 -0.23975,-5.28125 0,0 -0.47998,-10.08008 -0.47998,-10.08008 0,0 -0.47998,-8.16211 -0.47998,-8.16211 0,0 0,-0.47949 0,-0.47949 0,0 0,-0.47949 0,-0.47949 0,0 -0.71973,-11.52149 -0.71973,-11.52149 0,0 -0.24023,-3.36035 -0.24023,-3.36035 0,0 -0.47949,-11.04101 -0.47949,-11.04101 0,0 -0.24024,-0.71973 -0.24024,-0.71973 0,0 0,-2.40137 0,-2.40137 0,0 -0.23975,-2.40039 -0.23975,-2.40039 0,0 -0.24023,-4.31933 -0.24023,-4.31933 0,0 -1.91943,-34.32325 -1.91943,-34.32325 0,0 -1.67969,-29.2832 -1.67969,-29.2832 0,0 -0.47998,-7.20117 -0.47998,-7.20117 0,0 -0.71973,-10.32129 -0.71973,-10.32129 0,0 -0.47998,-9.84082 -0.47998,-9.84082 0,0 -0.24023,-3.84082 -0.24023,-3.84082 0,0 0,-1.43945 0,-1.43945 0,0 -0.47998,-6.48145 -0.47998,-6.48145 0,0 0,-0.71973 0,-0.71973 0,0 -0.23975,-3.83984 -0.23975,-3.83984 0,0 -0.23975,-6.00098 -0.23975,-6.00098 0,0 -0.24023,-0.48046 -0.24023,-0.48046 0,0 -0.71973,-12.72071 -0.71973,-12.72071 0,0 -0.95996,-18.24218 -0.95996,-18.24218 0,0 0,-0.95997 0,-0.95997 0,0 -0.71972,-10.56152 -0.71972,-10.56152 0,0 0,-0.47949 0,-0.47949 0,0 -2.15967,-35.04297 -2.15967,-35.04297 0,0 -0.23975,-6.96094 -0.23975,-6.96094 0,0 -0.95996,-12.96191 -0.95996,-12.96191 0,0 0,-1.68067 0,-1.68067 0,0 -0.24023,-3.11914 -0.24023,-3.11914 0,0 -0.23975,-6.96093 -0.23975,-6.96093 0,0 -0.71973,-7.9209 -0.71973,-7.9209 0,0 0,-1.92041 0,-1.92041 0,0 -0.24023,-2.64014 -0.24023,-2.64014 0,0 -0.47998,-11.04101 -0.47998,-11.04101 0,0 -0.71973,-10.56104 -0.71973,-10.56104 0,0 -0.47998,-6.24072 -0.47998,-6.24072 0,0 0,-0.24024 0,-0.24024 0,0 -0.47998,-10.3208 -0.47998,-10.3208 0,0 -1.19971,-22.5625 -1.19971,-22.5625 0,0 -0.47998,-6.00049 -0.47998,-6.00049 0,0 -0.47949,-7.44091 -0.47949,-7.44091 0,0 -0.72021,-11.28125 -0.72021,-11.28125 z" /><path
           id="path22"
           style="fill:none;stroke:#ac7424;stroke-width:2.15961003;stroke-linecap:round;stroke-linejoin:round;stroke-miterlimit:3.85000992;stroke-dasharray:none;stroke-opacity:1"
           d="m 583.41602,-876.20313 c 0,0 -4.07959,-2.40039 -4.07959,-2.40039 0,0 -0.95948,-1.67968 -0.95948,-1.67968 0,0 -0.47998,-3.60059 -0.47998,-3.60059 0,0 5.27881,4.08057 5.27881,4.08057 0,0 0.24024,3.60009 0.24024,3.60009 z m 3.59912,-11.04101 c 0,0 -2.39942,0.23975 -2.39942,0.23975 0,0 -0.24023,-0.23975 -0.24023,-0.23975 0,0 -1.91944,-3.84033 -1.91944,-3.84033 0,0 -1.43994,-4.8003 -1.43994,-4.8003 0,0 0.24024,-1.44043 0.24024,-1.44043 0,0 4.0791,-1.43994 4.0791,-1.43994 0,0 0.24023,-0.24023 0.24023,-0.24023 0,0 0.23975,0.47998 0.23975,0.47998 0,0 -0.23975,2.40039 -0.23975,2.40039 0,0 0.4795,3.36035 0.4795,3.36035 0,0 0.47998,2.40039 0.47998,2.40039 0,0 -0.23975,1.43994 -0.23975,1.43994 0,0 0.23975,1.2002 0.23975,1.2002 0,0 0.47998,0.47998 0.47998,0.47998 z M 509.50928,-737.229 c 0,0 0,-0.23975 0,-0.23975 0,0 0,-1.92041 0,-1.92041 0,0 -1.19971,-21.12207 -1.19971,-21.12207 0,0 -0.47998,-6.7207 -0.47998,-6.7207 0,0 -0.23975,-4.08057 -0.23975,-4.08057 0,0 -0.24023,-5.04004 -0.24023,-5.04004 0,0 -1.19971,-18.72217 -1.19971,-18.72217 0,0 -0.71972,-14.40136 -0.71972,-14.40136 0,0 -0.71973,-9.84131 -0.71973,-9.84131 0,0 -0.47998,-7.44043 -0.47998,-7.44043 0,0 -1.43994,-26.1626 -1.43994,-26.1626 0,0 0,-0.24023 0,-0.24023 0,0 0,-0.47999 0,-0.47999 0,0 -0.47998,-6.96093 -0.47998,-6.96093 0,0 -0.71973,-10.56104 -0.71973,-10.56104 0,0 0,-2.64013 0,-2.64013 0,0 -0.23975,-2.16016 -0.23975,-2.16016 0,0 0,-1.68018 0,-1.68018 0,0 -0.24023,-2.40039 -0.24023,-2.40039 0,0 0,-2.88037 0,-2.88037 0,0 -0.23975,-4.80029 -0.23975,-4.80029 0,0 -0.24023,-2.16016 -0.24023,-2.16016 0,0 -0.23975,-5.28076 -0.23975,-5.28076 0,0 -0.23974,-4.32031 -0.23974,-4.32031 0,0 -0.24024,-3.36035 -0.24024,-3.36035 0,0 0,-0.47998 0,-0.47998 0,0 0,-2.16016 0,-2.16016 0,0 -0.23974,-3.36035 -0.23974,-3.36035 0,0 0,-1.43994 0,-1.43994 0,0 0,-0.96045 0,-0.96045 0,0 0,-0.95996 0,-0.95996 0,0 -0.24024,-0.72022 -0.24024,-0.72022 0,0 0.24024,-0.95996 0.24024,-0.95996 0,0 0,-5.52051 0,-5.52051 0,0 0,-2.40039 0,-2.40039 0,0 0,-0.95996 0,-0.95996 0,0 0,-0.48047 0,-0.48047 0,0 0,-0.71972 0,-0.71972 0,0 0,-0.47998 0,-0.47998 0,0 0,-6.00049 0,-6.00049 0,0 0,-0.48047 0,-0.48047 0,0 0,-2.40039 0,-2.40039 0,0 0,-9.36035 0,-9.36035 0,0 0,-1.2002 0,-1.2002 0,0 5.75879,-0.24023 5.75879,-0.24023 0,0 0.23974,-0.95996 0.23974,-0.95996 0,0 2.15967,-5.28077 2.15967,-5.28077 0,0 0.47998,-1.1997 0.47998,-1.1997 0,0 2.15967,-4.56055 2.15967,-4.56055 0,0 2.15967,-4.08057 2.15967,-4.08057 0,0 0.47998,-0.95996 0.47998,-0.95996 0,0 0.71972,-1.20019 0.71972,-1.20019 0,0 1.67969,-2.40039 1.67969,-2.40039 0,0 0,-0.24024 0,-0.24024 0,0 0.47998,-0.47998 0.47998,-0.47998 0,0 0.47998,-0.71972 0.47998,-0.71972 0,0 0.95947,-1.44043 0.95947,-1.44043 0,0 0.24024,-0.23975 0.24024,-0.23975 0,0 0.71973,-0.72021 0.71973,-0.72021 0,0 0.24023,-0.47999 0.24023,-0.47999 0,0 0.71973,-0.96044 0.71973,-0.96044 0,0 0.95996,-0.95997 0.95996,-0.95997 0,0 1.43945,-1.68017 1.43945,-1.68017 0,0 1.19971,-1.43994 1.19971,-1.43994 0,0 0.72021,-0.72022 0.72021,-0.72022 0,0 0.23975,-0.23974 0.23975,-0.23974 0,0 0.23974,-0.24024 0.23974,-0.24024 0,0 0.72022,-0.72021 0.72022,-0.72021 0,0 0.47998,-0.47998 0.47998,-0.47998 0,0 0.47949,-0.47998 0.47949,-0.47998 0,0 0.24024,-0.23975 0.24024,-0.23975 0,0 0.71972,-0.7207 0.71972,-0.7207 0,0 3.11963,-2.63965 3.11963,-2.63965 0,0 0.95996,-0.96045 0.95996,-0.96045 0,0 0.47949,-0.47998 0.47949,-0.47998 0,0 1.2002,-0.95996 1.2002,-0.95996 0,0 2.63916,-1.92041 2.63916,-1.92041 0,0 2.63965,-1.91992 2.63965,-1.91992 0,0 0.47998,-0.24024 0.47998,-0.24024 0,0 1.19971,-0.72021 1.19971,-0.72021 0,0 0.71972,-0.47998 0.71972,-0.47998 0,0 0.24024,0 0.24024,0 0,0 1.43945,-0.95996 1.43945,-0.95996 0,0 5.03906,-2.64014 5.03906,-2.64014 0,0 1.43994,-0.72022 1.43994,-0.72022 0,0 0.47998,-0.24023 0.47998,-0.24023 0,0 6.23877,-2.64014 6.23877,-2.64014 0,0 2.39942,-0.95996 2.39942,-0.95996 0,0 6.71875,-1.68017 6.71875,-1.68017 0,0 7.91846,-1.68018 7.91846,-1.68018 0,0 0.72021,0 0.72021,0 0,0 5.27881,-0.48047 5.27881,-0.48047 0,0 3.59961,-0.2397 3.59961,-0.2397 0,0 6.23877,0.2397 6.23877,0.2397 0,0 4.79883,0 4.79883,0 0,0 0.47998,0 0.47998,0 0,0 7.91894,0.96045 7.91894,0.96045 0,0 2.39942,0.47998 2.39942,0.47998 0,0 4.79882,0.95996 4.79882,0.95996 0,0 2.39991,0.72022 2.39991,0.72022 0,0 4.31884,1.43994 4.31884,1.43994 0,0 2.87989,1.20019 2.87989,1.20019 0,0 0.23974,0 0.23974,0 0,0 3.59912,1.44043 3.59912,1.44043 0,0 1.43995,0.47998 1.43995,0.47998 0,0 1.91992,0.95996 1.91992,0.95996 0,0 0.23974,0.24024 0.23974,0.24024 0,0 0.23975,0 0.23975,0 0,0 0.95996,0.72021 0.95996,0.72021 0,0 5.03906,2.64014 5.03906,2.64014 0,0 0,0.23975 0,0.23975 0,0 1.19971,0.48047 1.19971,0.48047 0,0 2.15967,1.1997 2.15967,1.1997 0,0 4.79931,3.60059 4.79931,3.60059 0,0 3.59913,2.88037 3.59913,2.88037 0,0 -7.91846,4.08008 -7.91846,4.08008 0,0 -3.59912,1.68017 -3.59912,1.68017 0,0 -0.47998,0.24024 -0.47998,0.24024 0,0 -2.15967,2.3999 -2.15967,2.3999 0,0 -1.91992,2.16064 -1.91992,2.16064 0,0 0.24023,0.23975 0.24023,0.23975 0,0 0.23975,0.24024 0.23975,0.24024 0,0 -1.91944,2.16015 -1.91944,2.16015 0,0 -2.63964,1.43994 -2.63964,1.43994 0,0 -0.95997,1.44043 -0.95997,1.44043 0,0 -0.47998,0.72022 -0.47998,0.72022 0,0 0,1.43994 0,1.43994 0,0 -0.71972,2.3999 -0.71972,2.3999 0,0 -0.47998,1.44043 -0.47998,1.44043 0,0 -0.95948,3.36035 -0.95948,3.36035 0,0 -0.47998,0.96045 -0.47998,0.96045 0,0 -0.72021,1.19971 -0.72021,1.19971 0,0 -0.71973,1.44043 -0.71973,1.44043 0,0 0,0.47998 0,0.47998 0,0 -0.23974,0.95996 -0.23974,0.95996 0,0 -0.24024,0.95996 -0.24024,0.95996 0,0 0,1.2002 0,1.2002 0,0 -0.71972,1.92041 -0.71972,1.92041 0,0 0,2.16015 0,2.16015 0,0 0.23974,0.95996 0.23974,0.95996 0,0 -0.47949,1.68018 -0.47949,1.68018 0,0 -0.47998,0.47998 -0.47998,0.47998 0,0 -0.95996,-0.24023 -0.95996,-0.24023 0,0 -0.23975,-0.23975 -0.23975,-0.23975 0,0 -0.24023,-0.23975 -0.24023,-0.23975 0,0 -0.71973,-0.24023 -0.71973,-0.24023 0,0 -1.43994,0.47998 -1.43994,0.47998 0,0 -0.95947,1.92041 -0.95947,1.92041 0,0 -0.47998,0.95996 -0.47998,0.95996 0,0 -0.24024,0.95996 -0.24024,0.95996 0,0 -1.19971,2.64063 -1.19971,2.64063 0,0 -2.87939,1.67968 -2.87939,1.67968 0,0 -1.19971,0.48047 -1.19971,0.48047 0,0 -0.71972,1.2002 -0.71972,1.2002 0,0 -0.24024,3.83984 -0.24024,3.83984 0,0 0,0.24024 0,0.24024 0,0 -7.43847,-3.12012 -7.43847,-3.12012 0,0 -0.24024,0.47998 -0.24024,0.47998 0,0 -1.19971,1.68017 -1.19971,1.68017 0,0 -2.39941,3.36036 -2.39941,3.36036 0,0 -1.67969,2.40039 -1.67969,2.40039 0,0 -4.55908,6.48047 -4.55908,6.48047 0,0 -1.91992,2.64013 -1.91992,2.64013 0,0 0,0.24024 0,0.24024 0,0 -0.23975,0.23974 -0.23975,0.23974 0,0 -3.83935,1.2002 -3.83935,1.2002 0,0 -0.47998,0 -0.47998,0 0,0 -3.35938,0.95996 -3.35938,0.95996 0,0 -1.67969,0.48047 -1.67969,0.48047 0,0 -0.71972,1.20019 -0.71972,1.20019 0,0 -1.19971,1.67969 -1.19971,1.67969 0,0 -3.11963,4.56055 -3.11963,4.56055 0,0 -4.31933,6.7207 -4.31933,6.7207 0,0 -0.47998,0.48047 -0.47998,0.48047 0,0 0,0.23975 0,0.23975 0,0 -0.23975,0.95996 -0.23975,0.95996 0,0 -0.47998,1.20019 -0.47998,1.20019 0,0 0.24023,0.72022 0.24023,0.72022 0,0 0.4795,0.71972 0.4795,0.71972 0,0 -0.23975,0.24024 -0.23975,0.24024 0,0 0.23975,2.64062 0.23975,2.64062 0,0 -0.23975,0.23975 -0.23975,0.23975 0,0 0,0.24023 0,0.24023 0,0 0.71973,4.32032 0.71973,4.32032 0,0 2.63964,3.60058 2.63964,3.60058 0,0 0.47998,0.47949 0.47998,0.47949 0,0 0.47999,0.24024 0.47999,0.24024 0,0 3.83935,2.40039 3.83935,2.40039 0,0 0,0.23974 0,0.23974 0,0 1.67969,1.2002 1.67969,1.2002 0,0 0.23974,0.24023 0.23974,0.24023 0,0 0,0.47999 0,0.47999 0,0 0.24024,0.24023 0.24024,0.24023 0,0 5.51855,5.28027 5.51855,5.28027 0,0 0.24024,0.23975 0.24024,0.23975 0,0 2.87939,2.40039 2.87939,2.40039 0,0 -0.23974,0.72021 -0.23974,0.72021 0,0 -0.24024,0.47998 -0.24024,0.47998 0,0 -0.47998,0.72022 -0.47998,0.72022 0,0 -1.43945,8.64062 -1.43945,8.64062 0,0 0,0.72022 0,0.72022 0,0 -0.24024,5.76074 -0.24024,5.76074 0,0 3.59961,3.36035 3.59961,3.36035 0,0 -2.3999,5.76026 -2.3999,5.76026 0,0 -3.35937,-0.23975 -3.35937,-0.23975 0,0 -0.23975,0 -0.23975,0 0,0 -2.39941,3.6001 -2.39941,3.6001 0,0 -1.91993,2.64062 -1.91993,2.64062 0,0 0,0.47998 0,0.47998 0,0 -1.67968,6.48047 -1.67968,6.48047 0,0 -0.23975,1.2002 -0.23975,1.2002 0,0 0,0.72021 0,0.72021 0,0 1.19971,7.68067 1.19971,7.68067 0,0 0.23974,0.72021 0.23974,0.72021 0,0 3.35938,4.8003 3.35938,4.8003 0,0 0.24023,0.95996 0.24023,0.95996 0,0 0.23975,0.47998 0.23975,0.47998 0,0 2.87939,2.64062 2.87939,2.64062 0,0 0,0.71973 0,0.71973 0,0 -0.23974,0.96045 -0.23974,0.96045 0,0 5.99902,4.08056 5.99902,4.08056 0,0 6.47852,6.72022 6.47852,6.72022 0,0 0.95996,3.60058 0.95996,3.60058 0,0 4.79931,8.64112 4.79931,8.64112 0,0 0.71973,1.67969 0.71973,1.67969 0,0 3.11963,10.56152 3.11963,10.56152 0,0 0.23975,0.23974 0.23975,0.23974 0,0 0.23974,0.24024 0.23974,0.24024 0,0 2.3999,3.12012 2.3999,3.12012 0,0 4.31885,2.16015 4.31885,2.16015 0,0 0.95996,1.2002 0.95996,1.2002 0,0 -0.95996,2.64013 -0.95996,2.64013 0,0 0.47998,0.48047 0.47998,0.48047 0,0 0.47998,0.71973 0.47998,0.71973 0,0 0.47998,0.72021 0.47998,0.72021 0,0 3.83936,2.64014 3.83936,2.64014 0,0 0,0.24024 0,0.24024 0,0 4.0791,2.88037 4.0791,2.88037 0,0 3.35937,1.1997 3.35937,1.1997 0,0 8.1587,7.20118 8.1587,7.20118 0,0 0.71972,1.91992 0.71972,1.91992 0,0 0.47998,5.76074 0.47998,5.76074 0,0 0,0.47998 0,0.47998 0,0 2.8794,5.76074 2.8794,5.76074 0,0 7.43896,9.84082 7.43896,9.84082 0,0 1.91944,4.8003 1.91944,4.8003 0,0 -0.71973,4.3208 -0.71973,4.3208 0,0 0,0.23974 0,0.23974 0,0 -0.24023,0.95996 -0.24023,0.95996 0,0 0,9.60108 0,9.60108 0,0 0.47998,0.47998 0.47998,0.47998 0,0 2.87939,3.1206 2.87939,3.1206 0,0 1.43994,5.76026 1.43994,5.76026 0,0 -0.71972,7.9209 -0.71972,7.9209 0,0 -1.43995,0.72021 -1.43995,0.72021 0,0 -0.47998,0 -0.47998,0 0,0 -3.11914,5.76074 -3.11914,5.76074 0,0 -0.95996,9.12061 -0.95996,9.12061 0,0 0.71973,6.24072 0.71973,6.24072 0,0 2.87939,26.40283 2.87939,26.40283 0,0 -0.23974,10.56153 -0.23974,10.56153 0,0 0.71972,0.71972 0.71972,0.71972 0,0 1.67969,3.12012 1.67969,3.12012 0,0 -0.23975,0.7207 -0.23975,0.7207 0,0 3.11866,3.11914 3.11866,3.11914 0,0 3.12011,1.20118 3.12011,1.20118 0,0 8.6377,7.91992 8.6377,7.91992 0,0 4.32031,3.84082 4.32031,3.84082 0,0 1.67969,2.16015 1.67969,2.16015 0,0 8.63769,15.60157 8.63769,15.60157 0,0 1.44043,3.60058 1.44043,3.60058 0,0 1.19922,6.24121 1.19922,6.24121 0,0 -0.48047,8.16016 -0.48047,8.16016 0,0 0,0.95996 0,0.95996 0,0 0.24122,1.44043 0.24122,1.44043 0,0 0,0.24024 0,0.24024 0,0 0.23925,0.47949 0.23925,0.47949 0,0 3.35938,2.64062 3.35938,2.64062 0,0 -3.59863,6.96094 -3.59863,6.96094 0,0 3.11816,5.76074 3.11816,5.76074 0,0 4.56055,5.04004 4.56055,5.04004 0,0 4.79882,5.28027 4.79882,5.28027 0,0 6.23829,6.96094 6.23829,6.96094 0,0 0,0.23926 0,0.23926 0,0 8.63867,11.52148 8.63867,11.52148 0,0 0.71972,0.96094 0.71972,0.96094 0,0 1.44043,2.15918 1.44043,2.15918 0,0 0.95899,1.2002 0.95899,1.2002 0,0 1.20019,1.20019 1.20019,1.20019 0,0 0.71973,0.48047 0.71973,0.48047 0,0 0.48047,0.71973 0.48047,0.71973 0,0 7.91797,7.68164 7.91797,7.68164 0,0 5.51953,8.16015 5.51953,8.16015 0,0 11.27734,7.44141 11.27734,7.44141 0,0 0.48047,0.24023 0.48047,0.24023 0,0 0.23926,0.23926 0.23926,0.23926 0,0 3.35937,1.44043 3.35937,1.44043 0,0 2.63965,0.95996 2.63965,0.95996 0,0 3.59961,1.44043 3.59961,1.44043 0,0 7.91797,-0.24023 7.91797,-0.24023 0,0 2.87988,-1.44043 2.87988,-1.44043 0,0 3.11914,-1.44043 3.11914,-1.44043 0,0 1.2002,-2.63965 1.2002,-2.63965 0,0 0.23926,0 0.23926,0 0,0 -0.23926,0 -0.23926,0 0,0 -0.48047,-1.9209 -0.48047,-1.9209 0,0 -0.71973,-2.40039 -0.71973,-2.40039 0,0 1.2002,-0.47949 1.2002,-0.47949 0,0 0.23926,0.24023 0.23926,0.24023 0,0 1.44043,3.12012 1.44043,3.12012 0,0 2.8789,12.00098 2.8789,12.00098 0,0 0.72071,10.80078 0.72071,10.80078 0,0 0.23925,2.88086 0.23925,2.88086 0,0 0,0.95996 0,0.95996 0,0 0.24024,1.9209 0.24024,1.9209 0,0 0.47949,2.63965 0.47949,2.63965 0,0 0,0.96093 0,0.96093 0,0 0,0.4795 0,0.4795 0,0 0.95996,6.24121 0.95996,6.24121 0,0 0.71973,4.7998 0.71973,4.7998 0,0 0.24023,1.2002 0.24023,1.2002 0,0 0.95996,7.9209 0.95996,7.9209 0,0 0.24024,1.67968 0.24024,1.67968 0,0 0.23926,1.68067 0.23926,1.68067 0,0 1.44043,9.84082 1.44043,9.84082 0,0 0.23925,13.9209 0.23925,13.9209 0,0 1.2002,11.52148 1.2002,11.52148 0,0 0.23926,0 0.23926,0 0,0 0.24023,0.24023 0.24023,0.24023 0,0 0.24024,0.24024 0.24024,0.24024 0,0 0.71972,8.16015 0.71972,8.16015 0,0 0,1.44043 0,1.44043 0,0 0.95996,11.52149 0.95996,11.52149 0,0 0.48047,8.88086 0.48047,8.88086 0,0 0.47949,6.95996 0.47949,6.95996 0,0 0.48047,4.80078 0.48047,4.80078 0,0 0,0.96094 0,0.96094 0,0 0.47949,5.75976 0.47949,5.75976 0,0 0.71973,10.56153 0.71973,10.56153 0,0 0.23926,9.12109 0.23926,9.12109 0,0 0,5.28027 0,5.28027 0,0 0,2.64063 0,2.64063 0,0 -1.19922,0 -1.19922,0 0,0 -0.48047,0 -0.48047,0 0,0 -4.31836,0 -4.31836,0 0,0 -0.24023,0 -0.24023,0 0,0 -0.24024,0 -0.24024,0 0,0 -1.43945,0 -1.43945,0 0,0 -0.24023,0 -0.24023,0 0,0 -0.95997,0 -0.95997,0 0,0 -4.79882,0 -4.79882,0 0,0 -0.71973,0 -0.71973,0 0,0 -0.95996,0 -0.95996,0 0,0 -19.91602,0 -19.91602,0 0,0 -16.55761,0.24023 -16.55761,0.24023 0,0 -0.23926,0 -0.23926,0 0,0 -7.19922,0 -7.19922,0 0,0 -5.2793,0 -5.2793,0 0,0 -3.35937,0 -3.35937,0 0,0 -3.3584,0 -3.3584,0 0,0 -6.23926,-0.24023 -6.23926,-0.24023 0,0 -2.87988,0 -2.87988,0 0,0 -5.03906,0 -5.03906,0 0,0 -22.0752,0 -22.0752,0 0,0 -3.83984,-0.24024 -3.83984,-0.24024 0,0 -5.51856,0 -5.51856,0 0,0 -5.99902,0 -5.99902,0 0,0 -8.39844,0 -8.39844,0 0,0 -0.47998,0 -0.47998,0 0,0 -6.23877,0 -6.23877,0 0,0 -5.2793,-0.24023 -5.2793,-0.24023 0,0 -1.43945,0 -1.43945,0 0,0 -5.99902,-0.24023 -5.99902,-0.24023 0,0 -9.83838,-0.24024 -9.83838,-0.24024 0,0 -2.8794,0 -2.8794,0 0,0 -0.71972,0 -0.71972,0 0,0 -7.91846,-0.23926 -7.91846,-0.23926 0,0 -1.19971,0 -1.19971,0 0,0 -6.95898,-0.24023 -6.95898,-0.24023 0,0 -0.47998,0 -0.47998,0 0,0 -4.31885,-0.24023 -4.31885,-0.24023 0,0 -0.95996,0 -0.95996,0 0,0 -5.99902,-0.24024 -5.99902,-0.24024 0,0 -1.19971,0 -1.19971,0 0,0 -0.71973,0 -0.71973,0 0,0 -0.24023,0 -0.24023,0 0,0 -0.47998,0 -0.47998,0 0,0 -0.23975,0 -0.23975,0 0,0 -0.24023,0 -0.24023,0 0,0 -0.23975,0 -0.23975,0 0,0 -0.47998,0 -0.47998,0 0,0 -0.23974,0 -0.23974,0 0,0 -0.24024,0 -0.24024,0 0,0 -0.23974,0 -0.23974,0 0,0 -3.83936,-0.24023 -3.83936,-0.24023 0,0 -2.63965,0 -2.63965,0 0,0 -0.71973,-0.23926 -0.71973,-0.23926 0,0 -0.23974,0 -0.23974,0 0,0 -2.15967,0.23926 -2.15967,0.23926 0,0 -1.43994,-0.23926 -1.43994,-0.23926 0,0 -1.91943,-0.24024 -1.91943,-0.24024 0,0 -12.47803,-0.47949 -12.47803,-0.47949 0,0 -6.71875,-0.24121 -6.71875,-0.24121 0,0 -5.51904,-0.23926 -5.51904,-0.23926 0,0 -1.19971,0 -1.19971,0 0,0 -9.3584,-0.47949 -9.3584,-0.47949 0,0 -1.19971,-0.24023 -1.19971,-0.24023 0,0 -0.95947,-15.60157 -0.95947,-15.60157 0,0 -0.24023,-1.92089 -0.24023,-1.92089 0,0 -0.47998,-7.2002 -0.47998,-7.2002 0,0 -0.23975,-5.28125 -0.23975,-5.28125 0,0 -0.47998,-10.08008 -0.47998,-10.08008 0,0 -0.47998,-8.16211 -0.47998,-8.16211 0,0 0,-0.47949 0,-0.47949 0,0 0,-0.47949 0,-0.47949 0,0 -0.71973,-11.52149 -0.71973,-11.52149 0,0 -0.24023,-3.36035 -0.24023,-3.36035 0,0 -0.47949,-11.04101 -0.47949,-11.04101 0,0 -0.24024,-0.71973 -0.24024,-0.71973 0,0 0,-2.40137 0,-2.40137 0,0 -0.23975,-2.40039 -0.23975,-2.40039 0,0 -0.24023,-4.31933 -0.24023,-4.31933 0,0 -1.91943,-34.32325 -1.91943,-34.32325 0,0 -1.67969,-29.2832 -1.67969,-29.2832 0,0 -0.47998,-7.20117 -0.47998,-7.20117 0,0 -0.71973,-10.32129 -0.71973,-10.32129 0,0 -0.47998,-9.84082 -0.47998,-9.84082 0,0 -0.24023,-3.84082 -0.24023,-3.84082 0,0 0,-1.43945 0,-1.43945 0,0 -0.47998,-6.48145 -0.47998,-6.48145 0,0 0,-0.71973 0,-0.71973 0,0 -0.23975,-3.83984 -0.23975,-3.83984 0,0 -0.23975,-6.00098 -0.23975,-6.00098 0,0 -0.24023,-0.48046 -0.24023,-0.48046 0,0 -0.71973,-12.72071 -0.71973,-12.72071 0,0 -0.95996,-18.24218 -0.95996,-18.24218 0,0 0,-0.95997 0,-0.95997 0,0 -0.71972,-10.56152 -0.71972,-10.56152 0,0 0,-0.47949 0,-0.47949 0,0 -2.15967,-35.04297 -2.15967,-35.04297 0,0 -0.23975,-6.96094 -0.23975,-6.96094 0,0 -0.95996,-12.96191 -0.95996,-12.96191 0,0 0,-1.68067 0,-1.68067 0,0 -0.24023,-3.11914 -0.24023,-3.11914 0,0 -0.23975,-6.96093 -0.23975,-6.96093 0,0 -0.71973,-7.9209 -0.71973,-7.9209 0,0 0,-1.92041 0,-1.92041 0,0 -0.24023,-2.64014 -0.24023,-2.64014 0,0 -0.47998,-11.04101 -0.47998,-11.04101 0,0 -0.71973,-10.56104 -0.71973,-10.56104 0,0 -0.47998,-6.24072 -0.47998,-6.24072 0,0 0,-0.24024 0,-0.24024 0,0 -0.47998,-10.3208 -0.47998,-10.3208 0,0 -1.19971,-22.5625 -1.19971,-22.5625 0,0 -0.47998,-6.00049 -0.47998,-6.00049 0,0 -0.47949,-7.44091 -0.47949,-7.44091 0,0 -0.72021,-11.28125 -0.72021,-11.28125 z" /></g></g></g></svg>
