<?xml version="1.0" encoding="UTF-8" standalone="no"?>
<svg
   xmlns:dc="http://purl.org/dc/elements/1.1/"
   xmlns:cc="http://creativecommons.org/ns#"
   xmlns:rdf="http://www.w3.org/1999/02/22-rdf-syntax-ns#"
   xmlns:svg="http://www.w3.org/2000/svg"
   xmlns="http://www.w3.org/2000/svg"
   id="svg2"
   height="200"
   width="200"
   version="1.1">
  <metadata
     id="metadata4152">
    <rdf:RDF>
      <cc:Work
         rdf:about="">
        <dc:format>image/svg+xml</dc:format>
        <dc:type
           rdf:resource="http://purl.org/dc/dcmitype/StillImage" />
        <dc:title></dc:title>
      </cc:Work>
    </rdf:RDF>
  </metadata>
  <defs
     id="defs4" />
  <g
     id="layer1"
     transform="matrix(0.11052939,0,0,0.09672314,52.119326,42.279193)">
    <g
       id="g3014">
      <g
         id="g2917"
         transform="matrix(1.2155061,0,0,1.2155061,141.0853,148.03682)">
        <g
           style="fill-opacity:1;stroke:#ffffff;stroke-width:0.00084671;stroke-linecap:round;stroke-linejoin:round;stroke-miterlimit:4;stroke-dasharray:none"
           id="dccouncildistricts"
           transform="matrix(2593.37,0,0,3361.59,199921,131049)">
          <path
             transform="matrix(3.1723301e-4,0,0,2.4473614e-4,-77.120462,-38.996209)"
             id="dccouncildistricts_004"
             d="m 249.68945,2.0097656 -34.48437,35.1406254 -1.19531,1.347656 c -0.31523,0.408603 -5.35938,5.3125 -5.35938,5.3125 l -54.5957,55.652344 C 91.042969,162.21094 170.71825,82.794421 91.042969,162.21094 l -29,31.05468 -11.978516,10.21485 -48.5449218,49.44141 6.3046876,7.76367 4.0976562,14.30078 10.087891,15.11719 22.380859,24.92578 9.140625,25.33398 6.935547,7.35352 23.642578,21.24804 11.03125,6.94727 25.218755,9.39648 14.18554,1.83985 -0.34765,-11.03321 -1.60743,-41.06445 -3.08789,-9.39844 -2.74414,-3.63672 14.50196,-0.041 0.15625,3.06445 8.51171,0.61328 h 11.34766 l -0.41016,-0.16211 v -4.49609 l 2.83789,4.49609 4.72852,-2.73828 10.08789,-4.90429 13.86914,0.81836 4.09766,3.26953 17.02148,-8.99024 3.78321,1.22657 4.09765,-6.53907 -18.2832,-39.22461 8.19726,-11.0332 7.56446,0.4082 0.63086,0.41016 1.79101,-1.95117 8.54492,-6.32813 20.17383,-4.08594 12.92578,-7.35546 0.62891,-0.33008 12.29492,3.95898 19.70313,6.89258 -0.0996,0.25781 0.0937,-0.082 0.0273,-0.0879 v -0.0801 l 0.0234,0.008 0.16797,-0.52539 1.1914,-1.29102 2.95118,1.93945 4.4121,-5.71875 14.5,-3.57226 0.69139,0.41208 v 15.93554 l 4.72852,22.47461 12.29297,7.35352 h 4.72851 v 20.43164 l -8.82617,2.45117 2.20703,23.29102 -7.88086,3.67578 -4.09765,-2.04297 8.82617,30.23828 5.04297,0.81641 -0.37891,0.041 v 0.041 4.90234 l 14.18555,-7.35351 14.8164,-4.9043 62.73047,34.73242 4.09766,0.4082 21.75,5.31055 0.36523,0.0605 -3.13867,21.96484 3.15234,-0.041 6.61914,10.62304 0.12696,2.49219 1.13476,-0.041 7.87891,-6.1289 9.45703,8.17187 15.13086,0.082 -25.5332,41.1875 -8.19532,7.35547 -12.29296,4.08594 11.66211,6.53711 12.60937,7.35547 -1.26172,0.8164 h 0.1875 l -0.62891,20.79883 -31.52148,0.0391 -11.0332,6.53906 17.65234,4.08594 19.22852,9.80664 6.62109,-4.4961 6.93359,13.89258 1.89258,2.04297 v 7.35547 l 6.9336,13.48437 9.77343,12.25782 3.15235,0.44921 25.21679,-26.15039 12.60938,-11.4414 92.99219,-94.38672 2.83593,-2.85938 26.79493,-26.96875 C 562.68345,317.15443 568.44062,323.66925 562.68345,317.15443 L 404.31431,158.49427 c -33.26172,-35.12891 3.51989,3.14266 -33.26172,-35.12891 L 352.76939,104.16224 335.4315,86.591927 329.75767,80.463021 264.50572,15.902474 Z m 45.91602,247.0000044 -0.0234,0.0723 0.002,0.0566 0.13282,-0.0898 z"
             style="fill-opacity:1;stroke-width:3.03876019;stroke-miterlimit:4;stroke-dasharray:none" />
          <path
             id="dccouncildistricts_001"
             transform="matrix(3.1723301e-4,0,0,2.4473614e-4,-77.120462,-38.996209)"
             d="m 264.24805,237.88477 -14.50196,8.17187 -20.17382,4.08594 -3.07032,0.38867 -4.09765,4.49414 -2.49414,2.7168 -0.63282,0.082 -7.5664,-0.4082 -8.19532,11.0332 18.28321,39.22461 0.18945,0.49023 -3.97266,6.33399 -3.78124,-1.22657 -17.02344,8.99024 -4.09766,-3.26953 -13.86914,-0.81641 -10.08789,4.90234 -4.72852,2.73829 -2.83593,-4.49414 v 4.49414 h -11.34961 l -8.50977,-0.61329 -0.1582,-3.06445 -14.5,0.041 2.74219,3.63672 3.08984,9.39843 1.60742,41.06446 0.34571,11.03125 23.95703,3.06445 5.99023,3.67773 2.83594,2.45118 11.97851,43.3125 16.39258,34.73242 9.77149,0.24414 3.46875,3.67773 9.45507,15.93555 -0.6289,8.17187 6.93359,10.21485 8.82617,-2.45117 2.20704,-6.94727 -3.15235,-7.76172 3.7832,-1.22656 6.61915,4.90234 8.51171,11.44141 4.72852,12.66602 0.63086,9.39843 -1.26172,6.12891 23.94727,56.36523 -0.084,0.0625 -3.46875,35.95703 -28.05469,6.13086 h -7.88086 l -2.52148,6.94532 0.31641,15.52734 4.41211,6.12891 2.83789,-2.45117 4.41211,0.4082 6.30468,6.1289 3.4668,14.70899 -3.15039,29.41992 3.15039,23.69922 7.25195,2.85937 -9.77343,57.61329 0.94531,38 117.26562,-122.58008 4.41211,-1.63477 23.01172,-25.74219 41.60938,-39.22656 56.14257,-58.38867 -3.15234,-0.44922 -9.77148,-12.25781 -6.93555,-13.48438 v -7.35547 l -1.89063,-2.04296 -6.93554,-13.89258 -6.61914,4.49609 -19.23047,-9.80664 -17.65235,-4.08594 11.03321,-6.53906 31.52343,-0.041 0.62891,-20.8379 1.26172,-0.8164 -12.60937,-7.35547 -11.66211,-6.53711 12.29296,-4.08594 8.19532,-7.35547 25.5332,-41.1875 -15.13086,-0.082 -9.45703,-8.17187 -0.2832,-0.082 -7.88086,6.1289 -1.13477,0.041 -0.125,-2.49219 -6.62109,-10.62305 -3.15235,0.041 3.15235,-22.06445 -21.75,-5.3125 -4.09766,-0.40821 -62.73047,-34.73242 -14.81445,4.9043 -14.18555,7.35547 v -4.9043 l -4.51562,-0.73047 -8.74414,-29.95312 3.60156,1.79492 7.88086,-3.67774 -2.20703,-23.28906 8.82617,-2.45117 v -20.43164 h -4.72852 l -12.29297,-7.35352 -4.72851,-22.47461 v -15.93554 l -16.70703,4.08594 -3.15235,5.7207 -2.69335,-2.86719 -10.08594,-1.18555 -10.71875,-3.71093 -6.30469,-2.11524 -3.15234,-1.04687 z"
             style="fill-opacity:1;stroke-width:3.03876019;stroke-miterlimit:4;stroke-dasharray:none" />
        </g>
      </g>
    </g>
  </g>
</svg>
