<?xml version="1.0" encoding="UTF-8" standalone="no"?>
<svg
   xmlns:dc="http://purl.org/dc/elements/1.1/"
   xmlns:cc="http://creativecommons.org/ns#"
   xmlns:rdf="http://www.w3.org/1999/02/22-rdf-syntax-ns#"
   xmlns:svg="http://www.w3.org/2000/svg"
   xmlns="http://www.w3.org/2000/svg"
   viewBox="0 0 1729.3333 1728"
   height="1728"
   width="1729.3333"
   xml:space="preserve"
   id="svg2"
   version="1.1"><metadata
     id="metadata8"><rdf:RDF><cc:Work
         rdf:about=""><dc:format>image/svg+xml</dc:format><dc:type
           rdf:resource="http://purl.org/dc/dcmitype/StillImage" /><dc:title></dc:title></cc:Work></rdf:RDF></metadata><defs
     id="defs6"><clipPath
       id="clipPath18"
       clipPathUnits="userSpaceOnUse"><path
         id="path16"
         d="m 349.21875,-258.62012 c 0,0 0,-770.95848 0,-770.95848 0,0 598.4502,0 598.4502,0 0,0 0,770.95848 0,770.95848 0,0 -598.4502,0 -598.4502,0 z" /></clipPath><clipPath
       id="clipPath30"
       clipPathUnits="userSpaceOnUse"><path
         id="path28"
         d="m 349.21875,-258.62012 c 0,0 0,-770.95848 0,-770.95848 0,0 598.4502,0 598.4502,0 0,0 0,770.95848 0,770.95848 0,0 -598.4502,0 -598.4502,0 z" /></clipPath><clipPath
       id="clipPath84"
       clipPathUnits="userSpaceOnUse"><path
         id="path82"
         d="m 954.3877,-1043.5 c 0,0 0,792 0,792 0,0 -611.8877,0 -611.8877,0 0,0 0,-792 0,-792 0,0 611.8877,0 611.8877,0 z" /></clipPath></defs><g
     transform="matrix(1.3333333,0,0,-1.3333333,0,1728)"
     id="g10"><g
       transform="scale(1,-1)"
       id="g12"><g
         clip-path="url(#clipPath18)"
         id="g14"><path
           id="path20"
           style="fill-opacity:1;fill-rule:nonzero;stroke:none"
           d="m 619.88916,-300.38477 c 0,0 4.55908,5.28125 4.55908,5.28125 0,0 3.59961,1.43946 3.59961,1.43946 0,0 0.23975,2.88086 0.23975,2.88086 0,0 -1.91944,6.48047 -1.91944,6.48047 0,0 -3.11962,1.43945 -3.11962,1.43945 0,0 -25.91504,4.56152 -25.91504,4.56152 0,0 -3.83936,-0.48047 -3.83936,-0.48047 0,0 -7.43896,-5.28027 -7.43896,-5.28027 0,0 -0.71973,-5.76074 -0.71973,-5.76074 0,0 4.55908,-18.00196 4.55908,-18.00196 0,0 6.71875,-5.28027 6.71875,-5.28027 0,0 3.35938,-6.7207 3.35938,-6.7207 0,0 0.24023,-0.24024 0.24023,-0.24024 0,0 5.51904,-6.48047 5.51904,-6.48047 0,0 1.91944,-8.16113 1.91944,-8.16113 0,0 0.24023,-7.9209 0.24023,-7.9209 0,0 1.91944,-3.36035 1.91944,-3.36035 0,0 7.91845,3.36035 7.91845,3.36035 0,0 3.83936,6.24024 3.83936,6.24024 0,0 0.47998,3.12109 0.47998,3.12109 0,0 -2.15967,6.96094 -2.15967,6.96094 0,0 -4.0791,7.44043 -4.0791,7.44043 0,0 -0.95996,9.12109 -0.95996,9.12109 0,0 2.87939,6.72071 2.87939,6.72071 0,0 2.15967,2.63964 2.15967,2.63964 z m 170.84912,-391.95947 c 0,0 2.15918,0.72022 2.15918,0.72022 0,0 2.39942,7.68066 2.39942,7.68066 0,0 -5.99903,0.23975 -5.99903,0.23975 0,0 -1.67871,-4.08008 -1.67871,-4.08008 0,0 2.15918,-1.44043 2.15918,-1.44043 0,0 0.95996,-3.12012 0.95996,-3.12012 z m -27.59473,129.61279 c 0,0 0.71973,2.88086 0.71973,2.88086 0,0 -1.44043,3.83985 -1.44043,3.83985 0,0 -9.3584,-10.32031 -9.3584,-10.32031 0,0 1.2002,-2.4004 1.2002,-2.4004 0,0 8.8789,6 8.8789,6 z m -17.0371,-141.61425 c 0,0 3.35839,-0.71973 3.35839,-0.71973 0,0 6,4.08008 6,4.08008 0,0 1.43946,9.12109 1.43946,9.12109 0,0 -0.48047,1.44043 -0.48047,1.44043 0,0 -3.35938,0.95996 -3.35938,0.95996 0,0 -0.71972,4.08008 -0.71972,4.08008 0,0 8.1582,5.76074 8.1582,5.76074 0,0 9.59863,2.16016 9.59863,2.16016 0,0 5.75879,6.48096 5.75879,6.48096 0,0 1.44043,12.96093 1.44043,12.96093 0,0 -2.40039,7.20118 -2.40039,7.20118 0,0 -6.23828,12.24169 -6.23828,12.24169 0,0 -5.2793,3.83985 -5.2793,3.83985 0,0 -3.11914,-1.44043 -3.11914,-1.44043 0,0 -3.12012,-4.56055 -3.12012,-4.56055 0,0 -0.71972,-7.44043 -0.71972,-7.44043 0,0 2.16015,-9.12109 2.16015,-9.12109 0,0 2.63868,-2.64014 2.63868,-2.64014 0,0 1.67968,-5.76074 1.67968,-5.76074 0,0 0.48047,-6.48047 0.48047,-6.48047 0,0 -4.55957,-4.56055 -4.55957,-4.56055 0,0 -8.1582,-2.16015 -8.1582,-2.16015 0,0 -6.71875,-10.32129 -6.71875,-10.32129 0,0 -3.35938,-5.52051 -3.35938,-5.52051 0,0 -2.15918,-7.9209 -2.15918,-7.9209 0,0 7.67872,-1.68017 7.67872,-1.68017 z m -11.03809,73.6875 c 0,0 0.95898,-0.23926 0.95898,-0.23926 0,0 4.08008,2.39941 4.08008,2.39941 0,0 2.39942,12.00196 2.39942,12.00196 0,0 -1.67969,34.5625 -1.67969,34.5625 0,0 -0.47949,10.32226 -0.47949,10.32226 0,0 0.71875,5.75977 0.71875,5.75977 0,0 0.7207,5.04101 0.7207,5.04101 0,0 0.47949,4.79981 0.47949,4.79981 0,0 -12.71777,6.96094 -12.71777,6.96094 0,0 -1.67969,8.16113 -1.67969,8.16113 0,0 -3.59961,3.36035 -3.59961,3.36035 0,0 -0.47949,4.55957 -0.47949,4.55957 0,0 -5.75879,5.52148 -5.75879,5.52148 0,0 -0.71973,-10.32128 -0.71973,-10.32128 0,0 2.87891,-25.68262 2.87891,-25.68262 0,0 5.75879,-0.72071 5.75879,-0.72071 0,0 1.20019,-2.39941 1.20019,-2.39941 0,0 3.59961,-7.44043 3.59961,-7.44043 0,0 -0.48047,-0.48047 -0.48047,-0.48047 0,0 -6.958,-7.4414 -6.958,-7.4414 0,0 -0.72071,-8.16016 -0.72071,-8.16016 0,0 1.67969,-10.32129 1.67969,-10.32129 0,0 2.87988,-16.32129 2.87988,-16.32129 0,0 3.35938,-9.12109 3.35938,-9.12109 0,0 3.35937,-4.56055 3.35937,-4.56055 0,0 1.2002,-0.24023 1.2002,-0.24023 z m 108.70019,-84.0083 c 0,0 0.71973,0.23974 0.71973,0.23974 0,0 0.95996,0.24024 0.95996,0.24024 0,0 1.19922,0.24023 1.19922,0.24023 0,0 4.08008,0.95996 4.08008,0.95996 0,0 1.91894,0.47998 1.91894,0.47998 0,0 3.35938,0.95996 3.35938,0.95996 0,0 0,2.40039 0,2.40039 0,0 0,0.24024 0,0.24024 0,0 8.39844,2.16015 8.39844,2.16015 0,0 5.03906,1.2002 5.03906,1.2002 0,0 5.03906,0.95996 5.03906,0.95996 0,0 6.71875,1.91992 6.71875,1.91992 0,0 0.24024,0 0.24024,0 0,0 1.19922,0.24024 1.19922,0.24024 0,0 0,1.20019 0,1.20019 0,0 -0.95899,14.40137 -0.95899,14.40137 0,0 -0.7207,10.56103 -0.7207,10.56103 0,0 -2.87891,3.84034 -2.87891,3.84034 0,0 -0.24023,1.68017 -0.24023,1.68017 0,0 -0.4795,4.80078 -0.4795,4.80078 0,0 0.4795,6.96045 0.4795,6.96045 0,0 0.24023,1.92041 0.24023,1.92041 0,0 1.19922,1.2002 1.19922,1.2002 0,0 0.24023,0.47998 0.24023,0.47998 0,0 0.48047,0.47998 0.48047,0.47998 0,0 3.59961,7.20068 3.59961,7.20068 0,0 0.23926,1.20069 0.23926,1.20069 0,0 2.39941,24.00195 2.39941,24.00195 0,0 0.48047,6.24121 0.48047,6.24121 0,0 2.87891,27.60254 2.87891,27.60254 0,0 1.20019,20.40137 1.20019,20.40137 0,0 -8.63867,2.40039 -8.63867,2.40039 0,0 -1.43945,0.48047 -1.43945,0.48047 0,0 -2.63965,3.36035 -2.63965,3.36035 0,0 0.48047,3.36035 0.48047,3.36035 0,0 -16.55762,12.00098 -16.55762,12.00098 0,0 -1.67968,6.00097 -1.67968,6.00097 0,0 -14.39747,5.04004 -14.39747,5.04004 0,0 -1.19921,-0.95996 -1.19921,-0.95996 0,0 -0.95997,-1.67969 -0.95997,-1.67969 0,0 0,-2.88086 0,-2.88086 0,0 4.07911,-11.28125 4.07911,-11.28125 0,0 0,-4.7998 0,-4.7998 0,0 -5.75977,-6.24121 -5.75977,-6.24121 0,0 -0.23926,-3.12012 -0.23926,-3.12012 0,0 -0.71972,-0.48047 -0.71972,-0.48047 0,0 -3.59961,-2.40039 -3.59961,-2.40039 0,0 3.59961,-12.7207 3.59961,-12.7207 0,0 -7.91895,-25.20215 -7.91895,-25.20215 0,0 -0.24023,-0.48047 -0.24023,-0.48047 0,0 3.12011,-20.88281 3.12011,-20.88281 0,0 0.24024,-13.20117 0.24024,-13.20117 0,0 0,-4.79981 0,-4.79981 0,0 0.23926,-6.48095 0.23926,-6.48095 0,0 -3.11914,-7.68067 -3.11914,-7.68067 0,0 0.23925,-6.7207 0.23925,-6.7207 0,0 0,-1.44043 0,-1.44043 0,0 0.24024,-2.64014 0.24024,-2.64014 0,0 -2.63965,-1.92041 -2.63965,-1.92041 0,0 -0.47949,0.24024 -0.47949,0.24024 0,0 -1.67969,0.47998 -1.67969,0.47998 0,0 -5.75879,1.92041 -5.75879,1.92041 0,0 -5.51855,1.91992 -5.51855,1.91992 0,0 -0.72071,0.24023 -0.72071,0.24023 0,0 -0.95996,0.47998 -0.95996,0.47998 0,0 -0.24023,3.36035 -0.24023,3.36035 0,0 -0.23926,2.4004 -0.23926,2.4004 0,0 -1.44043,20.40136 -1.44043,20.40136 0,0 0.48047,0.48047 0.48047,0.48047 0,0 1.19922,2.64063 1.19922,2.64063 0,0 3.12011,7.20117 3.12011,7.20117 0,0 0,4.08008 0,4.08008 0,0 -0.23925,14.40136 -0.23925,14.40136 0,0 0,13.68164 0,13.68164 0,0 1.19922,2.63965 1.19922,2.63965 0,0 4.0791,3.60059 4.0791,3.60059 0,0 -0.71973,5.52051 -0.71973,5.52051 0,0 -2.39941,5.5205 -2.39941,5.5205 0,0 -0.48047,1.68067 -0.48047,1.68067 0,0 -3.83887,9.36035 -3.83887,9.36035 0,0 -0.24023,0.71973 -0.24023,0.71973 0,0 0,0.24023 0,0.24023 0,0 0.71972,5.52148 0.71972,5.52148 0,0 0.48047,5.51954 0.48047,5.51954 0,0 0.95996,0.24023 0.95996,0.24023 0,0 0,0.24023 0,0.24023 0,0 0.24024,1.68067 0.24024,1.68067 0,0 0,0.71973 0,0.71973 0,0 -0.24024,0.95996 -0.24024,0.95996 0,0 -2.16015,6.00097 -2.16015,6.00097 0,0 -3.35938,2.40039 -3.35938,2.40039 0,0 -0.23926,0 -0.23926,0 0,0 0.23926,-6.24121 0.23926,-6.24121 0,0 0,-1.44043 0,-1.44043 0,0 -4.0791,-3.59961 -4.0791,-3.59961 0,0 -7.43848,-2.64062 -7.43848,-2.64062 0,0 -1.44043,0.24023 -1.44043,0.24023 0,0 -0.23925,0 -0.23925,0 0,0 -0.24024,0 -0.24024,0 0,0 -9.11816,0.71973 -9.11816,0.71973 0,0 -1.44043,0 -1.44043,0 0,0 -0.47949,0 -0.47949,0 0,0 -4.31836,2.16016 -4.31836,2.16016 0,0 -1.67969,0.7207 -1.67969,0.7207 0,0 -0.24024,1.19922 -0.24024,1.19922 0,0 -0.7207,3.60058 -0.7207,3.60058 0,0 -0.47949,2.40039 -0.47949,2.40039 0,0 -1.67969,7.20118 -1.67969,7.20118 0,0 -2.39941,10.32031 -2.39941,10.32031 0,0 -4.31934,3.12012 -4.31934,3.12012 0,0 -0.95996,-0.4795 -0.95996,-0.4795 0,0 0,-2.64062 0,-2.64062 0,0 -4.31934,-0.71973 -4.31934,-0.71973 0,0 -0.95996,-0.24023 -0.95996,-0.24023 0,0 -10.07812,5.52051 -10.07812,5.52051 0,0 -8.39844,-1.44043 -8.39844,-1.44043 0,0 -4.0791,-4.55957 -4.0791,-4.55957 0,0 -2.63965,-2.64063 -2.63965,-2.64063 0,0 -0.47949,-0.7207 -0.47949,-0.7207 0,0 0.71973,-3.59961 0.71973,-3.59961 0,0 0.24023,-0.24024 0.24023,-0.24024 0,0 3.83887,-2.16015 3.83887,-2.16015 0,0 3.59961,-2.16016 3.59961,-2.16016 0,0 1.20019,-0.71973 1.20019,-0.71973 0,0 4.31836,0.71973 4.31836,0.71973 0,0 1.91992,0.23926 1.91992,0.23926 0,0 0.71973,0.24121 0.71973,0.24121 0,0 10.31836,-5.76172 10.31836,-5.76172 0,0 0.23926,0 0.23926,0 0,0 1.44043,-0.71875 1.44043,-0.71875 0,0 -0.24024,-4.08105 -0.24024,-4.08105 0,0 0,-1.67969 0,-1.67969 0,0 -0.23926,-3.60059 -0.23926,-3.60059 0,0 -0.24023,-0.48047 -0.24023,-0.48047 0,0 -1.2002,-4.32031 -1.2002,-4.32031 0,0 -1.43945,-4.56055 -1.43945,-4.56055 0,0 -0.71973,-2.40039 -0.71973,-2.40039 0,0 -2.87988,-0.95996 -2.87988,-0.95996 0,0 -1.91992,-2.87988 -1.91992,-2.87988 0,0 0,-8.16113 0,-8.16113 0,0 0,-0.47949 0,-0.47949 0,0 6.71973,-8.40137 6.71973,-8.40137 0,0 4.31836,-5.04004 4.31836,-5.04004 0,0 1.44043,-10.32129 1.44043,-10.32129 0,0 2.15918,-5.04102 2.15918,-5.04102 0,0 1.19921,-3.5996 1.19921,-3.5996 0,0 0.48047,-0.96094 0.48047,-0.96094 0,0 0.48047,-0.95996 0.48047,-0.95996 0,0 1.19922,-2.40039 1.19922,-2.40039 0,0 0.24023,0 0.24023,0 0,0 4.31836,-7.20118 4.31836,-7.20118 0,0 3.59961,-1.43945 3.59961,-1.43945 0,0 1.91993,-3.12012 1.91993,-3.12012 0,0 3.5996,-11.76074 3.5996,-11.76074 0,0 0.4795,-1.68066 0.4795,-1.68066 0,0 1.91992,-6.48096 1.91992,-6.48096 0,0 1.20019,-4.80029 1.20019,-4.80029 0,0 0.24024,-0.72022 0.24024,-0.72022 0,0 0,-0.95996 0,-0.95996 0,0 0.47949,-5.04053 0.47949,-5.04053 0,0 -1.67969,-3.60058 -1.67969,-3.60058 0,0 1.91895,-3.84033 1.91895,-3.84033 0,0 0.71972,-0.71973 0.71972,-0.71973 0,0 4.79981,-4.56055 4.79981,-4.56055 0,0 0.47949,-0.24023 0.47949,-0.24023 0,0 0.48047,-0.47998 0.48047,-0.47998 0,0 3.59863,-3.60059 3.59863,-3.60059 0,0 2.87989,-2.3999 2.87989,-2.3999 0,0 3.59961,-0.47998 3.59961,-0.47998 0,0 19.43652,-2.16016 19.43652,-2.16016 0,0 0.95898,-0.24023 0.95898,-0.24023 0,0 2.16016,-5.76074 2.16016,-5.76074 0,0 3.59961,-9.60108 3.59961,-9.60108 0,0 0.47949,-1.43994 0.47949,-1.43994 0,0 3.83984,-10.56103 3.83984,-10.56103 z m -366.89306,-40.8042 c 0,0 -0.72022,-37.44385 -0.72022,-37.44385 0,0 -0.23974,-3.36035 -0.23974,-3.36035 0,0 0,-0.23975 0,-0.23975 0,0 -0.71973,-26.88281 -0.71973,-26.88281 0,0 0,-1.2002 0,-1.2002 0,0 -0.47998,-16.80175 -0.47998,-16.80175 0,0 -0.24023,-9.36084 -0.24023,-9.36084 0,0 0,-0.72022 0,-0.72022 0,0 -0.23975,-6.7207 -0.23975,-6.7207 0,0 0,-2.40039 0,-2.40039 0,0 -0.23975,-1.91992 -0.23975,-1.91992 0,0 0,-0.72022 0,-0.72022 0,0 -0.24023,-10.80078 -0.24023,-10.80078 0,0 -0.71973,-29.76318 -0.71973,-29.76318 0,0 -0.47998,-19.68213 -0.47998,-19.68213 0,0 -0.23974,-3.12061 -0.23974,-3.12061 0,0 0,-1.43994 0,-1.43994 0,0 0,-1.19971 0,-1.19971 0,0 0,-14.6416 0,-14.6416 0,0 -0.24024,-6.00098 -0.24024,-6.00098 0,0 0,-13.68115 0,-13.68115 0,0 -0.23974,-6.7207 -0.23974,-6.7207 0,0 0,-18.72217 0,-18.72217 0,0 20.39599,-1.43994 20.39599,-1.43994 0,0 6.47901,-0.23975 6.47901,-0.23975 0,0 18.7163,-0.48046 18.7163,-0.48046 0,0 27.11524,-0.71973 27.11524,-0.71973 0,0 1.43994,0 1.43994,0 0,0 10.07813,-0.24024 10.07813,-0.24024 0,0 34.31347,-1.20019 34.31347,-1.20019 0,0 7.43897,-0.24024 7.43897,-0.24024 0,0 2.15918,0 2.15918,0 0,0 3.11963,0 3.11963,0 0,0 5.2788,-0.23974 5.2788,-0.23974 0,0 8.87842,0 8.87842,0 0,0 1.91992,-0.23975 1.91992,-0.23975 0,0 3.83936,0 3.83936,0 0,0 10.5581,-0.24023 10.5581,-0.24023 0,0 4.31885,-0.24024 4.31885,-0.24024 0,0 0.95996,0 0.95996,0 0,0 1.67969,-0.23974 1.67969,-0.23974 0,0 1.91992,-0.24024 1.91992,-0.24024 0,0 5.99854,-0.47998 5.99854,-0.47998 0,0 5.99951,-0.72021 5.99951,-0.72021 0,0 0.71875,0 0.71875,0 0,0 0.7207,0 0.7207,0 0,0 0.95899,0 0.95899,0 0,0 2.40039,-0.23975 2.40039,-0.23975 0,0 1.91894,0 1.91894,0 0,0 1.2002,0 1.2002,0 0,0 1.19922,0 1.19922,0 0,0 2.40039,0 2.40039,0 0,0 15.59765,-0.24023 15.59765,-0.24023 0,0 22.0752,-0.47998 22.0752,-0.47998 0,0 24.95605,-0.47998 24.95605,-0.47998 0,0 0,15.60156 0,15.60156 0,0 0,3.36035 0,3.36035 0,0 0,8.88086 0,8.88086 0,0 0,1.92041 0,1.92041 0,0 0,13.20117 0,13.20117 0,0 0,1.44043 0,1.44043 0,0 0,10.08057 0,10.08057 0,0 0,4.08056 0,4.08056 0,0 0,14.88135 0,14.88135 0,0 0,5.52051 0,5.52051 0,0 0,0.24023 0,0.24023 0,0 0,5.28077 0,5.28077 0,0 0,0.71972 0,0.71972 0,0 0,0.47998 0,0.47998 0,0 0,0.48047 0,0.48047 0,0 0,9.12061 0,9.12061 0,0 0,8.16113 0,8.16113 0,0 3.11914,-0.47998 3.11914,-0.47998 0,0 1.67969,-0.48047 1.67969,-0.48047 0,0 1.67969,-0.23975 1.67969,-0.23975 0,0 3.59961,-0.47998 3.59961,-0.47998 0,0 0.47949,0 0.47949,0 0,0 1.2002,-0.24023 1.2002,-0.24023 0,0 4.79882,-0.72021 4.79882,-0.72021 0,0 0.23926,0 0.23926,0 0,0 0.95996,-0.23975 0.95996,-0.23975 0,0 2.63965,-0.48047 2.63965,-0.48047 0,0 0.95996,0 0.95996,0 0,0 0.71973,-0.23975 0.71973,-0.23975 0,0 3.83887,-0.47998 3.83887,-0.47998 0,0 0.48047,-0.24023 0.48047,-0.24023 0,0 -0.24024,3.60059 -0.24024,3.60059 0,0 0,0.47998 0,0.47998 0,0 -0.24023,2.88037 -0.24023,2.88037 0,0 -0.71875,6.96093 -0.71875,6.96093 0,0 1.19922,4.8003 1.19922,4.8003 0,0 0.71972,2.16015 0.71972,2.16015 0,0 0,0.23975 0,0.23975 0,0 0.95996,3.60059 0.95996,3.60059 0,0 1.2002,4.80029 1.2002,4.80029 0,0 0.24023,0.24023 0.24023,0.24023 0,0 -0.24023,0.72022 -0.24023,0.72022 0,0 -0.24024,0.23974 -0.24024,0.23974 0,0 -1.91992,5.76075 -1.91992,5.76075 0,0 -2.63965,7.44091 -2.63965,7.44091 0,0 0,0.23975 0,0.23975 0,0 0,0.24023 0,0.24023 0,0 0.24024,0.72022 0.24024,0.72022 0,0 0,0.47998 0,0.47998 0,0 0.48047,0.47998 0.48047,0.47998 0,0 0.23925,0.23975 0.23925,0.23975 0,0 0,0.24023 0,0.24023 0,0 3.35938,5.28027 3.35938,5.28027 0,0 -1.67969,1.68018 -1.67969,1.68018 0,0 -1.20019,1.2002 -1.20019,1.2002 0,0 -2.15918,2.16015 -2.15918,2.16015 0,0 0,0.24024 0,0.24024 0,0 -0.95899,0.95996 -0.95899,0.95996 0,0 -1.44043,4.08056 -1.44043,4.08056 0,0 5.03907,11.521 5.03907,11.521 0,0 0,0.72021 0,0.72021 0,0 -0.24024,1.43995 -0.24024,1.43995 0,0 0,1.68017 0,1.68017 0,0 -0.95898,3.60059 -0.95898,3.60059 0,0 0.23925,1.43994 0.23925,1.43994 0,0 0.71973,1.68017 0.71973,1.68017 0,0 2.16016,1.2002 2.16016,1.2002 0,0 1.20019,0.24023 1.20019,0.24023 0,0 1.19922,1.91993 1.19922,1.91993 0,0 0.95996,2.64062 0.95996,2.64062 0,0 0.23926,0.71973 0.23926,0.71973 0,0 0.48047,1.20019 0.48047,1.20019 0,0 0,3.36035 0,3.36035 0,0 0.95996,1.68018 0.95996,1.68018 0,0 6.23828,3.60059 6.23828,3.60059 0,0 12.47852,6.96045 12.47852,6.96045 0,0 1.67968,0.96044 1.67968,0.96044 0,0 5.75879,3.36036 5.75879,3.36036 0,0 0.71973,0.23974 0.71973,0.23974 0,0 14.15723,8.16065 14.15723,8.16065 0,0 3.83886,5.76074 3.83886,5.76074 0,0 1.91993,2.88037 1.91993,2.88037 0,0 2.40039,3.6001 2.40039,3.6001 0,0 1.67968,2.40039 1.67968,2.40039 0,0 5.75879,8.64111 5.75879,8.64111 0,0 6.47852,10.08106 6.47852,10.08106 0,0 0.71972,0.95996 0.71972,0.95996 0,0 -1.91894,4.08056 -1.91894,4.08056 0,0 -8.15918,6.48047 -8.15918,6.48047 0,0 0.23926,1.43994 0.23926,1.43994 0,0 0.96093,5.28077 0.96093,5.28077 0,0 0.95997,6.24072 0.95997,6.24072 0,0 0,0.23974 0,0.23974 0,0 -0.72071,3.84082 -0.72071,3.84082 0,0 -1.67968,8.16065 -1.67968,8.16065 0,0 -10.79786,19.92187 -10.79786,19.92187 0,0 -0.24023,0.24024 -0.24023,0.24024 0,0 -4.79883,-1.92041 -4.79883,-1.92041 0,0 -1.67969,-6.00049 -1.67969,-6.00049 0,0 0.4795,-2.16016 0.4795,-2.16016 0,0 -1.67969,-3.36035 -1.67969,-3.36035 0,0 -2.87891,-6.24072 -2.87891,-6.24072 0,0 -1.20019,-2.64014 -1.20019,-2.64014 0,0 -1.19922,-2.16015 -1.19922,-2.16015 0,0 -1.43946,0 -1.43946,0 0,0 -3.12011,0 -3.12011,0 0,0 -1.67969,8.40088 -1.67969,8.40088 0,0 -5.2793,10.56103 -5.2793,10.56103 0,0 -1.43945,-0.47998 -1.43945,-0.47998 0,0 -1.43945,-3.84082 -1.43945,-3.84082 0,0 -1.44043,-14.64111 -1.44043,-14.64111 0,0 2.16015,-7.68116 2.16015,-7.68116 0,0 2.15918,0.24024 2.15918,0.24024 0,0 3.59961,-5.52051 3.59961,-5.52051 0,0 0.24024,-3.36035 0.24024,-3.36035 0,0 0.23925,-2.88037 0.23925,-2.88037 0,0 0.24122,-2.16016 0.24122,-2.16016 0,0 0.47949,-3.60058 0.47949,-3.60058 0,0 -2.63965,-3.6001 -2.63965,-3.6001 0,0 -6.47949,-9.60108 -6.47949,-9.60108 0,0 -3.35938,-2.40039 -3.35938,-2.40039 0,0 -2.15918,-1.68017 -2.15918,-1.68017 0,0 -5.75879,-1.2002 -5.75879,-1.2002 0,0 -11.51855,-2.64013 -11.51855,-2.64013 0,0 -4.55859,0.47998 -4.55859,0.47998 0,0 -1.91993,2.40039 -1.91993,2.40039 0,0 -0.23925,0.24023 -0.23925,0.24023 0,0 -7.43848,10.80078 -7.43848,10.80078 0,0 0,3.36035 0,3.36035 0,0 0,1.92041 0,1.92041 0,0 0,3.12012 0,3.12012 0,0 0,2.40039 0,2.40039 0,0 0,2.88037 0,2.88037 0,0 -1.91992,7.68067 -1.91992,7.68067 0,0 -2.63965,10.80127 -2.63965,10.80127 0,0 -2.87988,5.04052 -2.87988,5.04052 0,0 -2.63868,-0.72021 -2.63868,-0.72021 0,0 -4.7998,-3.84033 -4.7998,-3.84033 0,0 -0.47949,-6.96094 -0.47949,-6.96094 0,0 0.71972,-2.16016 0.71972,-2.16016 0,0 0,-0.23974 0,-0.23974 0,0 -0.71972,-0.48047 -0.71972,-0.48047 0,0 -0.4795,0 -0.4795,0 0,0 -6,-0.23975 -6,-0.23975 0,0 -10.55761,0 -10.55761,0 0,0 -6.95899,-0.72021 -6.95899,-0.72021 0,0 -7.43847,-0.95996 -7.43847,-0.95996 0,0 -0.95996,-1.68018 -0.95996,-1.68018 0,0 0.71972,-1.44043 0.71972,-1.44043 0,0 -2.15918,-0.71973 -2.15918,-0.71973 0,0 -0.24023,0 -0.24023,0 0,0 -1.91992,2.64014 -1.91992,2.64014 0,0 -0.23926,0.24024 -0.23926,0.24024 0,0 1.67969,10.80078 1.67969,10.80078 0,0 0.47949,3.36035 0.47949,3.36035 0,0 0.71972,4.32031 0.71972,4.32031 0,0 0,0.48047 0,0.48047 0,0 0.24024,0 0.24024,0 0,0 1.43945,-0.24023 1.43945,-0.24023 0,0 7.19922,-2.16016 7.19922,-2.16016 0,0 2.87988,-2.88037 2.87988,-2.88037 0,0 10.07813,6.7207 10.07813,6.7207 0,0 0.47949,6.96094 0.47949,6.96094 0,0 0.71973,16.32129 0.71973,16.32129 0,0 0.71972,9.84131 0.71972,9.84131 0,0 1.44043,27.36279 1.44043,27.36279 0,0 -17.03808,4.80078 -17.03808,4.80078 0,0 -10.07813,2.63965 -10.07813,2.63965 0,0 0.72071,2.64062 0.72071,2.64062 0,0 1.19921,4.55957 1.19921,4.55957 0,0 1.2002,5.52149 1.2002,5.52149 0,0 2.39941,3.83984 2.39941,3.83984 0,0 6.95899,12.00196 6.95899,12.00196 0,0 3.59961,6.48046 3.59961,6.48046 0,0 2.63867,2.64063 2.63867,2.64063 0,0 0.71973,4.08008 0.71973,4.08008 0,0 0.96093,5.52051 0.96093,5.52051 0,0 0,5.5205 0,5.5205 0,0 -2.87988,10.08106 -2.87988,10.08106 0,0 -1.20019,4.56054 -1.20019,4.56054 0,0 0.48046,5.04004 0.48046,5.04004 0,0 0.4795,5.28125 0.4795,5.28125 0,0 0,0.95899 0,0.95899 0,0 1.20019,2.40039 1.20019,2.40039 0,0 0.23926,3.36133 0.23926,3.36133 0,0 -0.47949,4.32031 -0.47949,4.32031 0,0 -0.71973,0.95996 -0.71973,0.95996 0,0 -0.95996,1.19922 -0.95996,1.19922 0,0 -1.2002,-2.15918 -1.2002,-2.15918 0,0 -4.79882,1.67969 -4.79882,1.67969 0,0 0,4.08007 0,4.08007 0,0 1.67968,5.04102 1.67968,5.04102 0,0 -0.23925,4.32031 -0.23925,4.32031 0,0 -3.12012,7.68067 -3.12012,7.68067 0,0 -2.63965,3.12011 -2.63965,3.12011 0,0 -1.67969,-0.24023 -1.67969,-0.24023 0,0 -0.47949,0 -0.47949,0 0,0 -4.7998,2.40137 -4.7998,2.40137 0,0 -3.59961,4.08008 -3.59961,4.08008 0,0 -0.71875,0.47949 -0.71875,0.47949 0,0 0,0.96093 0,0.96093 0,0 0.24023,4.32032 0.24023,4.32032 0,0 0,6.24023 0,6.24023 0,0 0.23926,8.88086 0.23926,8.88086 0,0 0,0.24024 0,0.24024 0,0 -0.47949,0.71972 -0.47949,0.71972 0,0 -1.2002,1.9209 -1.2002,1.9209 0,0 -1.20019,1.43945 -1.20019,1.43945 0,0 -6.23828,9.36133 -6.23828,9.36133 0,0 -3.12012,4.56055 -3.12012,4.56055 0,0 0,0.23926 0,0.23926 0,0 -5.27832,11.76172 -5.27832,11.76172 0,0 -1.43946,-0.24024 -1.43946,-0.24024 0,0 -17.0371,-2.39941 -17.0371,-2.39941 0,0 -5.99903,-0.96094 -5.99903,-0.96094 0,0 -2.39941,-0.47949 -2.39941,-0.47949 0,0 -4.07959,0.71972 -4.07959,0.71972 0,0 -0.23975,0 -0.23975,0 0,0 -7.67871,1.2002 -7.67871,1.2002 0,0 -5.75879,0.71973 -5.75879,0.71973 0,0 -11.03808,2.64062 -11.03808,2.64062 0,0 -11.51807,2.88086 -11.51807,2.88086 0,0 -5.03906,1.19922 -5.03906,1.19922 0,0 -15.35694,3.60058 -15.35694,3.60058 0,0 -0.72021,0.24024 -0.72021,0.24024 0,0 -6.71875,2.39941 -6.71875,2.39941 0,0 -1.67969,0.72071 -1.67969,0.72071 0,0 -30.47412,11.28125 -30.47412,11.28125 0,0 -6.71875,4.08105 -6.71875,4.08105 0,0 -1.67969,0.71973 -1.67969,0.71973 0,0 -11.75781,4.55957 -11.75781,4.55957 0,0 -5.2793,0.48047 -5.2793,0.48047 0,0 -21.35595,1.91992 -21.35595,1.91992 0,0 -6.23877,0.48047 -6.23877,0.48047 0,0 -7.67871,1.68066 -7.67871,1.68066 0,0 -16.55713,4.79981 -16.55713,4.79981 0,0 -4.07911,0.95996 -4.07911,0.95996 0,0 -9.11816,2.64062 -9.11816,2.64062 0,0 -14.63769,7.44141 -14.63769,7.44141 0,0 -3.35938,-2.88086 -3.35938,-2.88086 0,0 0.47998,-5.52051 0.47998,-5.52051 0,0 0.95996,-3.12012 0.95996,-3.12012 0,0 0.47998,-1.68066 0.47998,-1.68066 0,0 7.19873,-5.75977 7.19873,-5.75977 0,0 0.47998,-0.48144 0.47998,-0.48144 0,0 4.79883,-3.83985 4.79883,-3.83985 0,0 4.55908,-5.28027 4.55908,-5.28027 0,0 0,-0.24023 0,-0.24023 0,0 0.72022,-2.64063 0.72022,-2.64063 0,0 0,-5.75976 0,-5.75976 0,0 0,-3.60059 0,-3.60059 0,0 -0.24024,-5.76074 -0.24024,-5.76074 0,0 0,-0.7207 0,-0.7207 0,0 0,-1.2002 0,-1.2002 0,0 0,-0.95898 0,-0.95898 0,0 0,-0.48047 0,-0.48047 0,0 0,-2.16016 0,-2.16016 0,0 0,-0.95996 0,-0.95996 0,0 -0.47998,-4.56055 -0.47998,-4.56055 0,0 0,-0.95996 0,-0.95996 0,0 -0.23974,-1.44043 -0.23974,-1.44043 0,0 0,-0.95996 0,-0.95996 0,0 0,-0.71973 0,-0.71973 0,0 -0.24024,-1.68066 -0.24024,-1.68066 0,0 0,-0.24023 0,-0.24023 0,0 0,-0.71973 0,-0.71973 0,0 -0.23974,-0.24023 -0.23974,-0.24023 0,0 -2.8794,-4.56055 -2.8794,-4.56055 0,0 0,-0.23926 0,-0.23926 0,0 -1.67969,-2.88086 -1.67969,-2.88086 0,0 -0.24023,-0.24023 -0.24023,-0.24023 0,0 -0.23975,-0.23926 -0.23975,-0.23926 0,0 -0.23974,-0.48047 -0.23974,-0.48047 0,0 0,-0.24023 0,-0.24023 0,0 0,-0.23926 0,-0.23926 0,0 -0.72022,-8.16113 -0.72022,-8.16113 0,0 0,-0.48047 0,-0.48047 0,0 0.24024,-1.2002 0.24024,-1.2002 0,0 0.23974,-0.48047 0.23974,-0.48047 0,0 0,-1.19922 0,-1.19922 0,0 0.24024,-0.24023 0.24024,-0.24023 0,0 1.67969,-1.67969 1.67969,-1.67969 0,0 11.03759,-5.04101 11.03759,-5.04101 0,0 2.15967,-0.96094 2.15967,-0.96094 0,0 4.31934,0.7207 4.31934,0.7207 0,0 8.63818,1.68067 8.63818,1.68067 0,0 0,-2.40137 0,-2.40137 0,0 0,-1.43945 0,-1.43945 0,0 0.24024,-4.08008 0.24024,-4.08008 0,0 0.23974,-8.64063 0.23974,-8.64063 0,0 0.24024,-4.80078 0.24024,-4.80078 0,0 0.47998,-13.44141 0.47998,-13.44141 0,0 0.23974,-4.08007 0.23974,-4.08007 0,0 0.95996,-29.04395 0.95996,-29.04395 0,0 0.23975,-5.28027 0.23975,-5.28027 0,0 0.71973,-17.76172 0.71973,-17.76172 0,0 0.47998,-15.12109 0.47998,-15.12109 0,0 0.95996,-21.84278 0.95996,-21.84278 0,0 0.71972,-20.64209 0.71972,-20.64209 0,0 1.19971,-35.52344 1.19971,-35.52344 0,0 0.47998,-13.20117 0.47998,-13.20117 0,0 -0.95947,-35.04394 -0.95947,-35.04394 0,0 -0.47998,-21.60205 -0.47998,-21.60205 z" /><path
           id="path22"
           style="fill:none;stroke:#ac7424;stroke-width:1;stroke-linecap:round;stroke-linejoin:round;stroke-miterlimit:3.85000992;stroke-dasharray:none;stroke-opacity:1"
           d="m 619.88916,-300.38477 c 0,0 4.55908,5.28125 4.55908,5.28125 0,0 3.59961,1.43946 3.59961,1.43946 0,0 0.23975,2.88086 0.23975,2.88086 0,0 -1.91944,6.48047 -1.91944,6.48047 0,0 -3.11962,1.43945 -3.11962,1.43945 0,0 -25.91504,4.56152 -25.91504,4.56152 0,0 -3.83936,-0.48047 -3.83936,-0.48047 0,0 -7.43896,-5.28027 -7.43896,-5.28027 0,0 -0.71973,-5.76074 -0.71973,-5.76074 0,0 4.55908,-18.00196 4.55908,-18.00196 0,0 6.71875,-5.28027 6.71875,-5.28027 0,0 3.35938,-6.7207 3.35938,-6.7207 0,0 0.24023,-0.24024 0.24023,-0.24024 0,0 5.51904,-6.48047 5.51904,-6.48047 0,0 1.91944,-8.16113 1.91944,-8.16113 0,0 0.24023,-7.9209 0.24023,-7.9209 0,0 1.91944,-3.36035 1.91944,-3.36035 0,0 7.91845,3.36035 7.91845,3.36035 0,0 3.83936,6.24024 3.83936,6.24024 0,0 0.47998,3.12109 0.47998,3.12109 0,0 -2.15967,6.96094 -2.15967,6.96094 0,0 -4.0791,7.44043 -4.0791,7.44043 0,0 -0.95996,9.12109 -0.95996,9.12109 0,0 2.87939,6.72071 2.87939,6.72071 0,0 2.15967,2.63964 2.15967,2.63964 z m 170.84912,-391.95947 c 0,0 2.15918,0.72022 2.15918,0.72022 0,0 2.39942,7.68066 2.39942,7.68066 0,0 -5.99903,0.23975 -5.99903,0.23975 0,0 -1.67871,-4.08008 -1.67871,-4.08008 0,0 2.15918,-1.44043 2.15918,-1.44043 0,0 0.95996,-3.12012 0.95996,-3.12012 z m -27.59473,129.61279 c 0,0 0.71973,2.88086 0.71973,2.88086 0,0 -1.44043,3.83985 -1.44043,3.83985 0,0 -9.3584,-10.32031 -9.3584,-10.32031 0,0 1.2002,-2.4004 1.2002,-2.4004 0,0 8.8789,6 8.8789,6 z m -17.0371,-141.61425 c 0,0 3.35839,-0.71973 3.35839,-0.71973 0,0 6,4.08008 6,4.08008 0,0 1.43946,9.12109 1.43946,9.12109 0,0 -0.48047,1.44043 -0.48047,1.44043 0,0 -3.35938,0.95996 -3.35938,0.95996 0,0 -0.71972,4.08008 -0.71972,4.08008 0,0 8.1582,5.76074 8.1582,5.76074 0,0 9.59863,2.16016 9.59863,2.16016 0,0 5.75879,6.48096 5.75879,6.48096 0,0 1.44043,12.96093 1.44043,12.96093 0,0 -2.40039,7.20118 -2.40039,7.20118 0,0 -6.23828,12.24169 -6.23828,12.24169 0,0 -5.2793,3.83985 -5.2793,3.83985 0,0 -3.11914,-1.44043 -3.11914,-1.44043 0,0 -3.12012,-4.56055 -3.12012,-4.56055 0,0 -0.71972,-7.44043 -0.71972,-7.44043 0,0 2.16015,-9.12109 2.16015,-9.12109 0,0 2.63868,-2.64014 2.63868,-2.64014 0,0 1.67968,-5.76074 1.67968,-5.76074 0,0 0.48047,-6.48047 0.48047,-6.48047 0,0 -4.55957,-4.56055 -4.55957,-4.56055 0,0 -8.1582,-2.16015 -8.1582,-2.16015 0,0 -6.71875,-10.32129 -6.71875,-10.32129 0,0 -3.35938,-5.52051 -3.35938,-5.52051 0,0 -2.15918,-7.9209 -2.15918,-7.9209 0,0 7.67872,-1.68017 7.67872,-1.68017 z m -11.03809,73.6875 c 0,0 0.95898,-0.23926 0.95898,-0.23926 0,0 4.08008,2.39941 4.08008,2.39941 0,0 2.39942,12.00196 2.39942,12.00196 0,0 -1.67969,34.5625 -1.67969,34.5625 0,0 -0.47949,10.32226 -0.47949,10.32226 0,0 0.71875,5.75977 0.71875,5.75977 0,0 0.7207,5.04101 0.7207,5.04101 0,0 0.47949,4.79981 0.47949,4.79981 0,0 -12.71777,6.96094 -12.71777,6.96094 0,0 -1.67969,8.16113 -1.67969,8.16113 0,0 -3.59961,3.36035 -3.59961,3.36035 0,0 -0.47949,4.55957 -0.47949,4.55957 0,0 -5.75879,5.52148 -5.75879,5.52148 0,0 -0.71973,-10.32128 -0.71973,-10.32128 0,0 2.87891,-25.68262 2.87891,-25.68262 0,0 5.75879,-0.72071 5.75879,-0.72071 0,0 1.20019,-2.39941 1.20019,-2.39941 0,0 3.59961,-7.44043 3.59961,-7.44043 0,0 -0.48047,-0.48047 -0.48047,-0.48047 0,0 -6.958,-7.4414 -6.958,-7.4414 0,0 -0.72071,-8.16016 -0.72071,-8.16016 0,0 1.67969,-10.32129 1.67969,-10.32129 0,0 2.87988,-16.32129 2.87988,-16.32129 0,0 3.35938,-9.12109 3.35938,-9.12109 0,0 3.35937,-4.56055 3.35937,-4.56055 0,0 1.2002,-0.24023 1.2002,-0.24023 z m 108.70019,-84.0083 c 0,0 0.71973,0.23974 0.71973,0.23974 0,0 0.95996,0.24024 0.95996,0.24024 0,0 1.19922,0.24023 1.19922,0.24023 0,0 4.08008,0.95996 4.08008,0.95996 0,0 1.91894,0.47998 1.91894,0.47998 0,0 3.35938,0.95996 3.35938,0.95996 0,0 0,2.40039 0,2.40039 0,0 0,0.24024 0,0.24024 0,0 8.39844,2.16015 8.39844,2.16015 0,0 5.03906,1.2002 5.03906,1.2002 0,0 5.03906,0.95996 5.03906,0.95996 0,0 6.71875,1.91992 6.71875,1.91992 0,0 0.24024,0 0.24024,0 0,0 1.19922,0.24024 1.19922,0.24024 0,0 0,1.20019 0,1.20019 0,0 -0.95899,14.40137 -0.95899,14.40137 0,0 -0.7207,10.56103 -0.7207,10.56103 0,0 -2.87891,3.84034 -2.87891,3.84034 0,0 -0.24023,1.68017 -0.24023,1.68017 0,0 -0.4795,4.80078 -0.4795,4.80078 0,0 0.4795,6.96045 0.4795,6.96045 0,0 0.24023,1.92041 0.24023,1.92041 0,0 1.19922,1.2002 1.19922,1.2002 0,0 0.24023,0.47998 0.24023,0.47998 0,0 0.48047,0.47998 0.48047,0.47998 0,0 3.59961,7.20068 3.59961,7.20068 0,0 0.23926,1.20069 0.23926,1.20069 0,0 2.39941,24.00195 2.39941,24.00195 0,0 0.48047,6.24121 0.48047,6.24121 0,0 2.87891,27.60254 2.87891,27.60254 0,0 1.20019,20.40137 1.20019,20.40137 0,0 -8.63867,2.40039 -8.63867,2.40039 0,0 -1.43945,0.48047 -1.43945,0.48047 0,0 -2.63965,3.36035 -2.63965,3.36035 0,0 0.48047,3.36035 0.48047,3.36035 0,0 -16.55762,12.00098 -16.55762,12.00098 0,0 -1.67968,6.00097 -1.67968,6.00097 0,0 -14.39747,5.04004 -14.39747,5.04004 0,0 -1.19921,-0.95996 -1.19921,-0.95996 0,0 -0.95997,-1.67969 -0.95997,-1.67969 0,0 0,-2.88086 0,-2.88086 0,0 4.07911,-11.28125 4.07911,-11.28125 0,0 0,-4.7998 0,-4.7998 0,0 -5.75977,-6.24121 -5.75977,-6.24121 0,0 -0.23926,-3.12012 -0.23926,-3.12012 0,0 -0.71972,-0.48047 -0.71972,-0.48047 0,0 -3.59961,-2.40039 -3.59961,-2.40039 0,0 3.59961,-12.7207 3.59961,-12.7207 0,0 -7.91895,-25.20215 -7.91895,-25.20215 0,0 -0.24023,-0.48047 -0.24023,-0.48047 0,0 3.12011,-20.88281 3.12011,-20.88281 0,0 0.24024,-13.20117 0.24024,-13.20117 0,0 0,-4.79981 0,-4.79981 0,0 0.23926,-6.48095 0.23926,-6.48095 0,0 -3.11914,-7.68067 -3.11914,-7.68067 0,0 0.23925,-6.7207 0.23925,-6.7207 0,0 0,-1.44043 0,-1.44043 0,0 0.24024,-2.64014 0.24024,-2.64014 0,0 -2.63965,-1.92041 -2.63965,-1.92041 0,0 -0.47949,0.24024 -0.47949,0.24024 0,0 -1.67969,0.47998 -1.67969,0.47998 0,0 -5.75879,1.92041 -5.75879,1.92041 0,0 -5.51855,1.91992 -5.51855,1.91992 0,0 -0.72071,0.24023 -0.72071,0.24023 0,0 -0.95996,0.47998 -0.95996,0.47998 0,0 -0.24023,3.36035 -0.24023,3.36035 0,0 -0.23926,2.4004 -0.23926,2.4004 0,0 -1.44043,20.40136 -1.44043,20.40136 0,0 0.48047,0.48047 0.48047,0.48047 0,0 1.19922,2.64063 1.19922,2.64063 0,0 3.12011,7.20117 3.12011,7.20117 0,0 0,4.08008 0,4.08008 0,0 -0.23925,14.40136 -0.23925,14.40136 0,0 0,13.68164 0,13.68164 0,0 1.19922,2.63965 1.19922,2.63965 0,0 4.0791,3.60059 4.0791,3.60059 0,0 -0.71973,5.52051 -0.71973,5.52051 0,0 -2.39941,5.5205 -2.39941,5.5205 0,0 -0.48047,1.68067 -0.48047,1.68067 0,0 -3.83887,9.36035 -3.83887,9.36035 0,0 -0.24023,0.71973 -0.24023,0.71973 0,0 0,0.24023 0,0.24023 0,0 0.71972,5.52148 0.71972,5.52148 0,0 0.48047,5.51954 0.48047,5.51954 0,0 0.95996,0.24023 0.95996,0.24023 0,0 0,0.24023 0,0.24023 0,0 0.24024,1.68067 0.24024,1.68067 0,0 0,0.71973 0,0.71973 0,0 -0.24024,0.95996 -0.24024,0.95996 0,0 -2.16015,6.00097 -2.16015,6.00097 0,0 -3.35938,2.40039 -3.35938,2.40039 0,0 -0.23926,0 -0.23926,0 0,0 0.23926,-6.24121 0.23926,-6.24121 0,0 0,-1.44043 0,-1.44043 0,0 -4.0791,-3.59961 -4.0791,-3.59961 0,0 -7.43848,-2.64062 -7.43848,-2.64062 0,0 -1.44043,0.24023 -1.44043,0.24023 0,0 -0.23925,0 -0.23925,0 0,0 -0.24024,0 -0.24024,0 0,0 -9.11816,0.71973 -9.11816,0.71973 0,0 -1.44043,0 -1.44043,0 0,0 -0.47949,0 -0.47949,0 0,0 -4.31836,2.16016 -4.31836,2.16016 0,0 -1.67969,0.7207 -1.67969,0.7207 0,0 -0.24024,1.19922 -0.24024,1.19922 0,0 -0.7207,3.60058 -0.7207,3.60058 0,0 -0.47949,2.40039 -0.47949,2.40039 0,0 -1.67969,7.20118 -1.67969,7.20118 0,0 -2.39941,10.32031 -2.39941,10.32031 0,0 -4.31934,3.12012 -4.31934,3.12012 0,0 -0.95996,-0.4795 -0.95996,-0.4795 0,0 0,-2.64062 0,-2.64062 0,0 -4.31934,-0.71973 -4.31934,-0.71973 0,0 -0.95996,-0.24023 -0.95996,-0.24023 0,0 -10.07812,5.52051 -10.07812,5.52051 0,0 -8.39844,-1.44043 -8.39844,-1.44043 0,0 -4.0791,-4.55957 -4.0791,-4.55957 0,0 -2.63965,-2.64063 -2.63965,-2.64063 0,0 -0.47949,-0.7207 -0.47949,-0.7207 0,0 0.71973,-3.59961 0.71973,-3.59961 0,0 0.24023,-0.24024 0.24023,-0.24024 0,0 3.83887,-2.16015 3.83887,-2.16015 0,0 3.59961,-2.16016 3.59961,-2.16016 0,0 1.20019,-0.71973 1.20019,-0.71973 0,0 4.31836,0.71973 4.31836,0.71973 0,0 1.91992,0.23926 1.91992,0.23926 0,0 0.71973,0.24121 0.71973,0.24121 0,0 10.31836,-5.76172 10.31836,-5.76172 0,0 0.23926,0 0.23926,0 0,0 1.44043,-0.71875 1.44043,-0.71875 0,0 -0.24024,-4.08105 -0.24024,-4.08105 0,0 0,-1.67969 0,-1.67969 0,0 -0.23926,-3.60059 -0.23926,-3.60059 0,0 -0.24023,-0.48047 -0.24023,-0.48047 0,0 -1.2002,-4.32031 -1.2002,-4.32031 0,0 -1.43945,-4.56055 -1.43945,-4.56055 0,0 -0.71973,-2.40039 -0.71973,-2.40039 0,0 -2.87988,-0.95996 -2.87988,-0.95996 0,0 -1.91992,-2.87988 -1.91992,-2.87988 0,0 0,-8.16113 0,-8.16113 0,0 0,-0.47949 0,-0.47949 0,0 6.71973,-8.40137 6.71973,-8.40137 0,0 4.31836,-5.04004 4.31836,-5.04004 0,0 1.44043,-10.32129 1.44043,-10.32129 0,0 2.15918,-5.04102 2.15918,-5.04102 0,0 1.19921,-3.5996 1.19921,-3.5996 0,0 0.48047,-0.96094 0.48047,-0.96094 0,0 0.48047,-0.95996 0.48047,-0.95996 0,0 1.19922,-2.40039 1.19922,-2.40039 0,0 0.24023,0 0.24023,0 0,0 4.31836,-7.20118 4.31836,-7.20118 0,0 3.59961,-1.43945 3.59961,-1.43945 0,0 1.91993,-3.12012 1.91993,-3.12012 0,0 3.5996,-11.76074 3.5996,-11.76074 0,0 0.4795,-1.68066 0.4795,-1.68066 0,0 1.91992,-6.48096 1.91992,-6.48096 0,0 1.20019,-4.80029 1.20019,-4.80029 0,0 0.24024,-0.72022 0.24024,-0.72022 0,0 0,-0.95996 0,-0.95996 0,0 0.47949,-5.04053 0.47949,-5.04053 0,0 -1.67969,-3.60058 -1.67969,-3.60058 0,0 1.91895,-3.84033 1.91895,-3.84033 0,0 0.71972,-0.71973 0.71972,-0.71973 0,0 4.79981,-4.56055 4.79981,-4.56055 0,0 0.47949,-0.24023 0.47949,-0.24023 0,0 0.48047,-0.47998 0.48047,-0.47998 0,0 3.59863,-3.60059 3.59863,-3.60059 0,0 2.87989,-2.3999 2.87989,-2.3999 0,0 3.59961,-0.47998 3.59961,-0.47998 0,0 19.43652,-2.16016 19.43652,-2.16016 0,0 0.95898,-0.24023 0.95898,-0.24023 0,0 2.16016,-5.76074 2.16016,-5.76074 0,0 3.59961,-9.60108 3.59961,-9.60108 0,0 0.47949,-1.43994 0.47949,-1.43994 0,0 3.83984,-10.56103 3.83984,-10.56103 z m -366.89306,-40.8042 c 0,0 -0.72022,-37.44385 -0.72022,-37.44385 0,0 -0.23974,-3.36035 -0.23974,-3.36035 0,0 0,-0.23975 0,-0.23975 0,0 -0.71973,-26.88281 -0.71973,-26.88281 0,0 0,-1.2002 0,-1.2002 0,0 -0.47998,-16.80175 -0.47998,-16.80175 0,0 -0.24023,-9.36084 -0.24023,-9.36084 0,0 0,-0.72022 0,-0.72022 0,0 -0.23975,-6.7207 -0.23975,-6.7207 0,0 0,-2.40039 0,-2.40039 0,0 -0.23975,-1.91992 -0.23975,-1.91992 0,0 0,-0.72022 0,-0.72022 0,0 -0.24023,-10.80078 -0.24023,-10.80078 0,0 -0.71973,-29.76318 -0.71973,-29.76318 0,0 -0.47998,-19.68213 -0.47998,-19.68213 0,0 -0.23974,-3.12061 -0.23974,-3.12061 0,0 0,-1.43994 0,-1.43994 0,0 0,-1.19971 0,-1.19971 0,0 0,-14.6416 0,-14.6416 0,0 -0.24024,-6.00098 -0.24024,-6.00098 0,0 0,-13.68115 0,-13.68115 0,0 -0.23974,-6.7207 -0.23974,-6.7207 0,0 0,-18.72217 0,-18.72217 0,0 20.39599,-1.43994 20.39599,-1.43994 0,0 6.47901,-0.23975 6.47901,-0.23975 0,0 18.7163,-0.48046 18.7163,-0.48046 0,0 27.11524,-0.71973 27.11524,-0.71973 0,0 1.43994,0 1.43994,0 0,0 10.07813,-0.24024 10.07813,-0.24024 0,0 34.31347,-1.20019 34.31347,-1.20019 0,0 7.43897,-0.24024 7.43897,-0.24024 0,0 2.15918,0 2.15918,0 0,0 3.11963,0 3.11963,0 0,0 5.2788,-0.23974 5.2788,-0.23974 0,0 8.87842,0 8.87842,0 0,0 1.91992,-0.23975 1.91992,-0.23975 0,0 3.83936,0 3.83936,0 0,0 10.5581,-0.24023 10.5581,-0.24023 0,0 4.31885,-0.24024 4.31885,-0.24024 0,0 0.95996,0 0.95996,0 0,0 1.67969,-0.23974 1.67969,-0.23974 0,0 1.91992,-0.24024 1.91992,-0.24024 0,0 5.99854,-0.47998 5.99854,-0.47998 0,0 5.99951,-0.72021 5.99951,-0.72021 0,0 0.71875,0 0.71875,0 0,0 0.7207,0 0.7207,0 0,0 0.95899,0 0.95899,0 0,0 2.40039,-0.23975 2.40039,-0.23975 0,0 1.91894,0 1.91894,0 0,0 1.2002,0 1.2002,0 0,0 1.19922,0 1.19922,0 0,0 2.40039,0 2.40039,0 0,0 15.59765,-0.24023 15.59765,-0.24023 0,0 22.0752,-0.47998 22.0752,-0.47998 0,0 24.95605,-0.47998 24.95605,-0.47998 0,0 0,15.60156 0,15.60156 0,0 0,3.36035 0,3.36035 0,0 0,8.88086 0,8.88086 0,0 0,1.92041 0,1.92041 0,0 0,13.20117 0,13.20117 0,0 0,1.44043 0,1.44043 0,0 0,10.08057 0,10.08057 0,0 0,4.08056 0,4.08056 0,0 0,14.88135 0,14.88135 0,0 0,5.52051 0,5.52051 0,0 0,0.24023 0,0.24023 0,0 0,5.28077 0,5.28077 0,0 0,0.71972 0,0.71972 0,0 0,0.47998 0,0.47998 0,0 0,0.48047 0,0.48047 0,0 0,9.12061 0,9.12061 0,0 0,8.16113 0,8.16113 0,0 3.11914,-0.47998 3.11914,-0.47998 0,0 1.67969,-0.48047 1.67969,-0.48047 0,0 1.67969,-0.23975 1.67969,-0.23975 0,0 3.59961,-0.47998 3.59961,-0.47998 0,0 0.47949,0 0.47949,0 0,0 1.2002,-0.24023 1.2002,-0.24023 0,0 4.79882,-0.72021 4.79882,-0.72021 0,0 0.23926,0 0.23926,0 0,0 0.95996,-0.23975 0.95996,-0.23975 0,0 2.63965,-0.48047 2.63965,-0.48047 0,0 0.95996,0 0.95996,0 0,0 0.71973,-0.23975 0.71973,-0.23975 0,0 3.83887,-0.47998 3.83887,-0.47998 0,0 0.48047,-0.24023 0.48047,-0.24023 0,0 -0.24024,3.60059 -0.24024,3.60059 0,0 0,0.47998 0,0.47998 0,0 -0.24023,2.88037 -0.24023,2.88037 0,0 -0.71875,6.96093 -0.71875,6.96093 0,0 1.19922,4.8003 1.19922,4.8003 0,0 0.71972,2.16015 0.71972,2.16015 0,0 0,0.23975 0,0.23975 0,0 0.95996,3.60059 0.95996,3.60059 0,0 1.2002,4.80029 1.2002,4.80029 0,0 0.24023,0.24023 0.24023,0.24023 0,0 -0.24023,0.72022 -0.24023,0.72022 0,0 -0.24024,0.23974 -0.24024,0.23974 0,0 -1.91992,5.76075 -1.91992,5.76075 0,0 -2.63965,7.44091 -2.63965,7.44091 0,0 0,0.23975 0,0.23975 0,0 0,0.24023 0,0.24023 0,0 0.24024,0.72022 0.24024,0.72022 0,0 0,0.47998 0,0.47998 0,0 0.48047,0.47998 0.48047,0.47998 0,0 0.23925,0.23975 0.23925,0.23975 0,0 0,0.24023 0,0.24023 0,0 3.35938,5.28027 3.35938,5.28027 0,0 -1.67969,1.68018 -1.67969,1.68018 0,0 -1.20019,1.2002 -1.20019,1.2002 0,0 -2.15918,2.16015 -2.15918,2.16015 0,0 0,0.24024 0,0.24024 0,0 -0.95899,0.95996 -0.95899,0.95996 0,0 -1.44043,4.08056 -1.44043,4.08056 0,0 5.03907,11.521 5.03907,11.521 0,0 0,0.72021 0,0.72021 0,0 -0.24024,1.43995 -0.24024,1.43995 0,0 0,1.68017 0,1.68017 0,0 -0.95898,3.60059 -0.95898,3.60059 0,0 0.23925,1.43994 0.23925,1.43994 0,0 0.71973,1.68017 0.71973,1.68017 0,0 2.16016,1.2002 2.16016,1.2002 0,0 1.20019,0.24023 1.20019,0.24023 0,0 1.19922,1.91993 1.19922,1.91993 0,0 0.95996,2.64062 0.95996,2.64062 0,0 0.23926,0.71973 0.23926,0.71973 0,0 0.48047,1.20019 0.48047,1.20019 0,0 0,3.36035 0,3.36035 0,0 0.95996,1.68018 0.95996,1.68018 0,0 6.23828,3.60059 6.23828,3.60059 0,0 12.47852,6.96045 12.47852,6.96045 0,0 1.67968,0.96044 1.67968,0.96044 0,0 5.75879,3.36036 5.75879,3.36036 0,0 0.71973,0.23974 0.71973,0.23974 0,0 14.15723,8.16065 14.15723,8.16065 0,0 3.83886,5.76074 3.83886,5.76074 0,0 1.91993,2.88037 1.91993,2.88037 0,0 2.40039,3.6001 2.40039,3.6001 0,0 1.67968,2.40039 1.67968,2.40039 0,0 5.75879,8.64111 5.75879,8.64111 0,0 6.47852,10.08106 6.47852,10.08106 0,0 0.71972,0.95996 0.71972,0.95996 0,0 -1.91894,4.08056 -1.91894,4.08056 0,0 -8.15918,6.48047 -8.15918,6.48047 0,0 0.23926,1.43994 0.23926,1.43994 0,0 0.96093,5.28077 0.96093,5.28077 0,0 0.95997,6.24072 0.95997,6.24072 0,0 0,0.23974 0,0.23974 0,0 -0.72071,3.84082 -0.72071,3.84082 0,0 -1.67968,8.16065 -1.67968,8.16065 0,0 -10.79786,19.92187 -10.79786,19.92187 0,0 -0.24023,0.24024 -0.24023,0.24024 0,0 -4.79883,-1.92041 -4.79883,-1.92041 0,0 -1.67969,-6.00049 -1.67969,-6.00049 0,0 0.4795,-2.16016 0.4795,-2.16016 0,0 -1.67969,-3.36035 -1.67969,-3.36035 0,0 -2.87891,-6.24072 -2.87891,-6.24072 0,0 -1.20019,-2.64014 -1.20019,-2.64014 0,0 -1.19922,-2.16015 -1.19922,-2.16015 0,0 -1.43946,0 -1.43946,0 0,0 -3.12011,0 -3.12011,0 0,0 -1.67969,8.40088 -1.67969,8.40088 0,0 -5.2793,10.56103 -5.2793,10.56103 0,0 -1.43945,-0.47998 -1.43945,-0.47998 0,0 -1.43945,-3.84082 -1.43945,-3.84082 0,0 -1.44043,-14.64111 -1.44043,-14.64111 0,0 2.16015,-7.68116 2.16015,-7.68116 0,0 2.15918,0.24024 2.15918,0.24024 0,0 3.59961,-5.52051 3.59961,-5.52051 0,0 0.24024,-3.36035 0.24024,-3.36035 0,0 0.23925,-2.88037 0.23925,-2.88037 0,0 0.24122,-2.16016 0.24122,-2.16016 0,0 0.47949,-3.60058 0.47949,-3.60058 0,0 -2.63965,-3.6001 -2.63965,-3.6001 0,0 -6.47949,-9.60108 -6.47949,-9.60108 0,0 -3.35938,-2.40039 -3.35938,-2.40039 0,0 -2.15918,-1.68017 -2.15918,-1.68017 0,0 -5.75879,-1.2002 -5.75879,-1.2002 0,0 -11.51855,-2.64013 -11.51855,-2.64013 0,0 -4.55859,0.47998 -4.55859,0.47998 0,0 -1.91993,2.40039 -1.91993,2.40039 0,0 -0.23925,0.24023 -0.23925,0.24023 0,0 -7.43848,10.80078 -7.43848,10.80078 0,0 0,3.36035 0,3.36035 0,0 0,1.92041 0,1.92041 0,0 0,3.12012 0,3.12012 0,0 0,2.40039 0,2.40039 0,0 0,2.88037 0,2.88037 0,0 -1.91992,7.68067 -1.91992,7.68067 0,0 -2.63965,10.80127 -2.63965,10.80127 0,0 -2.87988,5.04052 -2.87988,5.04052 0,0 -2.63868,-0.72021 -2.63868,-0.72021 0,0 -4.7998,-3.84033 -4.7998,-3.84033 0,0 -0.47949,-6.96094 -0.47949,-6.96094 0,0 0.71972,-2.16016 0.71972,-2.16016 0,0 0,-0.23974 0,-0.23974 0,0 -0.71972,-0.48047 -0.71972,-0.48047 0,0 -0.4795,0 -0.4795,0 0,0 -6,-0.23975 -6,-0.23975 0,0 -10.55761,0 -10.55761,0 0,0 -6.95899,-0.72021 -6.95899,-0.72021 0,0 -7.43847,-0.95996 -7.43847,-0.95996 0,0 -0.95996,-1.68018 -0.95996,-1.68018 0,0 0.71972,-1.44043 0.71972,-1.44043 0,0 -2.15918,-0.71973 -2.15918,-0.71973 0,0 -0.24023,0 -0.24023,0 0,0 -1.91992,2.64014 -1.91992,2.64014 0,0 -0.23926,0.24024 -0.23926,0.24024 0,0 1.67969,10.80078 1.67969,10.80078 0,0 0.47949,3.36035 0.47949,3.36035 0,0 0.71972,4.32031 0.71972,4.32031 0,0 0,0.48047 0,0.48047 0,0 0.24024,0 0.24024,0 0,0 1.43945,-0.24023 1.43945,-0.24023 0,0 7.19922,-2.16016 7.19922,-2.16016 0,0 2.87988,-2.88037 2.87988,-2.88037 0,0 10.07813,6.7207 10.07813,6.7207 0,0 0.47949,6.96094 0.47949,6.96094 0,0 0.71973,16.32129 0.71973,16.32129 0,0 0.71972,9.84131 0.71972,9.84131 0,0 1.44043,27.36279 1.44043,27.36279 0,0 -17.03808,4.80078 -17.03808,4.80078 0,0 -10.07813,2.63965 -10.07813,2.63965 0,0 0.72071,2.64062 0.72071,2.64062 0,0 1.19921,4.55957 1.19921,4.55957 0,0 1.2002,5.52149 1.2002,5.52149 0,0 2.39941,3.83984 2.39941,3.83984 0,0 6.95899,12.00196 6.95899,12.00196 0,0 3.59961,6.48046 3.59961,6.48046 0,0 2.63867,2.64063 2.63867,2.64063 0,0 0.71973,4.08008 0.71973,4.08008 0,0 0.96093,5.52051 0.96093,5.52051 0,0 0,5.5205 0,5.5205 0,0 -2.87988,10.08106 -2.87988,10.08106 0,0 -1.20019,4.56054 -1.20019,4.56054 0,0 0.48046,5.04004 0.48046,5.04004 0,0 0.4795,5.28125 0.4795,5.28125 0,0 0,0.95899 0,0.95899 0,0 1.20019,2.40039 1.20019,2.40039 0,0 0.23926,3.36133 0.23926,3.36133 0,0 -0.47949,4.32031 -0.47949,4.32031 0,0 -0.71973,0.95996 -0.71973,0.95996 0,0 -0.95996,1.19922 -0.95996,1.19922 0,0 -1.2002,-2.15918 -1.2002,-2.15918 0,0 -4.79882,1.67969 -4.79882,1.67969 0,0 0,4.08007 0,4.08007 0,0 1.67968,5.04102 1.67968,5.04102 0,0 -0.23925,4.32031 -0.23925,4.32031 0,0 -3.12012,7.68067 -3.12012,7.68067 0,0 -2.63965,3.12011 -2.63965,3.12011 0,0 -1.67969,-0.24023 -1.67969,-0.24023 0,0 -0.47949,0 -0.47949,0 0,0 -4.7998,2.40137 -4.7998,2.40137 0,0 -3.59961,4.08008 -3.59961,4.08008 0,0 -0.71875,0.47949 -0.71875,0.47949 0,0 0,0.96093 0,0.96093 0,0 0.24023,4.32032 0.24023,4.32032 0,0 0,6.24023 0,6.24023 0,0 0.23926,8.88086 0.23926,8.88086 0,0 0,0.24024 0,0.24024 0,0 -0.47949,0.71972 -0.47949,0.71972 0,0 -1.2002,1.9209 -1.2002,1.9209 0,0 -1.20019,1.43945 -1.20019,1.43945 0,0 -6.23828,9.36133 -6.23828,9.36133 0,0 -3.12012,4.56055 -3.12012,4.56055 0,0 0,0.23926 0,0.23926 0,0 -5.27832,11.76172 -5.27832,11.76172 0,0 -1.43946,-0.24024 -1.43946,-0.24024 0,0 -17.0371,-2.39941 -17.0371,-2.39941 0,0 -5.99903,-0.96094 -5.99903,-0.96094 0,0 -2.39941,-0.47949 -2.39941,-0.47949 0,0 -4.07959,0.71972 -4.07959,0.71972 0,0 -0.23975,0 -0.23975,0 0,0 -7.67871,1.2002 -7.67871,1.2002 0,0 -5.75879,0.71973 -5.75879,0.71973 0,0 -11.03808,2.64062 -11.03808,2.64062 0,0 -11.51807,2.88086 -11.51807,2.88086 0,0 -5.03906,1.19922 -5.03906,1.19922 0,0 -15.35694,3.60058 -15.35694,3.60058 0,0 -0.72021,0.24024 -0.72021,0.24024 0,0 -6.71875,2.39941 -6.71875,2.39941 0,0 -1.67969,0.72071 -1.67969,0.72071 0,0 -30.47412,11.28125 -30.47412,11.28125 0,0 -6.71875,4.08105 -6.71875,4.08105 0,0 -1.67969,0.71973 -1.67969,0.71973 0,0 -11.75781,4.55957 -11.75781,4.55957 0,0 -5.2793,0.48047 -5.2793,0.48047 0,0 -21.35595,1.91992 -21.35595,1.91992 0,0 -6.23877,0.48047 -6.23877,0.48047 0,0 -7.67871,1.68066 -7.67871,1.68066 0,0 -16.55713,4.79981 -16.55713,4.79981 0,0 -4.07911,0.95996 -4.07911,0.95996 0,0 -9.11816,2.64062 -9.11816,2.64062 0,0 -14.63769,7.44141 -14.63769,7.44141 0,0 -3.35938,-2.88086 -3.35938,-2.88086 0,0 0.47998,-5.52051 0.47998,-5.52051 0,0 0.95996,-3.12012 0.95996,-3.12012 0,0 0.47998,-1.68066 0.47998,-1.68066 0,0 7.19873,-5.75977 7.19873,-5.75977 0,0 0.47998,-0.48144 0.47998,-0.48144 0,0 4.79883,-3.83985 4.79883,-3.83985 0,0 4.55908,-5.28027 4.55908,-5.28027 0,0 0,-0.24023 0,-0.24023 0,0 0.72022,-2.64063 0.72022,-2.64063 0,0 0,-5.75976 0,-5.75976 0,0 0,-3.60059 0,-3.60059 0,0 -0.24024,-5.76074 -0.24024,-5.76074 0,0 0,-0.7207 0,-0.7207 0,0 0,-1.2002 0,-1.2002 0,0 0,-0.95898 0,-0.95898 0,0 0,-0.48047 0,-0.48047 0,0 0,-2.16016 0,-2.16016 0,0 0,-0.95996 0,-0.95996 0,0 -0.47998,-4.56055 -0.47998,-4.56055 0,0 0,-0.95996 0,-0.95996 0,0 -0.23974,-1.44043 -0.23974,-1.44043 0,0 0,-0.95996 0,-0.95996 0,0 0,-0.71973 0,-0.71973 0,0 -0.24024,-1.68066 -0.24024,-1.68066 0,0 0,-0.24023 0,-0.24023 0,0 0,-0.71973 0,-0.71973 0,0 -0.23974,-0.24023 -0.23974,-0.24023 0,0 -2.8794,-4.56055 -2.8794,-4.56055 0,0 0,-0.23926 0,-0.23926 0,0 -1.67969,-2.88086 -1.67969,-2.88086 0,0 -0.24023,-0.24023 -0.24023,-0.24023 0,0 -0.23975,-0.23926 -0.23975,-0.23926 0,0 -0.23974,-0.48047 -0.23974,-0.48047 0,0 0,-0.24023 0,-0.24023 0,0 0,-0.23926 0,-0.23926 0,0 -0.72022,-8.16113 -0.72022,-8.16113 0,0 0,-0.48047 0,-0.48047 0,0 0.24024,-1.2002 0.24024,-1.2002 0,0 0.23974,-0.48047 0.23974,-0.48047 0,0 0,-1.19922 0,-1.19922 0,0 0.24024,-0.24023 0.24024,-0.24023 0,0 1.67969,-1.67969 1.67969,-1.67969 0,0 11.03759,-5.04101 11.03759,-5.04101 0,0 2.15967,-0.96094 2.15967,-0.96094 0,0 4.31934,0.7207 4.31934,0.7207 0,0 8.63818,1.68067 8.63818,1.68067 0,0 0,-2.40137 0,-2.40137 0,0 0,-1.43945 0,-1.43945 0,0 0.24024,-4.08008 0.24024,-4.08008 0,0 0.23974,-8.64063 0.23974,-8.64063 0,0 0.24024,-4.80078 0.24024,-4.80078 0,0 0.47998,-13.44141 0.47998,-13.44141 0,0 0.23974,-4.08007 0.23974,-4.08007 0,0 0.95996,-29.04395 0.95996,-29.04395 0,0 0.23975,-5.28027 0.23975,-5.28027 0,0 0.71973,-17.76172 0.71973,-17.76172 0,0 0.47998,-15.12109 0.47998,-15.12109 0,0 0.95996,-21.84278 0.95996,-21.84278 0,0 0.71972,-20.64209 0.71972,-20.64209 0,0 1.19971,-35.52344 1.19971,-35.52344 0,0 0.47998,-13.20117 0.47998,-13.20117 0,0 -0.95947,-35.04394 -0.95947,-35.04394 0,0 -0.47998,-21.60205 -0.47998,-21.60205 z" /></g></g></g></svg>
